M48
; DRILL file {KiCad 7.0.10-7.0.10~ubuntu20.04.1} date Mon 07 Oct 2024 06:02:46 PM CEST
; FORMAT={-:-/ absolute / metric / decimal}
; #@! TF.CreationDate,2024-10-07T18:02:46+02:00
; #@! TF.GenerationSoftware,Kicad,Pcbnew,7.0.10-7.0.10~ubuntu20.04.1
; #@! TF.FileFunction,Plated,1,2,PTH
FMAT,2
METRIC
; #@! TA.AperFunction,Plated,PTH,ViaDrill
T1C0.400
; #@! TA.AperFunction,Plated,PTH,ComponentDrill
T2C0.500
; #@! TA.AperFunction,Plated,PTH,ComponentDrill
T3C0.800
; #@! TA.AperFunction,Plated,PTH,ComponentDrill
T4C1.000
; #@! TA.AperFunction,Plated,PTH,ViaDrill
T5C3.200
%
G90
G05
T1
X130.302Y-78.486
X130.81Y-80.264
X131.02Y-81.469
X135.761Y-81.283
X137.577Y-82.068
X139.0Y-80.0
X139.573Y-77.851
X139.943Y-80.481
X139.954Y-79.502
X140.208Y-81.393
X140.462Y-85.09
X141.0Y-72.0
X141.986Y-83.058
X143.002Y-84.328
X143.792Y-83.801
X143.851Y-82.853
X144.0Y-74.0
X145.0Y-74.0
X145.0Y-87.0
X146.0Y-78.0
X146.0Y-80.0
X147.0Y-80.0
X148.0Y-80.0
X150.0Y-80.0
X150.0Y-81.0
X152.0Y-73.0
X153.0Y-73.0
X154.0Y-73.0
X154.0Y-87.0
X154.178Y-78.065
X155.0Y-73.0
X156.0Y-73.0
X159.512Y-73.406
X163.0Y-79.0
X163.0Y-88.0
X163.0Y-89.0
X164.0Y-72.0
X165.0Y-72.0
T4
X144.831Y-89.756
X147.371Y-89.756
X149.911Y-89.756
X154.578Y-81.376
X155.418Y-89.83
X157.118Y-81.376
X157.958Y-89.83
X159.659Y-81.376
X160.498Y-89.83
T5
X127.0Y-70.0
X127.0Y-94.0
X180.0Y-82.5
T2
X127.0Y-76.268G85X126.4Y-76.268
G05
X127.0Y-85.248G85X126.4Y-85.248
G05
X132.95Y-76.628G85X132.35Y-76.628
G05
X132.95Y-84.888G85X132.35Y-84.888
G05
T3
X171.704Y-75.033G85X171.704Y-72.433
G05
X171.704Y-92.705G85X171.704Y-90.105
G05
X175.804Y-68.933G85X173.604Y-68.933
G05
X175.804Y-86.605G85X173.604Y-86.605
G05
X177.504Y-74.833G85X177.504Y-72.633
G05
X177.504Y-92.505G85X177.504Y-90.305
G05
M30
