%TF.GenerationSoftware,KiCad,Pcbnew,7.0.10-7.0.10~ubuntu20.04.1*%
%TF.CreationDate,2024-11-18T10:21:58+01:00*%
%TF.ProjectId,powerplay,706f7765-7270-46c6-9179-2e6b69636164,1*%
%TF.SameCoordinates,Original*%
%TF.FileFunction,Legend,Top*%
%TF.FilePolarity,Positive*%
%FSLAX46Y46*%
G04 Gerber Fmt 4.6, Leading zero omitted, Abs format (unit mm)*
G04 Created by KiCad (PCBNEW 7.0.10-7.0.10~ubuntu20.04.1) date 2024-11-18 10:21:58*
%MOMM*%
%LPD*%
G01*
G04 APERTURE LIST*
%ADD10C,0.150000*%
%ADD11C,0.200000*%
%ADD12C,0.120000*%
G04 APERTURE END LIST*
D10*
X170469160Y-78975057D02*
X170516779Y-78927438D01*
X170516779Y-78927438D02*
X170612017Y-78879819D01*
X170612017Y-78879819D02*
X170850112Y-78879819D01*
X170850112Y-78879819D02*
X170945350Y-78927438D01*
X170945350Y-78927438D02*
X170992969Y-78975057D01*
X170992969Y-78975057D02*
X171040588Y-79070295D01*
X171040588Y-79070295D02*
X171040588Y-79165533D01*
X171040588Y-79165533D02*
X170992969Y-79308390D01*
X170992969Y-79308390D02*
X170421541Y-79879819D01*
X170421541Y-79879819D02*
X171040588Y-79879819D01*
X171659636Y-78879819D02*
X171754874Y-78879819D01*
X171754874Y-78879819D02*
X171850112Y-78927438D01*
X171850112Y-78927438D02*
X171897731Y-78975057D01*
X171897731Y-78975057D02*
X171945350Y-79070295D01*
X171945350Y-79070295D02*
X171992969Y-79260771D01*
X171992969Y-79260771D02*
X171992969Y-79498866D01*
X171992969Y-79498866D02*
X171945350Y-79689342D01*
X171945350Y-79689342D02*
X171897731Y-79784580D01*
X171897731Y-79784580D02*
X171850112Y-79832200D01*
X171850112Y-79832200D02*
X171754874Y-79879819D01*
X171754874Y-79879819D02*
X171659636Y-79879819D01*
X171659636Y-79879819D02*
X171564398Y-79832200D01*
X171564398Y-79832200D02*
X171516779Y-79784580D01*
X171516779Y-79784580D02*
X171469160Y-79689342D01*
X171469160Y-79689342D02*
X171421541Y-79498866D01*
X171421541Y-79498866D02*
X171421541Y-79260771D01*
X171421541Y-79260771D02*
X171469160Y-79070295D01*
X171469160Y-79070295D02*
X171516779Y-78975057D01*
X171516779Y-78975057D02*
X171564398Y-78927438D01*
X171564398Y-78927438D02*
X171659636Y-78879819D01*
X172278684Y-78879819D02*
X172612017Y-79879819D01*
X172612017Y-79879819D02*
X172945350Y-78879819D01*
X174754874Y-78832200D02*
X173897732Y-80117914D01*
X176373922Y-79879819D02*
X175802494Y-79879819D01*
X176088208Y-79879819D02*
X176088208Y-78879819D01*
X176088208Y-78879819D02*
X175992970Y-79022676D01*
X175992970Y-79022676D02*
X175897732Y-79117914D01*
X175897732Y-79117914D02*
X175802494Y-79165533D01*
X177278684Y-78879819D02*
X176802494Y-78879819D01*
X176802494Y-78879819D02*
X176754875Y-79356009D01*
X176754875Y-79356009D02*
X176802494Y-79308390D01*
X176802494Y-79308390D02*
X176897732Y-79260771D01*
X176897732Y-79260771D02*
X177135827Y-79260771D01*
X177135827Y-79260771D02*
X177231065Y-79308390D01*
X177231065Y-79308390D02*
X177278684Y-79356009D01*
X177278684Y-79356009D02*
X177326303Y-79451247D01*
X177326303Y-79451247D02*
X177326303Y-79689342D01*
X177326303Y-79689342D02*
X177278684Y-79784580D01*
X177278684Y-79784580D02*
X177231065Y-79832200D01*
X177231065Y-79832200D02*
X177135827Y-79879819D01*
X177135827Y-79879819D02*
X176897732Y-79879819D01*
X176897732Y-79879819D02*
X176802494Y-79832200D01*
X176802494Y-79832200D02*
X176754875Y-79784580D01*
X177612018Y-78879819D02*
X177945351Y-79879819D01*
X177945351Y-79879819D02*
X178278684Y-78879819D01*
X173834588Y-84959819D02*
X173263160Y-84959819D01*
X173548874Y-84959819D02*
X173548874Y-83959819D01*
X173548874Y-83959819D02*
X173453636Y-84102676D01*
X173453636Y-84102676D02*
X173358398Y-84197914D01*
X173358398Y-84197914D02*
X173263160Y-84245533D01*
X174215541Y-84055057D02*
X174263160Y-84007438D01*
X174263160Y-84007438D02*
X174358398Y-83959819D01*
X174358398Y-83959819D02*
X174596493Y-83959819D01*
X174596493Y-83959819D02*
X174691731Y-84007438D01*
X174691731Y-84007438D02*
X174739350Y-84055057D01*
X174739350Y-84055057D02*
X174786969Y-84150295D01*
X174786969Y-84150295D02*
X174786969Y-84245533D01*
X174786969Y-84245533D02*
X174739350Y-84388390D01*
X174739350Y-84388390D02*
X174167922Y-84959819D01*
X174167922Y-84959819D02*
X174786969Y-84959819D01*
X175072684Y-83959819D02*
X175406017Y-84959819D01*
X175406017Y-84959819D02*
X175739350Y-83959819D01*
X144322969Y-95389819D02*
X143846779Y-95389819D01*
X143846779Y-95389819D02*
X143799160Y-95866009D01*
X143799160Y-95866009D02*
X143846779Y-95818390D01*
X143846779Y-95818390D02*
X143942017Y-95770771D01*
X143942017Y-95770771D02*
X144180112Y-95770771D01*
X144180112Y-95770771D02*
X144275350Y-95818390D01*
X144275350Y-95818390D02*
X144322969Y-95866009D01*
X144322969Y-95866009D02*
X144370588Y-95961247D01*
X144370588Y-95961247D02*
X144370588Y-96199342D01*
X144370588Y-96199342D02*
X144322969Y-96294580D01*
X144322969Y-96294580D02*
X144275350Y-96342200D01*
X144275350Y-96342200D02*
X144180112Y-96389819D01*
X144180112Y-96389819D02*
X143942017Y-96389819D01*
X143942017Y-96389819D02*
X143846779Y-96342200D01*
X143846779Y-96342200D02*
X143799160Y-96294580D01*
X144751541Y-96104104D02*
X145227731Y-96104104D01*
X144656303Y-96389819D02*
X144989636Y-95389819D01*
X144989636Y-95389819D02*
X145322969Y-96389819D01*
X160118588Y-96389819D02*
X159547160Y-96389819D01*
X159832874Y-96389819D02*
X159832874Y-95389819D01*
X159832874Y-95389819D02*
X159737636Y-95532676D01*
X159737636Y-95532676D02*
X159642398Y-95627914D01*
X159642398Y-95627914D02*
X159547160Y-95675533D01*
X161023350Y-95389819D02*
X160547160Y-95389819D01*
X160547160Y-95389819D02*
X160499541Y-95866009D01*
X160499541Y-95866009D02*
X160547160Y-95818390D01*
X160547160Y-95818390D02*
X160642398Y-95770771D01*
X160642398Y-95770771D02*
X160880493Y-95770771D01*
X160880493Y-95770771D02*
X160975731Y-95818390D01*
X160975731Y-95818390D02*
X161023350Y-95866009D01*
X161023350Y-95866009D02*
X161070969Y-95961247D01*
X161070969Y-95961247D02*
X161070969Y-96199342D01*
X161070969Y-96199342D02*
X161023350Y-96294580D01*
X161023350Y-96294580D02*
X160975731Y-96342200D01*
X160975731Y-96342200D02*
X160880493Y-96389819D01*
X160880493Y-96389819D02*
X160642398Y-96389819D01*
X160642398Y-96389819D02*
X160547160Y-96342200D01*
X160547160Y-96342200D02*
X160499541Y-96294580D01*
X161356684Y-95389819D02*
X161690017Y-96389819D01*
X161690017Y-96389819D02*
X162023350Y-95389819D01*
X154467160Y-95485057D02*
X154514779Y-95437438D01*
X154514779Y-95437438D02*
X154610017Y-95389819D01*
X154610017Y-95389819D02*
X154848112Y-95389819D01*
X154848112Y-95389819D02*
X154943350Y-95437438D01*
X154943350Y-95437438D02*
X154990969Y-95485057D01*
X154990969Y-95485057D02*
X155038588Y-95580295D01*
X155038588Y-95580295D02*
X155038588Y-95675533D01*
X155038588Y-95675533D02*
X154990969Y-95818390D01*
X154990969Y-95818390D02*
X154419541Y-96389819D01*
X154419541Y-96389819D02*
X155038588Y-96389819D01*
X155657636Y-95389819D02*
X155752874Y-95389819D01*
X155752874Y-95389819D02*
X155848112Y-95437438D01*
X155848112Y-95437438D02*
X155895731Y-95485057D01*
X155895731Y-95485057D02*
X155943350Y-95580295D01*
X155943350Y-95580295D02*
X155990969Y-95770771D01*
X155990969Y-95770771D02*
X155990969Y-96008866D01*
X155990969Y-96008866D02*
X155943350Y-96199342D01*
X155943350Y-96199342D02*
X155895731Y-96294580D01*
X155895731Y-96294580D02*
X155848112Y-96342200D01*
X155848112Y-96342200D02*
X155752874Y-96389819D01*
X155752874Y-96389819D02*
X155657636Y-96389819D01*
X155657636Y-96389819D02*
X155562398Y-96342200D01*
X155562398Y-96342200D02*
X155514779Y-96294580D01*
X155514779Y-96294580D02*
X155467160Y-96199342D01*
X155467160Y-96199342D02*
X155419541Y-96008866D01*
X155419541Y-96008866D02*
X155419541Y-95770771D01*
X155419541Y-95770771D02*
X155467160Y-95580295D01*
X155467160Y-95580295D02*
X155514779Y-95485057D01*
X155514779Y-95485057D02*
X155562398Y-95437438D01*
X155562398Y-95437438D02*
X155657636Y-95389819D01*
X156276684Y-95389819D02*
X156610017Y-96389819D01*
X156610017Y-96389819D02*
X156943350Y-95389819D01*
X149339541Y-95389819D02*
X149958588Y-95389819D01*
X149958588Y-95389819D02*
X149625255Y-95770771D01*
X149625255Y-95770771D02*
X149768112Y-95770771D01*
X149768112Y-95770771D02*
X149863350Y-95818390D01*
X149863350Y-95818390D02*
X149910969Y-95866009D01*
X149910969Y-95866009D02*
X149958588Y-95961247D01*
X149958588Y-95961247D02*
X149958588Y-96199342D01*
X149958588Y-96199342D02*
X149910969Y-96294580D01*
X149910969Y-96294580D02*
X149863350Y-96342200D01*
X149863350Y-96342200D02*
X149768112Y-96389819D01*
X149768112Y-96389819D02*
X149482398Y-96389819D01*
X149482398Y-96389819D02*
X149387160Y-96342200D01*
X149387160Y-96342200D02*
X149339541Y-96294580D01*
X150339541Y-96104104D02*
X150815731Y-96104104D01*
X150244303Y-96389819D02*
X150577636Y-95389819D01*
X150577636Y-95389819D02*
X150910969Y-96389819D01*
X157054779Y-68957819D02*
X157054779Y-67957819D01*
X157054779Y-68434009D02*
X157626207Y-68434009D01*
X157626207Y-68957819D02*
X157626207Y-67957819D01*
X158435731Y-68434009D02*
X158578588Y-68481628D01*
X158578588Y-68481628D02*
X158626207Y-68529247D01*
X158626207Y-68529247D02*
X158673826Y-68624485D01*
X158673826Y-68624485D02*
X158673826Y-68767342D01*
X158673826Y-68767342D02*
X158626207Y-68862580D01*
X158626207Y-68862580D02*
X158578588Y-68910200D01*
X158578588Y-68910200D02*
X158483350Y-68957819D01*
X158483350Y-68957819D02*
X158102398Y-68957819D01*
X158102398Y-68957819D02*
X158102398Y-67957819D01*
X158102398Y-67957819D02*
X158435731Y-67957819D01*
X158435731Y-67957819D02*
X158530969Y-68005438D01*
X158530969Y-68005438D02*
X158578588Y-68053057D01*
X158578588Y-68053057D02*
X158626207Y-68148295D01*
X158626207Y-68148295D02*
X158626207Y-68243533D01*
X158626207Y-68243533D02*
X158578588Y-68338771D01*
X158578588Y-68338771D02*
X158530969Y-68386390D01*
X158530969Y-68386390D02*
X158435731Y-68434009D01*
X158435731Y-68434009D02*
X158102398Y-68434009D01*
X159150017Y-68957819D02*
X159340493Y-68957819D01*
X159340493Y-68957819D02*
X159435731Y-68910200D01*
X159435731Y-68910200D02*
X159483350Y-68862580D01*
X159483350Y-68862580D02*
X159578588Y-68719723D01*
X159578588Y-68719723D02*
X159626207Y-68529247D01*
X159626207Y-68529247D02*
X159626207Y-68148295D01*
X159626207Y-68148295D02*
X159578588Y-68053057D01*
X159578588Y-68053057D02*
X159530969Y-68005438D01*
X159530969Y-68005438D02*
X159435731Y-67957819D01*
X159435731Y-67957819D02*
X159245255Y-67957819D01*
X159245255Y-67957819D02*
X159150017Y-68005438D01*
X159150017Y-68005438D02*
X159102398Y-68053057D01*
X159102398Y-68053057D02*
X159054779Y-68148295D01*
X159054779Y-68148295D02*
X159054779Y-68386390D01*
X159054779Y-68386390D02*
X159102398Y-68481628D01*
X159102398Y-68481628D02*
X159150017Y-68529247D01*
X159150017Y-68529247D02*
X159245255Y-68576866D01*
X159245255Y-68576866D02*
X159435731Y-68576866D01*
X159435731Y-68576866D02*
X159530969Y-68529247D01*
X159530969Y-68529247D02*
X159578588Y-68481628D01*
X159578588Y-68481628D02*
X159626207Y-68386390D01*
X160054779Y-68957819D02*
X160054779Y-67957819D01*
X160530969Y-68957819D02*
X160530969Y-67957819D01*
X161102397Y-68957819D02*
X160673826Y-68386390D01*
X161102397Y-67957819D02*
X160530969Y-68529247D01*
X162007159Y-68957819D02*
X161530969Y-68957819D01*
X161530969Y-68957819D02*
X161530969Y-67957819D01*
X162388112Y-68910200D02*
X162388112Y-68957819D01*
X162388112Y-68957819D02*
X162340493Y-69053057D01*
X162340493Y-69053057D02*
X162292874Y-69100676D01*
X163578588Y-68957819D02*
X163578588Y-67957819D01*
X163578588Y-68434009D02*
X164150016Y-68434009D01*
X164150016Y-68957819D02*
X164150016Y-67957819D01*
X164959540Y-68434009D02*
X165102397Y-68481628D01*
X165102397Y-68481628D02*
X165150016Y-68529247D01*
X165150016Y-68529247D02*
X165197635Y-68624485D01*
X165197635Y-68624485D02*
X165197635Y-68767342D01*
X165197635Y-68767342D02*
X165150016Y-68862580D01*
X165150016Y-68862580D02*
X165102397Y-68910200D01*
X165102397Y-68910200D02*
X165007159Y-68957819D01*
X165007159Y-68957819D02*
X164626207Y-68957819D01*
X164626207Y-68957819D02*
X164626207Y-67957819D01*
X164626207Y-67957819D02*
X164959540Y-67957819D01*
X164959540Y-67957819D02*
X165054778Y-68005438D01*
X165054778Y-68005438D02*
X165102397Y-68053057D01*
X165102397Y-68053057D02*
X165150016Y-68148295D01*
X165150016Y-68148295D02*
X165150016Y-68243533D01*
X165150016Y-68243533D02*
X165102397Y-68338771D01*
X165102397Y-68338771D02*
X165054778Y-68386390D01*
X165054778Y-68386390D02*
X164959540Y-68434009D01*
X164959540Y-68434009D02*
X164626207Y-68434009D01*
X165673826Y-68957819D02*
X165864302Y-68957819D01*
X165864302Y-68957819D02*
X165959540Y-68910200D01*
X165959540Y-68910200D02*
X166007159Y-68862580D01*
X166007159Y-68862580D02*
X166102397Y-68719723D01*
X166102397Y-68719723D02*
X166150016Y-68529247D01*
X166150016Y-68529247D02*
X166150016Y-68148295D01*
X166150016Y-68148295D02*
X166102397Y-68053057D01*
X166102397Y-68053057D02*
X166054778Y-68005438D01*
X166054778Y-68005438D02*
X165959540Y-67957819D01*
X165959540Y-67957819D02*
X165769064Y-67957819D01*
X165769064Y-67957819D02*
X165673826Y-68005438D01*
X165673826Y-68005438D02*
X165626207Y-68053057D01*
X165626207Y-68053057D02*
X165578588Y-68148295D01*
X165578588Y-68148295D02*
X165578588Y-68386390D01*
X165578588Y-68386390D02*
X165626207Y-68481628D01*
X165626207Y-68481628D02*
X165673826Y-68529247D01*
X165673826Y-68529247D02*
X165769064Y-68576866D01*
X165769064Y-68576866D02*
X165959540Y-68576866D01*
X165959540Y-68576866D02*
X166054778Y-68529247D01*
X166054778Y-68529247D02*
X166102397Y-68481628D01*
X166102397Y-68481628D02*
X166150016Y-68386390D01*
X166578588Y-68957819D02*
X166578588Y-67957819D01*
X167054778Y-68957819D02*
X167054778Y-67957819D01*
X167626206Y-68957819D02*
X167197635Y-68386390D01*
X167626206Y-67957819D02*
X167054778Y-68529247D01*
X168054778Y-68957819D02*
X168054778Y-67957819D01*
X168626206Y-68957819D02*
X168197635Y-68386390D01*
X168626206Y-67957819D02*
X168054778Y-68529247D01*
D11*
X133314720Y-69544885D02*
X133171863Y-69473457D01*
X133171863Y-69473457D02*
X133029006Y-69330600D01*
X133029006Y-69330600D02*
X132814720Y-69116314D01*
X132814720Y-69116314D02*
X132671863Y-69044885D01*
X132671863Y-69044885D02*
X132529006Y-69044885D01*
X132600435Y-69402028D02*
X132457578Y-69330600D01*
X132457578Y-69330600D02*
X132314720Y-69187742D01*
X132314720Y-69187742D02*
X132243292Y-68902028D01*
X132243292Y-68902028D02*
X132243292Y-68402028D01*
X132243292Y-68402028D02*
X132314720Y-68116314D01*
X132314720Y-68116314D02*
X132457578Y-67973457D01*
X132457578Y-67973457D02*
X132600435Y-67902028D01*
X132600435Y-67902028D02*
X132886149Y-67902028D01*
X132886149Y-67902028D02*
X133029006Y-67973457D01*
X133029006Y-67973457D02*
X133171863Y-68116314D01*
X133171863Y-68116314D02*
X133243292Y-68402028D01*
X133243292Y-68402028D02*
X133243292Y-68902028D01*
X133243292Y-68902028D02*
X133171863Y-69187742D01*
X133171863Y-69187742D02*
X133029006Y-69330600D01*
X133029006Y-69330600D02*
X132886149Y-69402028D01*
X132886149Y-69402028D02*
X132600435Y-69402028D01*
X133886149Y-69402028D02*
X133886149Y-67902028D01*
X133886149Y-67902028D02*
X134386149Y-68973457D01*
X134386149Y-68973457D02*
X134886149Y-67902028D01*
X134886149Y-67902028D02*
X134886149Y-69402028D01*
X135457578Y-67902028D02*
X136457578Y-69402028D01*
X136457578Y-67902028D02*
X135457578Y-69402028D01*
X138171863Y-68830600D02*
X139314721Y-68830600D01*
X138743292Y-69402028D02*
X138743292Y-68259171D01*
X141171863Y-69402028D02*
X141171863Y-67902028D01*
X141171863Y-67902028D02*
X141743292Y-67902028D01*
X141743292Y-67902028D02*
X141886149Y-67973457D01*
X141886149Y-67973457D02*
X141957578Y-68044885D01*
X141957578Y-68044885D02*
X142029006Y-68187742D01*
X142029006Y-68187742D02*
X142029006Y-68402028D01*
X142029006Y-68402028D02*
X141957578Y-68544885D01*
X141957578Y-68544885D02*
X141886149Y-68616314D01*
X141886149Y-68616314D02*
X141743292Y-68687742D01*
X141743292Y-68687742D02*
X141171863Y-68687742D01*
X142600435Y-68973457D02*
X143314721Y-68973457D01*
X142457578Y-69402028D02*
X142957578Y-67902028D01*
X142957578Y-67902028D02*
X143457578Y-69402028D01*
X145100434Y-69402028D02*
X145100434Y-67902028D01*
X145100434Y-67902028D02*
X145671863Y-67902028D01*
X145671863Y-67902028D02*
X145814720Y-67973457D01*
X145814720Y-67973457D02*
X145886149Y-68044885D01*
X145886149Y-68044885D02*
X145957577Y-68187742D01*
X145957577Y-68187742D02*
X145957577Y-68402028D01*
X145957577Y-68402028D02*
X145886149Y-68544885D01*
X145886149Y-68544885D02*
X145814720Y-68616314D01*
X145814720Y-68616314D02*
X145671863Y-68687742D01*
X145671863Y-68687742D02*
X145100434Y-68687742D01*
X146529006Y-69330600D02*
X146743292Y-69402028D01*
X146743292Y-69402028D02*
X147100434Y-69402028D01*
X147100434Y-69402028D02*
X147243292Y-69330600D01*
X147243292Y-69330600D02*
X147314720Y-69259171D01*
X147314720Y-69259171D02*
X147386149Y-69116314D01*
X147386149Y-69116314D02*
X147386149Y-68973457D01*
X147386149Y-68973457D02*
X147314720Y-68830600D01*
X147314720Y-68830600D02*
X147243292Y-68759171D01*
X147243292Y-68759171D02*
X147100434Y-68687742D01*
X147100434Y-68687742D02*
X146814720Y-68616314D01*
X146814720Y-68616314D02*
X146671863Y-68544885D01*
X146671863Y-68544885D02*
X146600434Y-68473457D01*
X146600434Y-68473457D02*
X146529006Y-68330600D01*
X146529006Y-68330600D02*
X146529006Y-68187742D01*
X146529006Y-68187742D02*
X146600434Y-68044885D01*
X146600434Y-68044885D02*
X146671863Y-67973457D01*
X146671863Y-67973457D02*
X146814720Y-67902028D01*
X146814720Y-67902028D02*
X147171863Y-67902028D01*
X147171863Y-67902028D02*
X147386149Y-67973457D01*
X148029005Y-67902028D02*
X148029005Y-69116314D01*
X148029005Y-69116314D02*
X148100434Y-69259171D01*
X148100434Y-69259171D02*
X148171863Y-69330600D01*
X148171863Y-69330600D02*
X148314720Y-69402028D01*
X148314720Y-69402028D02*
X148600434Y-69402028D01*
X148600434Y-69402028D02*
X148743291Y-69330600D01*
X148743291Y-69330600D02*
X148814720Y-69259171D01*
X148814720Y-69259171D02*
X148886148Y-69116314D01*
X148886148Y-69116314D02*
X148886148Y-67902028D01*
D10*
X151816723Y-93575666D02*
X151340532Y-93908999D01*
X151816723Y-94147094D02*
X150816723Y-94147094D01*
X150816723Y-94147094D02*
X150816723Y-93766142D01*
X150816723Y-93766142D02*
X150864342Y-93670904D01*
X150864342Y-93670904D02*
X150911961Y-93623285D01*
X150911961Y-93623285D02*
X151007199Y-93575666D01*
X151007199Y-93575666D02*
X151150056Y-93575666D01*
X151150056Y-93575666D02*
X151245294Y-93623285D01*
X151245294Y-93623285D02*
X151292913Y-93670904D01*
X151292913Y-93670904D02*
X151340532Y-93766142D01*
X151340532Y-93766142D02*
X151340532Y-94147094D01*
X151816723Y-93099475D02*
X151816723Y-92908999D01*
X151816723Y-92908999D02*
X151769104Y-92813761D01*
X151769104Y-92813761D02*
X151721484Y-92766142D01*
X151721484Y-92766142D02*
X151578627Y-92670904D01*
X151578627Y-92670904D02*
X151388151Y-92623285D01*
X151388151Y-92623285D02*
X151007199Y-92623285D01*
X151007199Y-92623285D02*
X150911961Y-92670904D01*
X150911961Y-92670904D02*
X150864342Y-92718523D01*
X150864342Y-92718523D02*
X150816723Y-92813761D01*
X150816723Y-92813761D02*
X150816723Y-93004237D01*
X150816723Y-93004237D02*
X150864342Y-93099475D01*
X150864342Y-93099475D02*
X150911961Y-93147094D01*
X150911961Y-93147094D02*
X151007199Y-93194713D01*
X151007199Y-93194713D02*
X151245294Y-93194713D01*
X151245294Y-93194713D02*
X151340532Y-93147094D01*
X151340532Y-93147094D02*
X151388151Y-93099475D01*
X151388151Y-93099475D02*
X151435770Y-93004237D01*
X151435770Y-93004237D02*
X151435770Y-92813761D01*
X151435770Y-92813761D02*
X151388151Y-92718523D01*
X151388151Y-92718523D02*
X151340532Y-92670904D01*
X151340532Y-92670904D02*
X151245294Y-92623285D01*
X168658819Y-74066343D02*
X169373104Y-74066343D01*
X169373104Y-74066343D02*
X169515961Y-74113962D01*
X169515961Y-74113962D02*
X169611200Y-74209200D01*
X169611200Y-74209200D02*
X169658819Y-74352057D01*
X169658819Y-74352057D02*
X169658819Y-74447295D01*
X168754057Y-73637771D02*
X168706438Y-73590152D01*
X168706438Y-73590152D02*
X168658819Y-73494914D01*
X168658819Y-73494914D02*
X168658819Y-73256819D01*
X168658819Y-73256819D02*
X168706438Y-73161581D01*
X168706438Y-73161581D02*
X168754057Y-73113962D01*
X168754057Y-73113962D02*
X168849295Y-73066343D01*
X168849295Y-73066343D02*
X168944533Y-73066343D01*
X168944533Y-73066343D02*
X169087390Y-73113962D01*
X169087390Y-73113962D02*
X169658819Y-73685390D01*
X169658819Y-73685390D02*
X169658819Y-73066343D01*
X156484228Y-78110057D02*
X156388990Y-78062438D01*
X156388990Y-78062438D02*
X156293752Y-77967200D01*
X156293752Y-77967200D02*
X156150895Y-77824342D01*
X156150895Y-77824342D02*
X156055657Y-77776723D01*
X156055657Y-77776723D02*
X155960419Y-77776723D01*
X156008038Y-78014819D02*
X155912800Y-77967200D01*
X155912800Y-77967200D02*
X155817562Y-77871961D01*
X155817562Y-77871961D02*
X155769943Y-77681485D01*
X155769943Y-77681485D02*
X155769943Y-77348152D01*
X155769943Y-77348152D02*
X155817562Y-77157676D01*
X155817562Y-77157676D02*
X155912800Y-77062438D01*
X155912800Y-77062438D02*
X156008038Y-77014819D01*
X156008038Y-77014819D02*
X156198514Y-77014819D01*
X156198514Y-77014819D02*
X156293752Y-77062438D01*
X156293752Y-77062438D02*
X156388990Y-77157676D01*
X156388990Y-77157676D02*
X156436609Y-77348152D01*
X156436609Y-77348152D02*
X156436609Y-77681485D01*
X156436609Y-77681485D02*
X156388990Y-77871961D01*
X156388990Y-77871961D02*
X156293752Y-77967200D01*
X156293752Y-77967200D02*
X156198514Y-78014819D01*
X156198514Y-78014819D02*
X156008038Y-78014819D01*
X157388990Y-78014819D02*
X156817562Y-78014819D01*
X157103276Y-78014819D02*
X157103276Y-77014819D01*
X157103276Y-77014819D02*
X157008038Y-77157676D01*
X157008038Y-77157676D02*
X156912800Y-77252914D01*
X156912800Y-77252914D02*
X156817562Y-77300533D01*
X141838819Y-87288666D02*
X141362628Y-87621999D01*
X141838819Y-87860094D02*
X140838819Y-87860094D01*
X140838819Y-87860094D02*
X140838819Y-87479142D01*
X140838819Y-87479142D02*
X140886438Y-87383904D01*
X140886438Y-87383904D02*
X140934057Y-87336285D01*
X140934057Y-87336285D02*
X141029295Y-87288666D01*
X141029295Y-87288666D02*
X141172152Y-87288666D01*
X141172152Y-87288666D02*
X141267390Y-87336285D01*
X141267390Y-87336285D02*
X141315009Y-87383904D01*
X141315009Y-87383904D02*
X141362628Y-87479142D01*
X141362628Y-87479142D02*
X141362628Y-87860094D01*
X140838819Y-86383904D02*
X140838819Y-86860094D01*
X140838819Y-86860094D02*
X141315009Y-86907713D01*
X141315009Y-86907713D02*
X141267390Y-86860094D01*
X141267390Y-86860094D02*
X141219771Y-86764856D01*
X141219771Y-86764856D02*
X141219771Y-86526761D01*
X141219771Y-86526761D02*
X141267390Y-86431523D01*
X141267390Y-86431523D02*
X141315009Y-86383904D01*
X141315009Y-86383904D02*
X141410247Y-86336285D01*
X141410247Y-86336285D02*
X141648342Y-86336285D01*
X141648342Y-86336285D02*
X141743580Y-86383904D01*
X141743580Y-86383904D02*
X141791200Y-86431523D01*
X141791200Y-86431523D02*
X141838819Y-86526761D01*
X141838819Y-86526761D02*
X141838819Y-86764856D01*
X141838819Y-86764856D02*
X141791200Y-86860094D01*
X141791200Y-86860094D02*
X141743580Y-86907713D01*
X138978819Y-91162094D02*
X137978819Y-91162094D01*
X137978819Y-91162094D02*
X137978819Y-90923999D01*
X137978819Y-90923999D02*
X138026438Y-90781142D01*
X138026438Y-90781142D02*
X138121676Y-90685904D01*
X138121676Y-90685904D02*
X138216914Y-90638285D01*
X138216914Y-90638285D02*
X138407390Y-90590666D01*
X138407390Y-90590666D02*
X138550247Y-90590666D01*
X138550247Y-90590666D02*
X138740723Y-90638285D01*
X138740723Y-90638285D02*
X138835961Y-90685904D01*
X138835961Y-90685904D02*
X138931200Y-90781142D01*
X138931200Y-90781142D02*
X138978819Y-90923999D01*
X138978819Y-90923999D02*
X138978819Y-91162094D01*
X138074057Y-90209713D02*
X138026438Y-90162094D01*
X138026438Y-90162094D02*
X137978819Y-90066856D01*
X137978819Y-90066856D02*
X137978819Y-89828761D01*
X137978819Y-89828761D02*
X138026438Y-89733523D01*
X138026438Y-89733523D02*
X138074057Y-89685904D01*
X138074057Y-89685904D02*
X138169295Y-89638285D01*
X138169295Y-89638285D02*
X138264533Y-89638285D01*
X138264533Y-89638285D02*
X138407390Y-89685904D01*
X138407390Y-89685904D02*
X138978819Y-90257332D01*
X138978819Y-90257332D02*
X138978819Y-89638285D01*
X157321726Y-93575666D02*
X156845535Y-93908999D01*
X157321726Y-94147094D02*
X156321726Y-94147094D01*
X156321726Y-94147094D02*
X156321726Y-93766142D01*
X156321726Y-93766142D02*
X156369345Y-93670904D01*
X156369345Y-93670904D02*
X156416964Y-93623285D01*
X156416964Y-93623285D02*
X156512202Y-93575666D01*
X156512202Y-93575666D02*
X156655059Y-93575666D01*
X156655059Y-93575666D02*
X156750297Y-93623285D01*
X156750297Y-93623285D02*
X156797916Y-93670904D01*
X156797916Y-93670904D02*
X156845535Y-93766142D01*
X156845535Y-93766142D02*
X156845535Y-94147094D01*
X156750297Y-93004237D02*
X156702678Y-93099475D01*
X156702678Y-93099475D02*
X156655059Y-93147094D01*
X156655059Y-93147094D02*
X156559821Y-93194713D01*
X156559821Y-93194713D02*
X156512202Y-93194713D01*
X156512202Y-93194713D02*
X156416964Y-93147094D01*
X156416964Y-93147094D02*
X156369345Y-93099475D01*
X156369345Y-93099475D02*
X156321726Y-93004237D01*
X156321726Y-93004237D02*
X156321726Y-92813761D01*
X156321726Y-92813761D02*
X156369345Y-92718523D01*
X156369345Y-92718523D02*
X156416964Y-92670904D01*
X156416964Y-92670904D02*
X156512202Y-92623285D01*
X156512202Y-92623285D02*
X156559821Y-92623285D01*
X156559821Y-92623285D02*
X156655059Y-92670904D01*
X156655059Y-92670904D02*
X156702678Y-92718523D01*
X156702678Y-92718523D02*
X156750297Y-92813761D01*
X156750297Y-92813761D02*
X156750297Y-93004237D01*
X156750297Y-93004237D02*
X156797916Y-93099475D01*
X156797916Y-93099475D02*
X156845535Y-93147094D01*
X156845535Y-93147094D02*
X156940773Y-93194713D01*
X156940773Y-93194713D02*
X157131249Y-93194713D01*
X157131249Y-93194713D02*
X157226487Y-93147094D01*
X157226487Y-93147094D02*
X157274107Y-93099475D01*
X157274107Y-93099475D02*
X157321726Y-93004237D01*
X157321726Y-93004237D02*
X157321726Y-92813761D01*
X157321726Y-92813761D02*
X157274107Y-92718523D01*
X157274107Y-92718523D02*
X157226487Y-92670904D01*
X157226487Y-92670904D02*
X157131249Y-92623285D01*
X157131249Y-92623285D02*
X156940773Y-92623285D01*
X156940773Y-92623285D02*
X156845535Y-92670904D01*
X156845535Y-92670904D02*
X156797916Y-92718523D01*
X156797916Y-92718523D02*
X156750297Y-92813761D01*
X153320761Y-78274057D02*
X153225523Y-78226438D01*
X153225523Y-78226438D02*
X153130285Y-78131200D01*
X153130285Y-78131200D02*
X152987428Y-77988342D01*
X152987428Y-77988342D02*
X152892190Y-77940723D01*
X152892190Y-77940723D02*
X152796952Y-77940723D01*
X152844571Y-78178819D02*
X152749333Y-78131200D01*
X152749333Y-78131200D02*
X152654095Y-78035961D01*
X152654095Y-78035961D02*
X152606476Y-77845485D01*
X152606476Y-77845485D02*
X152606476Y-77512152D01*
X152606476Y-77512152D02*
X152654095Y-77321676D01*
X152654095Y-77321676D02*
X152749333Y-77226438D01*
X152749333Y-77226438D02*
X152844571Y-77178819D01*
X152844571Y-77178819D02*
X153035047Y-77178819D01*
X153035047Y-77178819D02*
X153130285Y-77226438D01*
X153130285Y-77226438D02*
X153225523Y-77321676D01*
X153225523Y-77321676D02*
X153273142Y-77512152D01*
X153273142Y-77512152D02*
X153273142Y-77845485D01*
X153273142Y-77845485D02*
X153225523Y-78035961D01*
X153225523Y-78035961D02*
X153130285Y-78131200D01*
X153130285Y-78131200D02*
X153035047Y-78178819D01*
X153035047Y-78178819D02*
X152844571Y-78178819D01*
X153654095Y-77274057D02*
X153701714Y-77226438D01*
X153701714Y-77226438D02*
X153796952Y-77178819D01*
X153796952Y-77178819D02*
X154035047Y-77178819D01*
X154035047Y-77178819D02*
X154130285Y-77226438D01*
X154130285Y-77226438D02*
X154177904Y-77274057D01*
X154177904Y-77274057D02*
X154225523Y-77369295D01*
X154225523Y-77369295D02*
X154225523Y-77464533D01*
X154225523Y-77464533D02*
X154177904Y-77607390D01*
X154177904Y-77607390D02*
X153606476Y-78178819D01*
X153606476Y-78178819D02*
X154225523Y-78178819D01*
X144314819Y-79960904D02*
X145124342Y-79960904D01*
X145124342Y-79960904D02*
X145219580Y-79913285D01*
X145219580Y-79913285D02*
X145267200Y-79865666D01*
X145267200Y-79865666D02*
X145314819Y-79770428D01*
X145314819Y-79770428D02*
X145314819Y-79579952D01*
X145314819Y-79579952D02*
X145267200Y-79484714D01*
X145267200Y-79484714D02*
X145219580Y-79437095D01*
X145219580Y-79437095D02*
X145124342Y-79389476D01*
X145124342Y-79389476D02*
X144314819Y-79389476D01*
X145314819Y-78389476D02*
X145314819Y-78960904D01*
X145314819Y-78675190D02*
X144314819Y-78675190D01*
X144314819Y-78675190D02*
X144457676Y-78770428D01*
X144457676Y-78770428D02*
X144552914Y-78865666D01*
X144552914Y-78865666D02*
X144600533Y-78960904D01*
X163536333Y-91386819D02*
X163060143Y-91386819D01*
X163060143Y-91386819D02*
X163060143Y-90386819D01*
X163822048Y-90482057D02*
X163869667Y-90434438D01*
X163869667Y-90434438D02*
X163964905Y-90386819D01*
X163964905Y-90386819D02*
X164203000Y-90386819D01*
X164203000Y-90386819D02*
X164298238Y-90434438D01*
X164298238Y-90434438D02*
X164345857Y-90482057D01*
X164345857Y-90482057D02*
X164393476Y-90577295D01*
X164393476Y-90577295D02*
X164393476Y-90672533D01*
X164393476Y-90672533D02*
X164345857Y-90815390D01*
X164345857Y-90815390D02*
X163774429Y-91386819D01*
X163774429Y-91386819D02*
X164393476Y-91386819D01*
X147077580Y-82970666D02*
X147125200Y-83018285D01*
X147125200Y-83018285D02*
X147172819Y-83161142D01*
X147172819Y-83161142D02*
X147172819Y-83256380D01*
X147172819Y-83256380D02*
X147125200Y-83399237D01*
X147125200Y-83399237D02*
X147029961Y-83494475D01*
X147029961Y-83494475D02*
X146934723Y-83542094D01*
X146934723Y-83542094D02*
X146744247Y-83589713D01*
X146744247Y-83589713D02*
X146601390Y-83589713D01*
X146601390Y-83589713D02*
X146410914Y-83542094D01*
X146410914Y-83542094D02*
X146315676Y-83494475D01*
X146315676Y-83494475D02*
X146220438Y-83399237D01*
X146220438Y-83399237D02*
X146172819Y-83256380D01*
X146172819Y-83256380D02*
X146172819Y-83161142D01*
X146172819Y-83161142D02*
X146220438Y-83018285D01*
X146220438Y-83018285D02*
X146268057Y-82970666D01*
X146172819Y-82637332D02*
X146172819Y-82018285D01*
X146172819Y-82018285D02*
X146553771Y-82351618D01*
X146553771Y-82351618D02*
X146553771Y-82208761D01*
X146553771Y-82208761D02*
X146601390Y-82113523D01*
X146601390Y-82113523D02*
X146649009Y-82065904D01*
X146649009Y-82065904D02*
X146744247Y-82018285D01*
X146744247Y-82018285D02*
X146982342Y-82018285D01*
X146982342Y-82018285D02*
X147077580Y-82065904D01*
X147077580Y-82065904D02*
X147125200Y-82113523D01*
X147125200Y-82113523D02*
X147172819Y-82208761D01*
X147172819Y-82208761D02*
X147172819Y-82494475D01*
X147172819Y-82494475D02*
X147125200Y-82589713D01*
X147125200Y-82589713D02*
X147077580Y-82637332D01*
X167364580Y-94527666D02*
X167412200Y-94575285D01*
X167412200Y-94575285D02*
X167459819Y-94718142D01*
X167459819Y-94718142D02*
X167459819Y-94813380D01*
X167459819Y-94813380D02*
X167412200Y-94956237D01*
X167412200Y-94956237D02*
X167316961Y-95051475D01*
X167316961Y-95051475D02*
X167221723Y-95099094D01*
X167221723Y-95099094D02*
X167031247Y-95146713D01*
X167031247Y-95146713D02*
X166888390Y-95146713D01*
X166888390Y-95146713D02*
X166697914Y-95099094D01*
X166697914Y-95099094D02*
X166602676Y-95051475D01*
X166602676Y-95051475D02*
X166507438Y-94956237D01*
X166507438Y-94956237D02*
X166459819Y-94813380D01*
X166459819Y-94813380D02*
X166459819Y-94718142D01*
X166459819Y-94718142D02*
X166507438Y-94575285D01*
X166507438Y-94575285D02*
X166555057Y-94527666D01*
X166459819Y-93670523D02*
X166459819Y-93860999D01*
X166459819Y-93860999D02*
X166507438Y-93956237D01*
X166507438Y-93956237D02*
X166555057Y-94003856D01*
X166555057Y-94003856D02*
X166697914Y-94099094D01*
X166697914Y-94099094D02*
X166888390Y-94146713D01*
X166888390Y-94146713D02*
X167269342Y-94146713D01*
X167269342Y-94146713D02*
X167364580Y-94099094D01*
X167364580Y-94099094D02*
X167412200Y-94051475D01*
X167412200Y-94051475D02*
X167459819Y-93956237D01*
X167459819Y-93956237D02*
X167459819Y-93765761D01*
X167459819Y-93765761D02*
X167412200Y-93670523D01*
X167412200Y-93670523D02*
X167364580Y-93622904D01*
X167364580Y-93622904D02*
X167269342Y-93575285D01*
X167269342Y-93575285D02*
X167031247Y-93575285D01*
X167031247Y-93575285D02*
X166936009Y-93622904D01*
X166936009Y-93622904D02*
X166888390Y-93670523D01*
X166888390Y-93670523D02*
X166840771Y-93765761D01*
X166840771Y-93765761D02*
X166840771Y-93956237D01*
X166840771Y-93956237D02*
X166888390Y-94051475D01*
X166888390Y-94051475D02*
X166936009Y-94099094D01*
X166936009Y-94099094D02*
X167031247Y-94146713D01*
X160238095Y-87454819D02*
X160238095Y-88264342D01*
X160238095Y-88264342D02*
X160285714Y-88359580D01*
X160285714Y-88359580D02*
X160333333Y-88407200D01*
X160333333Y-88407200D02*
X160428571Y-88454819D01*
X160428571Y-88454819D02*
X160619047Y-88454819D01*
X160619047Y-88454819D02*
X160714285Y-88407200D01*
X160714285Y-88407200D02*
X160761904Y-88359580D01*
X160761904Y-88359580D02*
X160809523Y-88264342D01*
X160809523Y-88264342D02*
X160809523Y-87454819D01*
X161238095Y-87550057D02*
X161285714Y-87502438D01*
X161285714Y-87502438D02*
X161380952Y-87454819D01*
X161380952Y-87454819D02*
X161619047Y-87454819D01*
X161619047Y-87454819D02*
X161714285Y-87502438D01*
X161714285Y-87502438D02*
X161761904Y-87550057D01*
X161761904Y-87550057D02*
X161809523Y-87645295D01*
X161809523Y-87645295D02*
X161809523Y-87740533D01*
X161809523Y-87740533D02*
X161761904Y-87883390D01*
X161761904Y-87883390D02*
X161190476Y-88454819D01*
X161190476Y-88454819D02*
X161809523Y-88454819D01*
X170777819Y-85804333D02*
X171492104Y-85804333D01*
X171492104Y-85804333D02*
X171634961Y-85851952D01*
X171634961Y-85851952D02*
X171730200Y-85947190D01*
X171730200Y-85947190D02*
X171777819Y-86090047D01*
X171777819Y-86090047D02*
X171777819Y-86185285D01*
X170777819Y-85423380D02*
X170777819Y-84804333D01*
X170777819Y-84804333D02*
X171158771Y-85137666D01*
X171158771Y-85137666D02*
X171158771Y-84994809D01*
X171158771Y-84994809D02*
X171206390Y-84899571D01*
X171206390Y-84899571D02*
X171254009Y-84851952D01*
X171254009Y-84851952D02*
X171349247Y-84804333D01*
X171349247Y-84804333D02*
X171587342Y-84804333D01*
X171587342Y-84804333D02*
X171682580Y-84851952D01*
X171682580Y-84851952D02*
X171730200Y-84899571D01*
X171730200Y-84899571D02*
X171777819Y-84994809D01*
X171777819Y-84994809D02*
X171777819Y-85280523D01*
X171777819Y-85280523D02*
X171730200Y-85375761D01*
X171730200Y-85375761D02*
X171682580Y-85423380D01*
X137044148Y-87873932D02*
X136567957Y-88207265D01*
X137044148Y-88445360D02*
X136044148Y-88445360D01*
X136044148Y-88445360D02*
X136044148Y-88064408D01*
X136044148Y-88064408D02*
X136091767Y-87969170D01*
X136091767Y-87969170D02*
X136139386Y-87921551D01*
X136139386Y-87921551D02*
X136234624Y-87873932D01*
X136234624Y-87873932D02*
X136377481Y-87873932D01*
X136377481Y-87873932D02*
X136472719Y-87921551D01*
X136472719Y-87921551D02*
X136520338Y-87969170D01*
X136520338Y-87969170D02*
X136567957Y-88064408D01*
X136567957Y-88064408D02*
X136567957Y-88445360D01*
X136044148Y-87016789D02*
X136044148Y-87207265D01*
X136044148Y-87207265D02*
X136091767Y-87302503D01*
X136091767Y-87302503D02*
X136139386Y-87350122D01*
X136139386Y-87350122D02*
X136282243Y-87445360D01*
X136282243Y-87445360D02*
X136472719Y-87492979D01*
X136472719Y-87492979D02*
X136853671Y-87492979D01*
X136853671Y-87492979D02*
X136948909Y-87445360D01*
X136948909Y-87445360D02*
X136996529Y-87397741D01*
X136996529Y-87397741D02*
X137044148Y-87302503D01*
X137044148Y-87302503D02*
X137044148Y-87112027D01*
X137044148Y-87112027D02*
X136996529Y-87016789D01*
X136996529Y-87016789D02*
X136948909Y-86969170D01*
X136948909Y-86969170D02*
X136853671Y-86921551D01*
X136853671Y-86921551D02*
X136615576Y-86921551D01*
X136615576Y-86921551D02*
X136520338Y-86969170D01*
X136520338Y-86969170D02*
X136472719Y-87016789D01*
X136472719Y-87016789D02*
X136425100Y-87112027D01*
X136425100Y-87112027D02*
X136425100Y-87302503D01*
X136425100Y-87302503D02*
X136472719Y-87397741D01*
X136472719Y-87397741D02*
X136520338Y-87445360D01*
X136520338Y-87445360D02*
X136615576Y-87492979D01*
X136852819Y-73420400D02*
X136376628Y-73753733D01*
X136852819Y-73991828D02*
X135852819Y-73991828D01*
X135852819Y-73991828D02*
X135852819Y-73610876D01*
X135852819Y-73610876D02*
X135900438Y-73515638D01*
X135900438Y-73515638D02*
X135948057Y-73468019D01*
X135948057Y-73468019D02*
X136043295Y-73420400D01*
X136043295Y-73420400D02*
X136186152Y-73420400D01*
X136186152Y-73420400D02*
X136281390Y-73468019D01*
X136281390Y-73468019D02*
X136329009Y-73515638D01*
X136329009Y-73515638D02*
X136376628Y-73610876D01*
X136376628Y-73610876D02*
X136376628Y-73991828D01*
X136852819Y-72468019D02*
X136852819Y-73039447D01*
X136852819Y-72753733D02*
X135852819Y-72753733D01*
X135852819Y-72753733D02*
X135995676Y-72848971D01*
X135995676Y-72848971D02*
X136090914Y-72944209D01*
X136090914Y-72944209D02*
X136138533Y-73039447D01*
X141956124Y-90589047D02*
X142670409Y-90589047D01*
X142670409Y-90589047D02*
X142813266Y-90636666D01*
X142813266Y-90636666D02*
X142908505Y-90731904D01*
X142908505Y-90731904D02*
X142956124Y-90874761D01*
X142956124Y-90874761D02*
X142956124Y-90969999D01*
X142956124Y-90112856D02*
X141956124Y-90112856D01*
X141956124Y-90112856D02*
X141956124Y-89731904D01*
X141956124Y-89731904D02*
X142003743Y-89636666D01*
X142003743Y-89636666D02*
X142051362Y-89589047D01*
X142051362Y-89589047D02*
X142146600Y-89541428D01*
X142146600Y-89541428D02*
X142289457Y-89541428D01*
X142289457Y-89541428D02*
X142384695Y-89589047D01*
X142384695Y-89589047D02*
X142432314Y-89636666D01*
X142432314Y-89636666D02*
X142479933Y-89731904D01*
X142479933Y-89731904D02*
X142479933Y-90112856D01*
X142051362Y-89160475D02*
X142003743Y-89112856D01*
X142003743Y-89112856D02*
X141956124Y-89017618D01*
X141956124Y-89017618D02*
X141956124Y-88779523D01*
X141956124Y-88779523D02*
X142003743Y-88684285D01*
X142003743Y-88684285D02*
X142051362Y-88636666D01*
X142051362Y-88636666D02*
X142146600Y-88589047D01*
X142146600Y-88589047D02*
X142241838Y-88589047D01*
X142241838Y-88589047D02*
X142384695Y-88636666D01*
X142384695Y-88636666D02*
X142956124Y-89208094D01*
X142956124Y-89208094D02*
X142956124Y-88589047D01*
X143865629Y-94051857D02*
X143389438Y-94385190D01*
X143865629Y-94623285D02*
X142865629Y-94623285D01*
X142865629Y-94623285D02*
X142865629Y-94242333D01*
X142865629Y-94242333D02*
X142913248Y-94147095D01*
X142913248Y-94147095D02*
X142960867Y-94099476D01*
X142960867Y-94099476D02*
X143056105Y-94051857D01*
X143056105Y-94051857D02*
X143198962Y-94051857D01*
X143198962Y-94051857D02*
X143294200Y-94099476D01*
X143294200Y-94099476D02*
X143341819Y-94147095D01*
X143341819Y-94147095D02*
X143389438Y-94242333D01*
X143389438Y-94242333D02*
X143389438Y-94623285D01*
X143865629Y-93099476D02*
X143865629Y-93670904D01*
X143865629Y-93385190D02*
X142865629Y-93385190D01*
X142865629Y-93385190D02*
X143008486Y-93480428D01*
X143008486Y-93480428D02*
X143103724Y-93575666D01*
X143103724Y-93575666D02*
X143151343Y-93670904D01*
X142865629Y-92480428D02*
X142865629Y-92385190D01*
X142865629Y-92385190D02*
X142913248Y-92289952D01*
X142913248Y-92289952D02*
X142960867Y-92242333D01*
X142960867Y-92242333D02*
X143056105Y-92194714D01*
X143056105Y-92194714D02*
X143246581Y-92147095D01*
X143246581Y-92147095D02*
X143484676Y-92147095D01*
X143484676Y-92147095D02*
X143675152Y-92194714D01*
X143675152Y-92194714D02*
X143770390Y-92242333D01*
X143770390Y-92242333D02*
X143818010Y-92289952D01*
X143818010Y-92289952D02*
X143865629Y-92385190D01*
X143865629Y-92385190D02*
X143865629Y-92480428D01*
X143865629Y-92480428D02*
X143818010Y-92575666D01*
X143818010Y-92575666D02*
X143770390Y-92623285D01*
X143770390Y-92623285D02*
X143675152Y-92670904D01*
X143675152Y-92670904D02*
X143484676Y-92718523D01*
X143484676Y-92718523D02*
X143246581Y-92718523D01*
X143246581Y-92718523D02*
X143056105Y-92670904D01*
X143056105Y-92670904D02*
X142960867Y-92623285D01*
X142960867Y-92623285D02*
X142913248Y-92575666D01*
X142913248Y-92575666D02*
X142865629Y-92480428D01*
X138720867Y-87945791D02*
X138244676Y-88279124D01*
X138720867Y-88517219D02*
X137720867Y-88517219D01*
X137720867Y-88517219D02*
X137720867Y-88136267D01*
X137720867Y-88136267D02*
X137768486Y-88041029D01*
X137768486Y-88041029D02*
X137816105Y-87993410D01*
X137816105Y-87993410D02*
X137911343Y-87945791D01*
X137911343Y-87945791D02*
X138054200Y-87945791D01*
X138054200Y-87945791D02*
X138149438Y-87993410D01*
X138149438Y-87993410D02*
X138197057Y-88041029D01*
X138197057Y-88041029D02*
X138244676Y-88136267D01*
X138244676Y-88136267D02*
X138244676Y-88517219D01*
X137720867Y-87612457D02*
X137720867Y-86945791D01*
X137720867Y-86945791D02*
X138720867Y-87374362D01*
X159552819Y-94051857D02*
X159076628Y-94385190D01*
X159552819Y-94623285D02*
X158552819Y-94623285D01*
X158552819Y-94623285D02*
X158552819Y-94242333D01*
X158552819Y-94242333D02*
X158600438Y-94147095D01*
X158600438Y-94147095D02*
X158648057Y-94099476D01*
X158648057Y-94099476D02*
X158743295Y-94051857D01*
X158743295Y-94051857D02*
X158886152Y-94051857D01*
X158886152Y-94051857D02*
X158981390Y-94099476D01*
X158981390Y-94099476D02*
X159029009Y-94147095D01*
X159029009Y-94147095D02*
X159076628Y-94242333D01*
X159076628Y-94242333D02*
X159076628Y-94623285D01*
X159552819Y-93099476D02*
X159552819Y-93670904D01*
X159552819Y-93385190D02*
X158552819Y-93385190D01*
X158552819Y-93385190D02*
X158695676Y-93480428D01*
X158695676Y-93480428D02*
X158790914Y-93575666D01*
X158790914Y-93575666D02*
X158838533Y-93670904D01*
X159552819Y-92147095D02*
X159552819Y-92718523D01*
X159552819Y-92432809D02*
X158552819Y-92432809D01*
X158552819Y-92432809D02*
X158695676Y-92528047D01*
X158695676Y-92528047D02*
X158790914Y-92623285D01*
X158790914Y-92623285D02*
X158838533Y-92718523D01*
X152542831Y-90663602D02*
X153257116Y-90663602D01*
X153257116Y-90663602D02*
X153399973Y-90711221D01*
X153399973Y-90711221D02*
X153495212Y-90806459D01*
X153495212Y-90806459D02*
X153542831Y-90949316D01*
X153542831Y-90949316D02*
X153542831Y-91044554D01*
X153542831Y-90187411D02*
X152542831Y-90187411D01*
X152542831Y-90187411D02*
X152542831Y-89806459D01*
X152542831Y-89806459D02*
X152590450Y-89711221D01*
X152590450Y-89711221D02*
X152638069Y-89663602D01*
X152638069Y-89663602D02*
X152733307Y-89615983D01*
X152733307Y-89615983D02*
X152876164Y-89615983D01*
X152876164Y-89615983D02*
X152971402Y-89663602D01*
X152971402Y-89663602D02*
X153019021Y-89711221D01*
X153019021Y-89711221D02*
X153066640Y-89806459D01*
X153066640Y-89806459D02*
X153066640Y-90187411D01*
X153542831Y-88663602D02*
X153542831Y-89235030D01*
X153542831Y-88949316D02*
X152542831Y-88949316D01*
X152542831Y-88949316D02*
X152685688Y-89044554D01*
X152685688Y-89044554D02*
X152780926Y-89139792D01*
X152780926Y-89139792D02*
X152828545Y-89235030D01*
X169142580Y-94654666D02*
X169190200Y-94702285D01*
X169190200Y-94702285D02*
X169237819Y-94845142D01*
X169237819Y-94845142D02*
X169237819Y-94940380D01*
X169237819Y-94940380D02*
X169190200Y-95083237D01*
X169190200Y-95083237D02*
X169094961Y-95178475D01*
X169094961Y-95178475D02*
X168999723Y-95226094D01*
X168999723Y-95226094D02*
X168809247Y-95273713D01*
X168809247Y-95273713D02*
X168666390Y-95273713D01*
X168666390Y-95273713D02*
X168475914Y-95226094D01*
X168475914Y-95226094D02*
X168380676Y-95178475D01*
X168380676Y-95178475D02*
X168285438Y-95083237D01*
X168285438Y-95083237D02*
X168237819Y-94940380D01*
X168237819Y-94940380D02*
X168237819Y-94845142D01*
X168237819Y-94845142D02*
X168285438Y-94702285D01*
X168285438Y-94702285D02*
X168333057Y-94654666D01*
X168237819Y-94321332D02*
X168237819Y-93654666D01*
X168237819Y-93654666D02*
X169237819Y-94083237D01*
X169889544Y-81199258D02*
X169937164Y-81246877D01*
X169937164Y-81246877D02*
X169984783Y-81389734D01*
X169984783Y-81389734D02*
X169984783Y-81484972D01*
X169984783Y-81484972D02*
X169937164Y-81627829D01*
X169937164Y-81627829D02*
X169841925Y-81723067D01*
X169841925Y-81723067D02*
X169746687Y-81770686D01*
X169746687Y-81770686D02*
X169556211Y-81818305D01*
X169556211Y-81818305D02*
X169413354Y-81818305D01*
X169413354Y-81818305D02*
X169222878Y-81770686D01*
X169222878Y-81770686D02*
X169127640Y-81723067D01*
X169127640Y-81723067D02*
X169032402Y-81627829D01*
X169032402Y-81627829D02*
X168984783Y-81484972D01*
X168984783Y-81484972D02*
X168984783Y-81389734D01*
X168984783Y-81389734D02*
X169032402Y-81246877D01*
X169032402Y-81246877D02*
X169080021Y-81199258D01*
X169318116Y-80342115D02*
X169984783Y-80342115D01*
X168937164Y-80580210D02*
X169651449Y-80818305D01*
X169651449Y-80818305D02*
X169651449Y-80199258D01*
X135354331Y-81091090D02*
X136068616Y-81091090D01*
X136068616Y-81091090D02*
X136211473Y-81138709D01*
X136211473Y-81138709D02*
X136306712Y-81233947D01*
X136306712Y-81233947D02*
X136354331Y-81376804D01*
X136354331Y-81376804D02*
X136354331Y-81472042D01*
X136354331Y-80091090D02*
X136354331Y-80662518D01*
X136354331Y-80376804D02*
X135354331Y-80376804D01*
X135354331Y-80376804D02*
X135497188Y-80472042D01*
X135497188Y-80472042D02*
X135592426Y-80567280D01*
X135592426Y-80567280D02*
X135640045Y-80662518D01*
X160518486Y-79893089D02*
X160042295Y-80226422D01*
X160518486Y-80464517D02*
X159518486Y-80464517D01*
X159518486Y-80464517D02*
X159518486Y-80083565D01*
X159518486Y-80083565D02*
X159566105Y-79988327D01*
X159566105Y-79988327D02*
X159613724Y-79940708D01*
X159613724Y-79940708D02*
X159708962Y-79893089D01*
X159708962Y-79893089D02*
X159851819Y-79893089D01*
X159851819Y-79893089D02*
X159947057Y-79940708D01*
X159947057Y-79940708D02*
X159994676Y-79988327D01*
X159994676Y-79988327D02*
X160042295Y-80083565D01*
X160042295Y-80083565D02*
X160042295Y-80464517D01*
X159851819Y-79035946D02*
X160518486Y-79035946D01*
X159470867Y-79274041D02*
X160185152Y-79512136D01*
X160185152Y-79512136D02*
X160185152Y-78893089D01*
X165949128Y-72194840D02*
X165472938Y-72194840D01*
X165472938Y-72194840D02*
X165472938Y-71194840D01*
X166806271Y-72194840D02*
X166234843Y-72194840D01*
X166520557Y-72194840D02*
X166520557Y-71194840D01*
X166520557Y-71194840D02*
X166425319Y-71337697D01*
X166425319Y-71337697D02*
X166330081Y-71432935D01*
X166330081Y-71432935D02*
X166234843Y-71480554D01*
X138961905Y-72082819D02*
X138961905Y-71082819D01*
X138961905Y-71082819D02*
X139200000Y-71082819D01*
X139200000Y-71082819D02*
X139342857Y-71130438D01*
X139342857Y-71130438D02*
X139438095Y-71225676D01*
X139438095Y-71225676D02*
X139485714Y-71320914D01*
X139485714Y-71320914D02*
X139533333Y-71511390D01*
X139533333Y-71511390D02*
X139533333Y-71654247D01*
X139533333Y-71654247D02*
X139485714Y-71844723D01*
X139485714Y-71844723D02*
X139438095Y-71939961D01*
X139438095Y-71939961D02*
X139342857Y-72035200D01*
X139342857Y-72035200D02*
X139200000Y-72082819D01*
X139200000Y-72082819D02*
X138961905Y-72082819D01*
X140485714Y-72082819D02*
X139914286Y-72082819D01*
X140200000Y-72082819D02*
X140200000Y-71082819D01*
X140200000Y-71082819D02*
X140104762Y-71225676D01*
X140104762Y-71225676D02*
X140009524Y-71320914D01*
X140009524Y-71320914D02*
X139914286Y-71368533D01*
X170144468Y-83200117D02*
X170096849Y-83247737D01*
X170096849Y-83247737D02*
X169953992Y-83295356D01*
X169953992Y-83295356D02*
X169858754Y-83295356D01*
X169858754Y-83295356D02*
X169715897Y-83247737D01*
X169715897Y-83247737D02*
X169620659Y-83152498D01*
X169620659Y-83152498D02*
X169573040Y-83057260D01*
X169573040Y-83057260D02*
X169525421Y-82866784D01*
X169525421Y-82866784D02*
X169525421Y-82723927D01*
X169525421Y-82723927D02*
X169573040Y-82533451D01*
X169573040Y-82533451D02*
X169620659Y-82438213D01*
X169620659Y-82438213D02*
X169715897Y-82342975D01*
X169715897Y-82342975D02*
X169858754Y-82295356D01*
X169858754Y-82295356D02*
X169953992Y-82295356D01*
X169953992Y-82295356D02*
X170096849Y-82342975D01*
X170096849Y-82342975D02*
X170144468Y-82390594D01*
X171049230Y-82295356D02*
X170573040Y-82295356D01*
X170573040Y-82295356D02*
X170525421Y-82771546D01*
X170525421Y-82771546D02*
X170573040Y-82723927D01*
X170573040Y-82723927D02*
X170668278Y-82676308D01*
X170668278Y-82676308D02*
X170906373Y-82676308D01*
X170906373Y-82676308D02*
X171001611Y-82723927D01*
X171001611Y-82723927D02*
X171049230Y-82771546D01*
X171049230Y-82771546D02*
X171096849Y-82866784D01*
X171096849Y-82866784D02*
X171096849Y-83104879D01*
X171096849Y-83104879D02*
X171049230Y-83200117D01*
X171049230Y-83200117D02*
X171001611Y-83247737D01*
X171001611Y-83247737D02*
X170906373Y-83295356D01*
X170906373Y-83295356D02*
X170668278Y-83295356D01*
X170668278Y-83295356D02*
X170573040Y-83247737D01*
X170573040Y-83247737D02*
X170525421Y-83200117D01*
X150963333Y-78178819D02*
X150630000Y-77702628D01*
X150391905Y-78178819D02*
X150391905Y-77178819D01*
X150391905Y-77178819D02*
X150772857Y-77178819D01*
X150772857Y-77178819D02*
X150868095Y-77226438D01*
X150868095Y-77226438D02*
X150915714Y-77274057D01*
X150915714Y-77274057D02*
X150963333Y-77369295D01*
X150963333Y-77369295D02*
X150963333Y-77512152D01*
X150963333Y-77512152D02*
X150915714Y-77607390D01*
X150915714Y-77607390D02*
X150868095Y-77655009D01*
X150868095Y-77655009D02*
X150772857Y-77702628D01*
X150772857Y-77702628D02*
X150391905Y-77702628D01*
X151296667Y-77178819D02*
X151915714Y-77178819D01*
X151915714Y-77178819D02*
X151582381Y-77559771D01*
X151582381Y-77559771D02*
X151725238Y-77559771D01*
X151725238Y-77559771D02*
X151820476Y-77607390D01*
X151820476Y-77607390D02*
X151868095Y-77655009D01*
X151868095Y-77655009D02*
X151915714Y-77750247D01*
X151915714Y-77750247D02*
X151915714Y-77988342D01*
X151915714Y-77988342D02*
X151868095Y-78083580D01*
X151868095Y-78083580D02*
X151820476Y-78131200D01*
X151820476Y-78131200D02*
X151725238Y-78178819D01*
X151725238Y-78178819D02*
X151439524Y-78178819D01*
X151439524Y-78178819D02*
X151344286Y-78131200D01*
X151344286Y-78131200D02*
X151296667Y-78083580D01*
X138535580Y-73318666D02*
X138583200Y-73366285D01*
X138583200Y-73366285D02*
X138630819Y-73509142D01*
X138630819Y-73509142D02*
X138630819Y-73604380D01*
X138630819Y-73604380D02*
X138583200Y-73747237D01*
X138583200Y-73747237D02*
X138487961Y-73842475D01*
X138487961Y-73842475D02*
X138392723Y-73890094D01*
X138392723Y-73890094D02*
X138202247Y-73937713D01*
X138202247Y-73937713D02*
X138059390Y-73937713D01*
X138059390Y-73937713D02*
X137868914Y-73890094D01*
X137868914Y-73890094D02*
X137773676Y-73842475D01*
X137773676Y-73842475D02*
X137678438Y-73747237D01*
X137678438Y-73747237D02*
X137630819Y-73604380D01*
X137630819Y-73604380D02*
X137630819Y-73509142D01*
X137630819Y-73509142D02*
X137678438Y-73366285D01*
X137678438Y-73366285D02*
X137726057Y-73318666D01*
X138630819Y-72366285D02*
X138630819Y-72937713D01*
X138630819Y-72651999D02*
X137630819Y-72651999D01*
X137630819Y-72651999D02*
X137773676Y-72747237D01*
X137773676Y-72747237D02*
X137868914Y-72842475D01*
X137868914Y-72842475D02*
X137916533Y-72937713D01*
X144105333Y-72764819D02*
X143772000Y-72288628D01*
X143533905Y-72764819D02*
X143533905Y-71764819D01*
X143533905Y-71764819D02*
X143914857Y-71764819D01*
X143914857Y-71764819D02*
X144010095Y-71812438D01*
X144010095Y-71812438D02*
X144057714Y-71860057D01*
X144057714Y-71860057D02*
X144105333Y-71955295D01*
X144105333Y-71955295D02*
X144105333Y-72098152D01*
X144105333Y-72098152D02*
X144057714Y-72193390D01*
X144057714Y-72193390D02*
X144010095Y-72241009D01*
X144010095Y-72241009D02*
X143914857Y-72288628D01*
X143914857Y-72288628D02*
X143533905Y-72288628D01*
X144486286Y-71860057D02*
X144533905Y-71812438D01*
X144533905Y-71812438D02*
X144629143Y-71764819D01*
X144629143Y-71764819D02*
X144867238Y-71764819D01*
X144867238Y-71764819D02*
X144962476Y-71812438D01*
X144962476Y-71812438D02*
X145010095Y-71860057D01*
X145010095Y-71860057D02*
X145057714Y-71955295D01*
X145057714Y-71955295D02*
X145057714Y-72050533D01*
X145057714Y-72050533D02*
X145010095Y-72193390D01*
X145010095Y-72193390D02*
X144438667Y-72764819D01*
X144438667Y-72764819D02*
X145057714Y-72764819D01*
X162241278Y-79905340D02*
X162288898Y-79952959D01*
X162288898Y-79952959D02*
X162336517Y-80095816D01*
X162336517Y-80095816D02*
X162336517Y-80191054D01*
X162336517Y-80191054D02*
X162288898Y-80333911D01*
X162288898Y-80333911D02*
X162193659Y-80429149D01*
X162193659Y-80429149D02*
X162098421Y-80476768D01*
X162098421Y-80476768D02*
X161907945Y-80524387D01*
X161907945Y-80524387D02*
X161765088Y-80524387D01*
X161765088Y-80524387D02*
X161574612Y-80476768D01*
X161574612Y-80476768D02*
X161479374Y-80429149D01*
X161479374Y-80429149D02*
X161384136Y-80333911D01*
X161384136Y-80333911D02*
X161336517Y-80191054D01*
X161336517Y-80191054D02*
X161336517Y-80095816D01*
X161336517Y-80095816D02*
X161384136Y-79952959D01*
X161384136Y-79952959D02*
X161431755Y-79905340D01*
X161431755Y-79524387D02*
X161384136Y-79476768D01*
X161384136Y-79476768D02*
X161336517Y-79381530D01*
X161336517Y-79381530D02*
X161336517Y-79143435D01*
X161336517Y-79143435D02*
X161384136Y-79048197D01*
X161384136Y-79048197D02*
X161431755Y-79000578D01*
X161431755Y-79000578D02*
X161526993Y-78952959D01*
X161526993Y-78952959D02*
X161622231Y-78952959D01*
X161622231Y-78952959D02*
X161765088Y-79000578D01*
X161765088Y-79000578D02*
X162336517Y-79572006D01*
X162336517Y-79572006D02*
X162336517Y-78952959D01*
D12*
%TO.C,R9*%
X150454404Y-93171742D02*
X150454404Y-93646258D01*
X149409404Y-93171742D02*
X149409404Y-93646258D01*
%TO.C,J2*%
X170404000Y-78633010D02*
X172004000Y-78633010D01*
X170704000Y-78333010D02*
X170704000Y-76233010D01*
X185404000Y-78333010D02*
X170704000Y-78333010D01*
X170404000Y-76933010D02*
X170404000Y-78633010D01*
X170704000Y-71233010D02*
X170704000Y-69133010D01*
X170704000Y-69133010D02*
X172504000Y-69133010D01*
X176904000Y-69133010D02*
X185404000Y-69133010D01*
X185404000Y-69133010D02*
X185404000Y-78333010D01*
%TO.C,Q1*%
X158349467Y-73140000D02*
X158349467Y-73510000D01*
X158349467Y-73140000D02*
X154809467Y-73140000D01*
X154809467Y-76680000D02*
X158019467Y-76680000D01*
X154809467Y-76680000D02*
X154809467Y-76310000D01*
X154809467Y-73140000D02*
X154809467Y-73510000D01*
X158339467Y-76840000D02*
X158339467Y-76360000D01*
X158819467Y-76360000D01*
X158339467Y-76840000D01*
G36*
X158339467Y-76840000D02*
G01*
X158339467Y-76360000D01*
X158819467Y-76360000D01*
X158339467Y-76840000D01*
G37*
%TO.C,R5*%
X140476500Y-86884742D02*
X140476500Y-87359258D01*
X139431500Y-86884742D02*
X139431500Y-87359258D01*
%TO.C,D2*%
X139219000Y-91909000D02*
X140689000Y-91909000D01*
X140689000Y-91909000D02*
X140689000Y-89624000D01*
X139219000Y-89624000D02*
X139219000Y-91909000D01*
%TO.C,R8*%
X155959407Y-93171742D02*
X155959407Y-93646258D01*
X154914407Y-93171742D02*
X154914407Y-93646258D01*
%TO.C,Q2*%
X149860573Y-76745000D02*
X149860573Y-76375000D01*
X149860573Y-76745000D02*
X153400573Y-76745000D01*
X153400573Y-73205000D02*
X150190573Y-73205000D01*
X153400573Y-73205000D02*
X153400573Y-73575000D01*
X153400573Y-76745000D02*
X153400573Y-76375000D01*
X149870573Y-73525000D02*
X149390573Y-73525000D01*
X149870573Y-73045000D01*
X149870573Y-73525000D01*
G36*
X149870573Y-73525000D02*
G01*
X149390573Y-73525000D01*
X149870573Y-73045000D01*
X149870573Y-73525000D01*
G37*
%TO.C,U1*%
X143920000Y-77699000D02*
X143920000Y-80699000D01*
X140700000Y-77699000D02*
X140700000Y-80699000D01*
X144300000Y-77189000D02*
X143820000Y-77189000D01*
X143820000Y-76709000D01*
X144300000Y-77189000D01*
G36*
X144300000Y-77189000D02*
G01*
X143820000Y-77189000D01*
X143820000Y-76709000D01*
X144300000Y-77189000D01*
G37*
%TO.C,L2*%
X169978000Y-84122000D02*
X169488000Y-84122000D01*
X169978000Y-84122000D02*
X169978000Y-90122000D01*
X163778000Y-84122000D02*
X164268000Y-84122000D01*
X163778000Y-84122000D02*
X163778000Y-90122000D01*
X169978000Y-90122000D02*
X169488000Y-90122000D01*
X163778000Y-90122000D02*
X164268000Y-90122000D01*
%TO.C,C3*%
X145798000Y-82663420D02*
X145798000Y-82944580D01*
X144778000Y-82663420D02*
X144778000Y-82944580D01*
%TO.C,C6*%
X166368000Y-91993097D02*
X166368000Y-91711937D01*
X167388000Y-91993097D02*
X167388000Y-91711937D01*
%TO.C,U2*%
X163408500Y-81375500D02*
X163408500Y-78925500D01*
X163408500Y-78925500D02*
X161078500Y-78925500D01*
X163078500Y-87105500D02*
X151138500Y-87105500D01*
X163078500Y-79255500D02*
X163078500Y-87105500D01*
X151138500Y-87105500D02*
X151138500Y-79255500D01*
X151138500Y-79255500D02*
X163078500Y-79255500D01*
%TO.C,J3*%
X170404000Y-96305000D02*
X172004000Y-96305000D01*
X170704000Y-96005000D02*
X170704000Y-93905000D01*
X185404000Y-96005000D02*
X170704000Y-96005000D01*
X170404000Y-94605000D02*
X170404000Y-96305000D01*
X170704000Y-88905000D02*
X170704000Y-86805000D01*
X170704000Y-86805000D02*
X172504000Y-86805000D01*
X176904000Y-86805000D02*
X185404000Y-86805000D01*
X185404000Y-86805000D02*
X185404000Y-96005000D01*
%TO.C,R6*%
X135963805Y-85509725D02*
X135963805Y-85035209D01*
X137008805Y-85509725D02*
X137008805Y-85035209D01*
%TO.C,R1*%
X135875500Y-75929258D02*
X135875500Y-75454742D01*
X136920500Y-75929258D02*
X136920500Y-75454742D01*
%TO.C,JP2*%
X143501305Y-91085714D02*
X143501305Y-89755714D01*
X144831305Y-91085714D02*
X143501305Y-91085714D01*
X146101305Y-91085714D02*
X151241305Y-91085714D01*
X146101305Y-91085714D02*
X146101305Y-88425714D01*
X151241305Y-91085714D02*
X151241305Y-88425714D01*
X146101305Y-88425714D02*
X151241305Y-88425714D01*
%TO.C,R10*%
X144318310Y-93646258D02*
X144318310Y-93171742D01*
X145363310Y-93646258D02*
X145363310Y-93171742D01*
%TO.C,R7*%
X137623782Y-85513281D02*
X137623782Y-85038765D01*
X138668782Y-85513281D02*
X138668782Y-85038765D01*
%TO.C,R11*%
X160005500Y-93646258D02*
X160005500Y-93171742D01*
X161050500Y-93646258D02*
X161050500Y-93171742D01*
%TO.C,JP1*%
X154088012Y-91160269D02*
X154088012Y-89830269D01*
X155418012Y-91160269D02*
X154088012Y-91160269D01*
X156688012Y-91160269D02*
X161828012Y-91160269D01*
X156688012Y-91160269D02*
X156688012Y-88500269D01*
X161828012Y-91160269D02*
X161828012Y-88500269D01*
X156688012Y-88500269D02*
X161828012Y-88500269D01*
%TO.C,C7*%
X169166000Y-91723697D02*
X169166000Y-92004857D01*
X168146000Y-91723697D02*
X168146000Y-92004857D01*
%TO.C,C4*%
X167384000Y-80531580D02*
X167384000Y-80250420D01*
X168404000Y-80531580D02*
X168404000Y-80250420D01*
%TO.C,J1*%
X134909512Y-76007757D02*
X127649512Y-76007757D01*
X134909512Y-76007757D02*
X134909512Y-77507757D01*
X134909512Y-84007757D02*
X134909512Y-85507757D01*
X134909512Y-85507757D02*
X127649512Y-85507757D01*
%TO.C,R4*%
X160562246Y-76965742D02*
X160562246Y-77440258D01*
X159517246Y-76965742D02*
X159517246Y-77440258D01*
%TO.C,L1*%
X163115795Y-72480021D02*
X163115795Y-72970021D01*
X163115795Y-72480021D02*
X169115795Y-72480021D01*
X163115795Y-78680021D02*
X163115795Y-78190021D01*
X163115795Y-78680021D02*
X169115795Y-78680021D01*
X169115795Y-72480021D02*
X169115795Y-72970021D01*
X169115795Y-78680021D02*
X169115795Y-78190021D01*
%TO.C,D1*%
X138645000Y-72363000D02*
X138645000Y-70893000D01*
X138645000Y-70893000D02*
X136360000Y-70893000D01*
X136360000Y-72363000D02*
X138645000Y-72363000D01*
%TO.C,C5*%
X167524180Y-82259013D02*
X167805340Y-82259013D01*
X167524180Y-83279013D02*
X167805340Y-83279013D01*
%TO.C,R3*%
X148352742Y-77201500D02*
X148827258Y-77201500D01*
X148352742Y-78246500D02*
X148827258Y-78246500D01*
%TO.C,C1*%
X137666000Y-75832580D02*
X137666000Y-75551420D01*
X138686000Y-75832580D02*
X138686000Y-75551420D01*
%TO.C,R2*%
X142094936Y-73220000D02*
X146449064Y-73220000D01*
X142094936Y-76640000D02*
X146449064Y-76640000D01*
%TO.C,C2*%
X162272091Y-77062420D02*
X162272091Y-77343580D01*
X161252091Y-77062420D02*
X161252091Y-77343580D01*
%TD*%
M02*
