%TF.GenerationSoftware,KiCad,Pcbnew,7.0.10-7.0.10~ubuntu20.04.1*%
%TF.CreationDate,2024-10-07T18:02:44+02:00*%
%TF.ProjectId,powerplay,706f7765-7270-46c6-9179-2e6b69636164,rev?*%
%TF.SameCoordinates,Original*%
%TF.FileFunction,Soldermask,Top*%
%TF.FilePolarity,Negative*%
%FSLAX46Y46*%
G04 Gerber Fmt 4.6, Leading zero omitted, Abs format (unit mm)*
G04 Created by KiCad (PCBNEW 7.0.10-7.0.10~ubuntu20.04.1) date 2024-10-07 18:02:44*
%MOMM*%
%LPD*%
G01*
G04 APERTURE LIST*
G04 Aperture macros list*
%AMRoundRect*
0 Rectangle with rounded corners*
0 $1 Rounding radius*
0 $2 $3 $4 $5 $6 $7 $8 $9 X,Y pos of 4 corners*
0 Add a 4 corners polygon primitive as box body*
4,1,4,$2,$3,$4,$5,$6,$7,$8,$9,$2,$3,0*
0 Add four circle primitives for the rounded corners*
1,1,$1+$1,$2,$3*
1,1,$1+$1,$4,$5*
1,1,$1+$1,$6,$7*
1,1,$1+$1,$8,$9*
0 Add four rect primitives between the rounded corners*
20,1,$1+$1,$2,$3,$4,$5,0*
20,1,$1+$1,$4,$5,$6,$7,0*
20,1,$1+$1,$6,$7,$8,$9,0*
20,1,$1+$1,$8,$9,$2,$3,0*%
%AMFreePoly0*
4,1,17,1.395000,0.765000,0.855000,0.765000,0.855000,0.535000,1.395000,0.535000,1.395000,0.115000,0.855000,0.115000,0.855000,-0.115000,1.395000,-0.115000,1.395000,-0.535000,0.855000,-0.535000,0.855000,-0.765000,1.395000,-0.765000,1.395000,-1.185000,-0.855000,-1.185000,-0.855000,1.185000,1.395000,1.185000,1.395000,0.765000,1.395000,0.765000,$1*%
G04 Aperture macros list end*
%ADD10RoundRect,0.200000X-0.275000X0.200000X-0.275000X-0.200000X0.275000X-0.200000X0.275000X0.200000X0*%
%ADD11R,1.800000X4.400000*%
%ADD12O,1.800000X4.000000*%
%ADD13O,4.000000X1.800000*%
%ADD14RoundRect,0.105000X0.245000X0.105000X-0.245000X0.105000X-0.245000X-0.105000X0.245000X-0.105000X0*%
%ADD15FreePoly0,180.000000*%
%ADD16RoundRect,0.218750X0.256250X-0.218750X0.256250X0.218750X-0.256250X0.218750X-0.256250X-0.218750X0*%
%ADD17RoundRect,0.105000X-0.245000X-0.105000X0.245000X-0.105000X0.245000X0.105000X-0.245000X0.105000X0*%
%ADD18FreePoly0,0.000000*%
%ADD19R,0.250000X0.700000*%
%ADD20R,2.350000X1.780000*%
%ADD21R,4.700000X1.180000*%
%ADD22RoundRect,0.225000X-0.250000X0.225000X-0.250000X-0.225000X0.250000X-0.225000X0.250000X0.225000X0*%
%ADD23RoundRect,0.225000X0.250000X-0.225000X0.250000X0.225000X-0.250000X0.225000X-0.250000X-0.225000X0*%
%ADD24R,1.500000X2.500000*%
%ADD25O,1.500000X2.500000*%
%ADD26RoundRect,0.200000X0.275000X-0.200000X0.275000X0.200000X-0.275000X0.200000X-0.275000X-0.200000X0*%
%ADD27R,1.700000X1.700000*%
%ADD28O,1.700000X1.700000*%
%ADD29C,0.650000*%
%ADD30O,0.650000X0.950000*%
%ADD31R,0.700000X0.300000*%
%ADD32O,1.400000X0.800000*%
%ADD33R,1.180000X4.700000*%
%ADD34RoundRect,0.218750X0.218750X0.256250X-0.218750X0.256250X-0.218750X-0.256250X0.218750X-0.256250X0*%
%ADD35RoundRect,0.225000X-0.225000X-0.250000X0.225000X-0.250000X0.225000X0.250000X-0.225000X0.250000X0*%
%ADD36RoundRect,0.200000X-0.200000X-0.275000X0.200000X-0.275000X0.200000X0.275000X-0.200000X0.275000X0*%
%ADD37RoundRect,0.250000X-0.362500X-1.425000X0.362500X-1.425000X0.362500X1.425000X-0.362500X1.425000X0*%
G04 APERTURE END LIST*
D10*
%TO.C,R9*%
X149931904Y-92584000D03*
X149931904Y-94234000D03*
%TD*%
D11*
%TO.C,J2*%
X171704000Y-73733010D03*
D12*
X177504000Y-73733010D03*
D13*
X174704000Y-68933010D03*
%TD*%
D14*
%TO.C,Q1*%
X158079467Y-75885000D03*
X158079467Y-75235000D03*
X158079467Y-74585000D03*
X158079467Y-73935000D03*
D15*
X156124467Y-74910000D03*
%TD*%
D10*
%TO.C,R5*%
X139954000Y-86297000D03*
X139954000Y-87947000D03*
%TD*%
D16*
%TO.C,D2*%
X139954000Y-91211500D03*
X139954000Y-89636500D03*
%TD*%
D10*
%TO.C,R8*%
X155436907Y-92584000D03*
X155436907Y-94234000D03*
%TD*%
D17*
%TO.C,Q2*%
X150130573Y-74000000D03*
X150130573Y-74650000D03*
X150130573Y-75300000D03*
X150130573Y-75950000D03*
D18*
X152085573Y-74975000D03*
%TD*%
D19*
%TO.C,U1*%
X143510000Y-77724000D03*
X143110000Y-77724000D03*
X142710000Y-77724000D03*
X142310000Y-77724000D03*
X141910000Y-77724000D03*
X141510000Y-77724000D03*
X141110000Y-77724000D03*
X141110000Y-80674000D03*
X141510000Y-80674000D03*
X141910000Y-80674000D03*
X142310000Y-80674000D03*
X142710000Y-80674000D03*
X143110000Y-80674000D03*
X143510000Y-80674000D03*
D20*
X142310000Y-79199000D03*
%TD*%
D21*
%TO.C,L2*%
X166878000Y-85467000D03*
X166878000Y-88777000D03*
%TD*%
D22*
%TO.C,C3*%
X145288000Y-82029000D03*
X145288000Y-83579000D03*
%TD*%
D23*
%TO.C,C6*%
X166878000Y-92627517D03*
X166878000Y-91077517D03*
%TD*%
D24*
%TO.C,U2*%
X159658500Y-81375500D03*
D25*
X157118500Y-81375500D03*
X154578500Y-81375500D03*
%TD*%
D11*
%TO.C,J3*%
X171704000Y-91405000D03*
D12*
X177504000Y-91405000D03*
D13*
X174704000Y-86605000D03*
%TD*%
D26*
%TO.C,R6*%
X136486305Y-86097467D03*
X136486305Y-84447467D03*
%TD*%
%TO.C,R1*%
X136398000Y-76517000D03*
X136398000Y-74867000D03*
%TD*%
D27*
%TO.C,JP2*%
X144831305Y-89755714D03*
D28*
X147371305Y-89755714D03*
X149911305Y-89755714D03*
%TD*%
D26*
%TO.C,R10*%
X144840810Y-94234000D03*
X144840810Y-92584000D03*
%TD*%
%TO.C,R7*%
X138146282Y-86101023D03*
X138146282Y-84451023D03*
%TD*%
%TO.C,R11*%
X160528000Y-94234000D03*
X160528000Y-92584000D03*
%TD*%
D27*
%TO.C,JP1*%
X155418012Y-89830269D03*
D28*
X157958012Y-89830269D03*
X160498012Y-89830269D03*
%TD*%
D22*
%TO.C,C7*%
X168656000Y-91089277D03*
X168656000Y-92639277D03*
%TD*%
D23*
%TO.C,C4*%
X167894000Y-81166000D03*
X167894000Y-79616000D03*
%TD*%
D29*
%TO.C,J1*%
X133899512Y-77157757D03*
D30*
X133899512Y-84357757D03*
D31*
X134559512Y-78007757D03*
X134559512Y-78507757D03*
X134559512Y-79007757D03*
X134559512Y-79507757D03*
X134559512Y-80007757D03*
X134559512Y-80507757D03*
X134559512Y-81007757D03*
X134559512Y-81507757D03*
X134559512Y-82007757D03*
X134559512Y-82507757D03*
X134559512Y-83007757D03*
X134559512Y-83507757D03*
X132859512Y-83257757D03*
X132859512Y-82757757D03*
X132859512Y-82257757D03*
X132859512Y-81757757D03*
X132859512Y-81257757D03*
X132859512Y-80757757D03*
X132859512Y-80257757D03*
X132859512Y-79757757D03*
X132859512Y-79257757D03*
X132859512Y-78757757D03*
X132859512Y-78257757D03*
X132859512Y-77757757D03*
D32*
X126699512Y-76267757D03*
X132649512Y-76627757D03*
X132649512Y-84887757D03*
X126699512Y-85247757D03*
%TD*%
D10*
%TO.C,R4*%
X160039746Y-76378000D03*
X160039746Y-78028000D03*
%TD*%
D33*
%TO.C,L1*%
X164460795Y-75580021D03*
X167770795Y-75580021D03*
%TD*%
D34*
%TO.C,D1*%
X137947500Y-71628000D03*
X136372500Y-71628000D03*
%TD*%
D35*
%TO.C,C5*%
X166889760Y-82769013D03*
X168439760Y-82769013D03*
%TD*%
D36*
%TO.C,R3*%
X147765000Y-77724000D03*
X149415000Y-77724000D03*
%TD*%
D23*
%TO.C,C1*%
X138176000Y-76467000D03*
X138176000Y-74917000D03*
%TD*%
D37*
%TO.C,R2*%
X141309500Y-74930000D03*
X147234500Y-74930000D03*
%TD*%
D22*
%TO.C,C2*%
X161762091Y-76428000D03*
X161762091Y-77978000D03*
%TD*%
M02*
