%TF.GenerationSoftware,KiCad,Pcbnew,7.0.10-7.0.10~ubuntu20.04.1*%
%TF.CreationDate,2024-10-07T18:02:44+02:00*%
%TF.ProjectId,powerplay,706f7765-7270-46c6-9179-2e6b69636164,rev?*%
%TF.SameCoordinates,Original*%
%TF.FileFunction,Copper,L1,Top*%
%TF.FilePolarity,Positive*%
%FSLAX46Y46*%
G04 Gerber Fmt 4.6, Leading zero omitted, Abs format (unit mm)*
G04 Created by KiCad (PCBNEW 7.0.10-7.0.10~ubuntu20.04.1) date 2024-10-07 18:02:44*
%MOMM*%
%LPD*%
G01*
G04 APERTURE LIST*
G04 Aperture macros list*
%AMRoundRect*
0 Rectangle with rounded corners*
0 $1 Rounding radius*
0 $2 $3 $4 $5 $6 $7 $8 $9 X,Y pos of 4 corners*
0 Add a 4 corners polygon primitive as box body*
4,1,4,$2,$3,$4,$5,$6,$7,$8,$9,$2,$3,0*
0 Add four circle primitives for the rounded corners*
1,1,$1+$1,$2,$3*
1,1,$1+$1,$4,$5*
1,1,$1+$1,$6,$7*
1,1,$1+$1,$8,$9*
0 Add four rect primitives between the rounded corners*
20,1,$1+$1,$2,$3,$4,$5,0*
20,1,$1+$1,$4,$5,$6,$7,0*
20,1,$1+$1,$6,$7,$8,$9,0*
20,1,$1+$1,$8,$9,$2,$3,0*%
%AMFreePoly0*
4,1,17,1.395000,0.765000,0.855000,0.765000,0.855000,0.535000,1.395000,0.535000,1.395000,0.115000,0.855000,0.115000,0.855000,-0.115000,1.395000,-0.115000,1.395000,-0.535000,0.855000,-0.535000,0.855000,-0.765000,1.395000,-0.765000,1.395000,-1.185000,-0.855000,-1.185000,-0.855000,1.185000,1.395000,1.185000,1.395000,0.765000,1.395000,0.765000,$1*%
G04 Aperture macros list end*
%TA.AperFunction,SMDPad,CuDef*%
%ADD10RoundRect,0.200000X-0.275000X0.200000X-0.275000X-0.200000X0.275000X-0.200000X0.275000X0.200000X0*%
%TD*%
%TA.AperFunction,ComponentPad*%
%ADD11R,1.800000X4.400000*%
%TD*%
%TA.AperFunction,ComponentPad*%
%ADD12O,1.800000X4.000000*%
%TD*%
%TA.AperFunction,ComponentPad*%
%ADD13O,4.000000X1.800000*%
%TD*%
%TA.AperFunction,SMDPad,CuDef*%
%ADD14RoundRect,0.105000X0.245000X0.105000X-0.245000X0.105000X-0.245000X-0.105000X0.245000X-0.105000X0*%
%TD*%
%TA.AperFunction,SMDPad,CuDef*%
%ADD15FreePoly0,180.000000*%
%TD*%
%TA.AperFunction,SMDPad,CuDef*%
%ADD16RoundRect,0.218750X0.256250X-0.218750X0.256250X0.218750X-0.256250X0.218750X-0.256250X-0.218750X0*%
%TD*%
%TA.AperFunction,SMDPad,CuDef*%
%ADD17RoundRect,0.105000X-0.245000X-0.105000X0.245000X-0.105000X0.245000X0.105000X-0.245000X0.105000X0*%
%TD*%
%TA.AperFunction,SMDPad,CuDef*%
%ADD18FreePoly0,0.000000*%
%TD*%
%TA.AperFunction,SMDPad,CuDef*%
%ADD19R,0.250000X0.700000*%
%TD*%
%TA.AperFunction,SMDPad,CuDef*%
%ADD20R,2.350000X1.780000*%
%TD*%
%TA.AperFunction,SMDPad,CuDef*%
%ADD21R,4.700000X1.180000*%
%TD*%
%TA.AperFunction,SMDPad,CuDef*%
%ADD22RoundRect,0.225000X-0.250000X0.225000X-0.250000X-0.225000X0.250000X-0.225000X0.250000X0.225000X0*%
%TD*%
%TA.AperFunction,SMDPad,CuDef*%
%ADD23RoundRect,0.225000X0.250000X-0.225000X0.250000X0.225000X-0.250000X0.225000X-0.250000X-0.225000X0*%
%TD*%
%TA.AperFunction,ComponentPad*%
%ADD24R,1.500000X2.500000*%
%TD*%
%TA.AperFunction,ComponentPad*%
%ADD25O,1.500000X2.500000*%
%TD*%
%TA.AperFunction,SMDPad,CuDef*%
%ADD26RoundRect,0.200000X0.275000X-0.200000X0.275000X0.200000X-0.275000X0.200000X-0.275000X-0.200000X0*%
%TD*%
%TA.AperFunction,ComponentPad*%
%ADD27R,1.700000X1.700000*%
%TD*%
%TA.AperFunction,ComponentPad*%
%ADD28O,1.700000X1.700000*%
%TD*%
%TA.AperFunction,SMDPad,CuDef*%
%ADD29R,0.700000X0.300000*%
%TD*%
%TA.AperFunction,ComponentPad*%
%ADD30O,1.400000X0.800000*%
%TD*%
%TA.AperFunction,SMDPad,CuDef*%
%ADD31R,1.180000X4.700000*%
%TD*%
%TA.AperFunction,SMDPad,CuDef*%
%ADD32RoundRect,0.218750X0.218750X0.256250X-0.218750X0.256250X-0.218750X-0.256250X0.218750X-0.256250X0*%
%TD*%
%TA.AperFunction,SMDPad,CuDef*%
%ADD33RoundRect,0.225000X-0.225000X-0.250000X0.225000X-0.250000X0.225000X0.250000X-0.225000X0.250000X0*%
%TD*%
%TA.AperFunction,SMDPad,CuDef*%
%ADD34RoundRect,0.200000X-0.200000X-0.275000X0.200000X-0.275000X0.200000X0.275000X-0.200000X0.275000X0*%
%TD*%
%TA.AperFunction,SMDPad,CuDef*%
%ADD35RoundRect,0.250000X-0.362500X-1.425000X0.362500X-1.425000X0.362500X1.425000X-0.362500X1.425000X0*%
%TD*%
%TA.AperFunction,ViaPad*%
%ADD36C,0.800000*%
%TD*%
%TA.AperFunction,ViaPad*%
%ADD37C,6.000000*%
%TD*%
%TA.AperFunction,Conductor*%
%ADD38C,0.250000*%
%TD*%
G04 APERTURE END LIST*
D10*
%TO.P,R9,1*%
%TO.N,Net-(JP2-B)*%
X149931904Y-92584000D03*
%TO.P,R9,2*%
%TO.N,GND*%
X149931904Y-94234000D03*
%TD*%
D11*
%TO.P,J2,1*%
%TO.N,VCC*%
X171704000Y-73733010D03*
D12*
%TO.P,J2,2*%
%TO.N,GND*%
X177504000Y-73733010D03*
D13*
%TO.P,J2,3*%
%TO.N,N/C*%
X174704000Y-68933010D03*
%TD*%
D14*
%TO.P,Q1,1,S*%
%TO.N,Net-(C2-Pad1)*%
X158079467Y-75885000D03*
%TO.P,Q1,2,S*%
X158079467Y-75235000D03*
%TO.P,Q1,3,S*%
X158079467Y-74585000D03*
%TO.P,Q1,4,G*%
%TO.N,Net-(Q1-G)*%
X158079467Y-73935000D03*
D15*
%TO.P,Q1,5,D*%
%TO.N,Net-(Q1-D)*%
X156124467Y-74910000D03*
%TD*%
D10*
%TO.P,R5,1*%
%TO.N,Net-(U1-LED)*%
X139954000Y-86297000D03*
%TO.P,R5,2*%
%TO.N,Net-(D2-A)*%
X139954000Y-87947000D03*
%TD*%
D16*
%TO.P,D2,1,K*%
%TO.N,GND*%
X139954000Y-91211500D03*
%TO.P,D2,2,A*%
%TO.N,Net-(D2-A)*%
X139954000Y-89636500D03*
%TD*%
D10*
%TO.P,R8,1*%
%TO.N,Net-(JP1-A)*%
X155436907Y-92584000D03*
%TO.P,R8,2*%
%TO.N,GND*%
X155436907Y-94234000D03*
%TD*%
D17*
%TO.P,Q2,1,S*%
%TO.N,Net-(U1-VCC)*%
X150130573Y-74000000D03*
%TO.P,Q2,2,S*%
X150130573Y-74650000D03*
%TO.P,Q2,3,S*%
X150130573Y-75300000D03*
%TO.P,Q2,4,G*%
%TO.N,Net-(Q1-G)*%
X150130573Y-75950000D03*
D18*
%TO.P,Q2,5,D*%
%TO.N,Net-(Q1-D)*%
X152085573Y-74975000D03*
%TD*%
D19*
%TO.P,U1,1,VOUT*%
%TO.N,Net-(U1-VOUT)*%
X143510000Y-77724000D03*
%TO.P,U1,2,PWR_EN*%
%TO.N,Net-(U1-PWR_EN)*%
X143110000Y-77724000D03*
%TO.P,U1,3,VCC*%
%TO.N,Net-(U1-VCC)*%
X142710000Y-77724000D03*
%TO.P,U1,4,ISENP*%
%TO.N,Net-(U1-ISENP)*%
X142310000Y-77724000D03*
%TO.P,U1,5,GND*%
%TO.N,GND*%
X141910000Y-77724000D03*
%TO.P,U1,6,FLIP*%
%TO.N,unconnected-(U1-FLIP-Pad6)*%
X141510000Y-77724000D03*
%TO.P,U1,7,LED*%
%TO.N,Net-(U1-LED)*%
X141110000Y-77724000D03*
%TO.P,U1,8,VSEL*%
%TO.N,Net-(JP1-C)*%
X141110000Y-80674000D03*
%TO.P,U1,9,ISEL*%
%TO.N,Net-(JP2-C)*%
X141510000Y-80674000D03*
%TO.P,U1,10,CC2*%
%TO.N,Net-(J1-CC2)*%
X141910000Y-80674000D03*
%TO.P,U1,11,CC1*%
%TO.N,Net-(J1-CC1)*%
X142310000Y-80674000D03*
%TO.P,U1,12,DN*%
%TO.N,Net-(U1-DN)*%
X142710000Y-80674000D03*
%TO.P,U1,13,DP*%
%TO.N,Net-(U1-DP)*%
X143110000Y-80674000D03*
%TO.P,U1,14,V5V*%
%TO.N,Net-(U1-V5V)*%
X143510000Y-80674000D03*
D20*
%TO.P,U1,15,GND*%
%TO.N,GND*%
X142310000Y-79199000D03*
%TD*%
D21*
%TO.P,L2,1,1*%
%TO.N,Net-(U2-Vout)*%
X166878000Y-85467000D03*
%TO.P,L2,2,2*%
%TO.N,+12V*%
X166878000Y-88777000D03*
%TD*%
D22*
%TO.P,C3,1*%
%TO.N,Net-(U1-V5V)*%
X145288000Y-82029000D03*
%TO.P,C3,2*%
%TO.N,GND*%
X145288000Y-83579000D03*
%TD*%
D23*
%TO.P,C6,1*%
%TO.N,GND*%
X166878000Y-92627517D03*
%TO.P,C6,2*%
%TO.N,+12V*%
X166878000Y-91077517D03*
%TD*%
D24*
%TO.P,U2,1,Vin*%
%TO.N,VCC*%
X159658500Y-81375500D03*
D25*
%TO.P,U2,2,GND*%
%TO.N,GND*%
X157118500Y-81375500D03*
%TO.P,U2,3,Vout*%
%TO.N,Net-(U2-Vout)*%
X154578500Y-81375500D03*
%TD*%
D11*
%TO.P,J3,1*%
%TO.N,+12V*%
X171704000Y-91405000D03*
D12*
%TO.P,J3,2*%
%TO.N,GND*%
X177504000Y-91405000D03*
D13*
%TO.P,J3,3*%
%TO.N,N/C*%
X174704000Y-86605000D03*
%TD*%
D26*
%TO.P,R6,1*%
%TO.N,GND*%
X136486305Y-86097467D03*
%TO.P,R6,2*%
%TO.N,Net-(J1-CC1)*%
X136486305Y-84447467D03*
%TD*%
%TO.P,R1,1*%
%TO.N,Net-(U1-ISENP)*%
X136398000Y-76517000D03*
%TO.P,R1,2*%
%TO.N,Net-(D1-A)*%
X136398000Y-74867000D03*
%TD*%
D27*
%TO.P,JP2,1,A*%
%TO.N,Net-(JP2-A)*%
X144831305Y-89755714D03*
D28*
%TO.P,JP2,2,C*%
%TO.N,Net-(JP2-C)*%
X147371305Y-89755714D03*
%TO.P,JP2,3,B*%
%TO.N,Net-(JP2-B)*%
X149911305Y-89755714D03*
%TD*%
D26*
%TO.P,R10,1*%
%TO.N,GND*%
X144840810Y-94234000D03*
%TO.P,R10,2*%
%TO.N,Net-(JP2-A)*%
X144840810Y-92584000D03*
%TD*%
%TO.P,R7,1*%
%TO.N,GND*%
X138146282Y-86101023D03*
%TO.P,R7,2*%
%TO.N,Net-(J1-CC2)*%
X138146282Y-84451023D03*
%TD*%
%TO.P,R11,1*%
%TO.N,GND*%
X160528000Y-94234000D03*
%TO.P,R11,2*%
%TO.N,Net-(JP1-B)*%
X160528000Y-92584000D03*
%TD*%
D27*
%TO.P,JP1,1,A*%
%TO.N,Net-(JP1-A)*%
X155418012Y-89830269D03*
D28*
%TO.P,JP1,2,C*%
%TO.N,Net-(JP1-C)*%
X157958012Y-89830269D03*
%TO.P,JP1,3,B*%
%TO.N,Net-(JP1-B)*%
X160498012Y-89830269D03*
%TD*%
D22*
%TO.P,C7,1*%
%TO.N,+12V*%
X168656000Y-91089277D03*
%TO.P,C7,2*%
%TO.N,GND*%
X168656000Y-92639277D03*
%TD*%
D23*
%TO.P,C4,1*%
%TO.N,GND*%
X167894000Y-81166000D03*
%TO.P,C4,2*%
%TO.N,VCC*%
X167894000Y-79616000D03*
%TD*%
D29*
%TO.P,J1,A1,GND*%
%TO.N,GND*%
X134559512Y-78007757D03*
%TO.P,J1,A2,TX1+*%
%TO.N,unconnected-(J1-TX1+-PadA2)*%
X134559512Y-78507757D03*
%TO.P,J1,A3,TX1-*%
%TO.N,unconnected-(J1-TX1--PadA3)*%
X134559512Y-79007757D03*
%TO.P,J1,A4,VBUS*%
%TO.N,Net-(U1-ISENP)*%
X134559512Y-79507757D03*
%TO.P,J1,A5,CC1*%
%TO.N,Net-(J1-CC1)*%
X134559512Y-80007757D03*
%TO.P,J1,A6,D+*%
%TO.N,Net-(U1-DP)*%
X134559512Y-80507757D03*
%TO.P,J1,A7,D-*%
%TO.N,Net-(U1-DN)*%
X134559512Y-81007757D03*
%TO.P,J1,A8,SBU1*%
%TO.N,unconnected-(J1-SBU1-PadA8)*%
X134559512Y-81507757D03*
%TO.P,J1,A9,VBUS*%
%TO.N,Net-(U1-ISENP)*%
X134559512Y-82007757D03*
%TO.P,J1,A10,RX2-*%
%TO.N,unconnected-(J1-RX2--PadA10)*%
X134559512Y-82507757D03*
%TO.P,J1,A11,RX2+*%
%TO.N,unconnected-(J1-RX2+-PadA11)*%
X134559512Y-83007757D03*
%TO.P,J1,A12,GND*%
%TO.N,GND*%
X134559512Y-83507757D03*
%TO.P,J1,B1,GND*%
X132859512Y-83257757D03*
%TO.P,J1,B2,TX2+*%
%TO.N,unconnected-(J1-TX2+-PadB2)*%
X132859512Y-82757757D03*
%TO.P,J1,B3,TX2-*%
%TO.N,unconnected-(J1-TX2--PadB3)*%
X132859512Y-82257757D03*
%TO.P,J1,B4,VBUS*%
%TO.N,Net-(U1-ISENP)*%
X132859512Y-81757757D03*
%TO.P,J1,B5,CC2*%
%TO.N,Net-(J1-CC2)*%
X132859512Y-81257757D03*
%TO.P,J1,B6,D+*%
%TO.N,Net-(U1-DP)*%
X132859512Y-80757757D03*
%TO.P,J1,B7,D-*%
%TO.N,Net-(U1-DN)*%
X132859512Y-80257757D03*
%TO.P,J1,B8,SBU2*%
%TO.N,unconnected-(J1-SBU2-PadB8)*%
X132859512Y-79757757D03*
%TO.P,J1,B9,VBUS*%
%TO.N,Net-(U1-ISENP)*%
X132859512Y-79257757D03*
%TO.P,J1,B10,RX1-*%
%TO.N,unconnected-(J1-RX1--PadB10)*%
X132859512Y-78757757D03*
%TO.P,J1,B11,RX1+*%
%TO.N,unconnected-(J1-RX1+-PadB11)*%
X132859512Y-78257757D03*
%TO.P,J1,B12,GND*%
%TO.N,GND*%
X132859512Y-77757757D03*
D30*
%TO.P,J1,S1,SHIELD*%
X126699512Y-76267757D03*
X132649512Y-76627757D03*
X132649512Y-84887757D03*
X126699512Y-85247757D03*
%TD*%
D10*
%TO.P,R4,1*%
%TO.N,Net-(C2-Pad1)*%
X160039746Y-76378000D03*
%TO.P,R4,2*%
%TO.N,Net-(U1-VOUT)*%
X160039746Y-78028000D03*
%TD*%
D31*
%TO.P,L1,1,1*%
%TO.N,Net-(C2-Pad1)*%
X164460795Y-75580021D03*
%TO.P,L1,2,2*%
%TO.N,VCC*%
X167770795Y-75580021D03*
%TD*%
D32*
%TO.P,D1,1,K*%
%TO.N,GND*%
X137947500Y-71628000D03*
%TO.P,D1,2,A*%
%TO.N,Net-(D1-A)*%
X136372500Y-71628000D03*
%TD*%
D33*
%TO.P,C5,1*%
%TO.N,Net-(U2-Vout)*%
X166889760Y-82769013D03*
%TO.P,C5,2*%
%TO.N,GND*%
X168439760Y-82769013D03*
%TD*%
D34*
%TO.P,R3,1*%
%TO.N,Net-(U1-PWR_EN)*%
X147765000Y-77724000D03*
%TO.P,R3,2*%
%TO.N,Net-(Q1-G)*%
X149415000Y-77724000D03*
%TD*%
D23*
%TO.P,C1,1*%
%TO.N,Net-(U1-ISENP)*%
X138176000Y-76467000D03*
%TO.P,C1,2*%
%TO.N,GND*%
X138176000Y-74917000D03*
%TD*%
D35*
%TO.P,R2,1*%
%TO.N,Net-(U1-ISENP)*%
X141309500Y-74930000D03*
%TO.P,R2,2*%
%TO.N,Net-(U1-VCC)*%
X147234500Y-74930000D03*
%TD*%
D22*
%TO.P,C2,1*%
%TO.N,Net-(C2-Pad1)*%
X161762091Y-76428000D03*
%TO.P,C2,2*%
%TO.N,GND*%
X161762091Y-77978000D03*
%TD*%
D36*
%TO.N,GND*%
X150000000Y-81000000D03*
X139573000Y-77851000D03*
X145000000Y-87000000D03*
X152000000Y-73000000D03*
X145000000Y-74000000D03*
X156000000Y-73000000D03*
D37*
X127000000Y-70000000D03*
D36*
X144000000Y-74000000D03*
X154000000Y-73000000D03*
X139000000Y-80000000D03*
X163000000Y-79000000D03*
X150000000Y-80000000D03*
D37*
X180000000Y-82500000D03*
D36*
X148000000Y-80000000D03*
D37*
X127000000Y-94000000D03*
D36*
X147000000Y-80000000D03*
X164000000Y-72000000D03*
X163000000Y-88000000D03*
X155000000Y-73000000D03*
X154000000Y-87000000D03*
X165000000Y-72000000D03*
X163000000Y-89000000D03*
X146000000Y-78000000D03*
X141000000Y-72000000D03*
X153000000Y-73000000D03*
X146000000Y-80000000D03*
%TO.N,Net-(U1-DP)*%
X130810000Y-80264000D03*
X143002000Y-84328000D03*
X135761306Y-81283217D03*
%TO.N,Net-(U1-DN)*%
X141986000Y-83058000D03*
X130302000Y-78486000D03*
%TO.N,Net-(J1-CC2)*%
X137577395Y-82068301D03*
X131020227Y-81469472D03*
%TO.N,Net-(JP1-C)*%
X143851000Y-82852996D03*
X139943245Y-80480936D03*
%TO.N,Net-(JP2-C)*%
X140208000Y-81393301D03*
X143792449Y-83801034D03*
%TO.N,Net-(Q1-G)*%
X154178000Y-78065000D03*
X159512000Y-73406000D03*
%TO.N,Net-(U1-LED)*%
X140462000Y-85090000D03*
X139954000Y-79502000D03*
%TD*%
D38*
%TO.N,Net-(U1-ISENP)*%
X142310000Y-77724000D02*
X142310000Y-75930500D01*
X133809512Y-82007757D02*
X134559512Y-82007757D01*
X130810000Y-77724000D02*
X128778000Y-77724000D01*
X133559512Y-81757757D02*
X133809512Y-82007757D01*
X132259512Y-81757757D02*
X132859512Y-81757757D01*
X134559512Y-79507757D02*
X135159512Y-79507757D01*
X132859512Y-79257757D02*
X132343757Y-79257757D01*
X130451269Y-83566000D02*
X132259512Y-81757757D01*
X134139758Y-79507757D02*
X133859512Y-79507757D01*
X127508000Y-82296000D02*
X128778000Y-83566000D01*
X128778000Y-77724000D02*
X127508000Y-78994000D01*
X136398000Y-78269269D02*
X136398000Y-76517000D01*
X135159512Y-79507757D02*
X136398000Y-78269269D01*
X133609512Y-79257757D02*
X132859512Y-79257757D01*
X142310000Y-75930500D02*
X141309500Y-74930000D01*
X132859512Y-81757757D02*
X133559512Y-81757757D01*
X127508000Y-78994000D02*
X127508000Y-82296000D01*
X128778000Y-83566000D02*
X130451269Y-83566000D01*
X132343757Y-79257757D02*
X130810000Y-77724000D01*
X133859512Y-79507757D02*
X133609512Y-79257757D01*
X134559512Y-79507757D02*
X134139758Y-79507757D01*
%TO.N,GND*%
X133509563Y-77757757D02*
X133759563Y-78007757D01*
X141711000Y-77000000D02*
X140424000Y-77000000D01*
X133759563Y-78007757D02*
X134559512Y-78007757D01*
X132859512Y-83257757D02*
X133109512Y-83507757D01*
X132649512Y-77547757D02*
X132859512Y-77757757D01*
X133109512Y-83507757D02*
X134559512Y-83507757D01*
X133109512Y-83507757D02*
X132649512Y-83967757D01*
X132859512Y-77757757D02*
X133509563Y-77757757D01*
X141910000Y-77724000D02*
X141910000Y-77199000D01*
X132649512Y-76627757D02*
X132649512Y-77547757D01*
X132649512Y-83967757D02*
X132649512Y-84887757D01*
X140424000Y-77000000D02*
X139573000Y-77851000D01*
X141910000Y-77199000D02*
X141711000Y-77000000D01*
%TO.N,Net-(U1-V5V)*%
X145288000Y-82029000D02*
X144865000Y-82029000D01*
X144865000Y-82029000D02*
X143510000Y-80674000D01*
%TO.N,Net-(D1-A)*%
X136372500Y-74841500D02*
X136398000Y-74867000D01*
X136372500Y-71628000D02*
X136372500Y-74841500D01*
%TO.N,Net-(J1-CC1)*%
X142310000Y-81739597D02*
X138705597Y-85344000D01*
X134559512Y-80007757D02*
X135511151Y-80007757D01*
X136486306Y-80982912D02*
X136486305Y-84447467D01*
X142310000Y-80674000D02*
X142310000Y-81739597D01*
X138705597Y-85344000D02*
X137382838Y-85344000D01*
X135511151Y-80007757D02*
X136486306Y-80982912D01*
X137382838Y-85344000D02*
X136486305Y-84447467D01*
%TO.N,Net-(U1-DP)*%
X143110000Y-84220000D02*
X143110000Y-80674000D01*
X134559512Y-80507757D02*
X135209512Y-80507757D01*
X132859512Y-80757757D02*
X131303757Y-80757757D01*
X135209512Y-80507757D02*
X135761306Y-81059551D01*
X143002000Y-84328000D02*
X143110000Y-84220000D01*
X131303757Y-80757757D02*
X130810000Y-80264000D01*
X135761306Y-81059551D02*
X135761306Y-81283217D01*
%TO.N,Net-(U1-DN)*%
X132859512Y-80257757D02*
X132073757Y-80257757D01*
X133509512Y-80257757D02*
X132859512Y-80257757D01*
X142710000Y-80674000D02*
X142710000Y-82334000D01*
X134559272Y-80982757D02*
X133798800Y-80982757D01*
X133798800Y-80982757D02*
X133798800Y-80547045D01*
X134559512Y-80982997D02*
X134559272Y-80982757D01*
X133798800Y-80547045D02*
X133509512Y-80257757D01*
X132073757Y-80257757D02*
X130302000Y-78486000D01*
X134559512Y-81007757D02*
X134559512Y-80982997D01*
X142710000Y-82334000D02*
X141986000Y-83058000D01*
%TO.N,Net-(J1-CC2)*%
X131231942Y-81257757D02*
X132859512Y-81257757D01*
X141415610Y-82068301D02*
X141910000Y-81573911D01*
X138131349Y-84447467D02*
X138131349Y-82622255D01*
X138131349Y-82622255D02*
X137577395Y-82068301D01*
X137577395Y-82068301D02*
X141415610Y-82068301D01*
X141910000Y-81573911D02*
X141910000Y-80674000D01*
X131020227Y-81469472D02*
X131231942Y-81257757D01*
%TO.N,Net-(JP1-A)*%
X155418012Y-89830269D02*
X155418012Y-92819105D01*
X155418012Y-92565105D02*
X155436907Y-92584000D01*
%TO.N,Net-(JP1-C)*%
X140136309Y-80674000D02*
X139943245Y-80480936D01*
X144538000Y-84017342D02*
X144538000Y-83539996D01*
X141110000Y-80674000D02*
X140136309Y-80674000D01*
X156833012Y-88705269D02*
X151697269Y-88705269D01*
X146499658Y-85979000D02*
X144538000Y-84017342D01*
X157958012Y-89830269D02*
X156833012Y-88705269D01*
X144538000Y-83539996D02*
X143851000Y-82852996D01*
X151697269Y-88705269D02*
X148971000Y-85979000D01*
X148971000Y-85979000D02*
X146499658Y-85979000D01*
%TO.N,Net-(JP1-B)*%
X160498012Y-92554012D02*
X160528000Y-92584000D01*
X160498012Y-89830269D02*
X160498012Y-92808012D01*
%TO.N,Net-(JP2-A)*%
X144831305Y-92574495D02*
X144840810Y-92584000D01*
X144831305Y-89755714D02*
X144831305Y-92828495D01*
%TO.N,Net-(JP2-C)*%
X143792449Y-83801034D02*
X143900882Y-83801034D01*
X141390699Y-81393301D02*
X140208000Y-81393301D01*
X141510000Y-81274000D02*
X141390699Y-81393301D01*
X141510000Y-80674000D02*
X141510000Y-81274000D01*
X147371305Y-87427305D02*
X143792449Y-83848449D01*
X147371305Y-89755714D02*
X147371305Y-87427305D01*
X143792449Y-83848449D02*
X143792449Y-83801034D01*
%TO.N,Net-(JP2-B)*%
X149911305Y-92563401D02*
X149931904Y-92584000D01*
X149911305Y-89755714D02*
X149911305Y-92817401D01*
%TO.N,Net-(Q1-G)*%
X159512000Y-73406000D02*
X158608467Y-73406000D01*
X152245573Y-78065000D02*
X154178000Y-78065000D01*
X158608467Y-73406000D02*
X158079467Y-73935000D01*
X150130573Y-75950000D02*
X152245573Y-78065000D01*
X149415000Y-77724000D02*
X149415000Y-76665573D01*
X149415000Y-76665573D02*
X150130573Y-75950000D01*
%TO.N,Net-(U1-VCC)*%
X143129000Y-76539314D02*
X143129000Y-75057000D01*
X142710000Y-77724000D02*
X142710000Y-76958314D01*
X142710000Y-76958314D02*
X143129000Y-76539314D01*
X143129000Y-75057000D02*
X143256000Y-74930000D01*
X143256000Y-74930000D02*
X147234500Y-74930000D01*
%TO.N,Net-(U1-PWR_EN)*%
X147289999Y-77248999D02*
X145828999Y-77248999D01*
X143780000Y-76454000D02*
X143110000Y-77124000D01*
X145034000Y-76454000D02*
X143780000Y-76454000D01*
X145828999Y-77248999D02*
X145034000Y-76454000D01*
X143110000Y-77124000D02*
X143110000Y-77724000D01*
X147765000Y-77724000D02*
X147289999Y-77248999D01*
%TO.N,Net-(U1-VOUT)*%
X144526000Y-78740000D02*
X143510000Y-77724000D01*
X160039746Y-78028000D02*
X159986724Y-77974978D01*
X160039746Y-78028000D02*
X159327746Y-78740000D01*
X159327746Y-78740000D02*
X144526000Y-78740000D01*
%TO.N,Net-(U1-LED)*%
X139954000Y-78880000D02*
X141110000Y-77724000D01*
X139954000Y-85598000D02*
X140462000Y-85090000D01*
X139954000Y-86297000D02*
X139954000Y-85598000D01*
X139954000Y-79502000D02*
X139954000Y-78880000D01*
%TD*%
%TA.AperFunction,Conductor*%
%TO.N,+12V*%
G36*
X171973677Y-88030685D02*
G01*
X171994319Y-88047319D01*
X172937681Y-88990681D01*
X172971166Y-89052004D01*
X172974000Y-89078362D01*
X172974000Y-93420638D01*
X172954315Y-93487677D01*
X172937681Y-93508319D01*
X172756319Y-93689681D01*
X172694996Y-93723166D01*
X172668638Y-93726000D01*
X170939000Y-93726000D01*
X170871961Y-93706315D01*
X170826206Y-93653511D01*
X170815000Y-93602000D01*
X170815000Y-92583000D01*
X170180000Y-91948000D01*
X169035831Y-91948000D01*
X169015827Y-91945668D01*
X169015825Y-91945694D01*
X168951493Y-91938777D01*
X168360518Y-91938777D01*
X168360509Y-91938778D01*
X168296172Y-91945694D01*
X168296169Y-91945668D01*
X168276166Y-91948000D01*
X167292420Y-91948000D01*
X167249089Y-91940182D01*
X167230114Y-91933105D01*
X167230112Y-91933104D01*
X167230110Y-91933104D01*
X167173493Y-91927017D01*
X166582518Y-91927017D01*
X166582509Y-91927018D01*
X166545338Y-91931014D01*
X166476579Y-91918607D01*
X166444405Y-91895405D01*
X164374319Y-89825319D01*
X164340834Y-89763996D01*
X164338000Y-89737638D01*
X164338000Y-88135000D01*
X164357685Y-88067961D01*
X164410489Y-88022206D01*
X164462000Y-88011000D01*
X171906638Y-88011000D01*
X171973677Y-88030685D01*
G37*
%TD.AperFunction*%
%TD*%
%TA.AperFunction,Conductor*%
%TO.N,Net-(Q1-D)*%
G36*
X157169039Y-73679685D02*
G01*
X157214794Y-73732489D01*
X157226000Y-73784000D01*
X157226000Y-76076000D01*
X157206315Y-76143039D01*
X157153511Y-76188794D01*
X157102000Y-76200000D01*
X151254000Y-76200000D01*
X151186961Y-76180315D01*
X151141206Y-76127511D01*
X151130000Y-76076000D01*
X151130000Y-73784000D01*
X151149685Y-73716961D01*
X151202489Y-73671206D01*
X151254000Y-73660000D01*
X157102000Y-73660000D01*
X157169039Y-73679685D01*
G37*
%TD.AperFunction*%
%TD*%
%TA.AperFunction,Conductor*%
%TO.N,Net-(U1-ISENP)*%
G36*
X142001677Y-73171685D02*
G01*
X142022319Y-73188319D01*
X142457681Y-73623681D01*
X142491166Y-73685004D01*
X142494000Y-73711362D01*
X142494000Y-76148637D01*
X142474315Y-76215676D01*
X142457681Y-76236318D01*
X142226446Y-76467552D01*
X142165123Y-76501037D01*
X142095431Y-76496053D01*
X142079032Y-76488536D01*
X142074668Y-76486137D01*
X142064024Y-76480285D01*
X142047763Y-76469604D01*
X142031932Y-76457324D01*
X141991849Y-76439978D01*
X141981363Y-76434841D01*
X141943094Y-76413803D01*
X141943092Y-76413802D01*
X141923693Y-76408822D01*
X141905281Y-76402518D01*
X141886898Y-76394562D01*
X141886892Y-76394560D01*
X141843760Y-76387729D01*
X141832322Y-76385361D01*
X141790020Y-76374500D01*
X141790019Y-76374500D01*
X141769984Y-76374500D01*
X141750586Y-76372973D01*
X141743162Y-76371797D01*
X141730805Y-76369840D01*
X141730804Y-76369840D01*
X141687325Y-76373950D01*
X141675656Y-76374500D01*
X140506743Y-76374500D01*
X140491122Y-76372775D01*
X140491095Y-76373061D01*
X140483333Y-76372326D01*
X140416113Y-76374439D01*
X140412219Y-76374500D01*
X140384650Y-76374500D01*
X140380673Y-76375002D01*
X140369042Y-76375917D01*
X140325374Y-76377289D01*
X140325368Y-76377290D01*
X140306126Y-76382880D01*
X140287087Y-76386823D01*
X140267217Y-76389334D01*
X140267203Y-76389337D01*
X140226598Y-76405413D01*
X140215554Y-76409194D01*
X140173614Y-76421379D01*
X140173610Y-76421381D01*
X140156366Y-76431579D01*
X140138905Y-76440133D01*
X140120274Y-76447510D01*
X140120262Y-76447517D01*
X140084933Y-76473185D01*
X140075173Y-76479596D01*
X140037580Y-76501829D01*
X140023414Y-76515995D01*
X140008624Y-76528627D01*
X139992414Y-76540404D01*
X139992411Y-76540407D01*
X139964573Y-76574058D01*
X139956711Y-76582697D01*
X139625227Y-76914182D01*
X139563906Y-76947666D01*
X139537548Y-76950500D01*
X139478354Y-76950500D01*
X139445897Y-76957398D01*
X139293197Y-76989855D01*
X139293192Y-76989857D01*
X139120270Y-77066848D01*
X139120265Y-77066851D01*
X138967129Y-77178111D01*
X138840466Y-77318785D01*
X138745821Y-77482715D01*
X138745818Y-77482722D01*
X138699636Y-77624857D01*
X138687326Y-77662744D01*
X138667540Y-77851000D01*
X138687326Y-78039256D01*
X138687327Y-78039259D01*
X138745820Y-78219283D01*
X138773243Y-78266782D01*
X138789714Y-78334682D01*
X138766862Y-78400709D01*
X138753536Y-78416462D01*
X136866673Y-80303326D01*
X136805350Y-80336811D01*
X136735658Y-80331827D01*
X136691311Y-80303326D01*
X136011954Y-79623969D01*
X136002131Y-79611707D01*
X136001910Y-79611891D01*
X135996937Y-79605879D01*
X135947927Y-79559856D01*
X135945128Y-79557143D01*
X135925628Y-79537642D01*
X135925622Y-79537637D01*
X135922437Y-79535166D01*
X135913585Y-79527605D01*
X135881733Y-79497695D01*
X135881731Y-79497693D01*
X135881728Y-79497692D01*
X135864180Y-79488045D01*
X135847914Y-79477361D01*
X135832083Y-79465081D01*
X135792000Y-79447735D01*
X135781514Y-79442598D01*
X135743245Y-79421560D01*
X135743243Y-79421559D01*
X135723844Y-79416579D01*
X135705432Y-79410275D01*
X135687049Y-79402319D01*
X135687043Y-79402317D01*
X135643911Y-79395486D01*
X135632473Y-79393118D01*
X135590171Y-79382257D01*
X135590170Y-79382257D01*
X135570135Y-79382257D01*
X135550737Y-79380730D01*
X135549017Y-79380457D01*
X135530955Y-79377596D01*
X135525682Y-79377431D01*
X135459294Y-79355648D01*
X135415222Y-79301432D01*
X135406291Y-79240236D01*
X135410011Y-79205637D01*
X135410012Y-79205630D01*
X135410011Y-78809885D01*
X135410010Y-78809868D01*
X135405832Y-78771010D01*
X135405832Y-78744504D01*
X135410012Y-78705630D01*
X135410011Y-78309885D01*
X135410010Y-78309868D01*
X135405832Y-78271010D01*
X135405832Y-78244504D01*
X135410012Y-78205630D01*
X135410011Y-77809885D01*
X135403603Y-77750274D01*
X135387956Y-77708323D01*
X135353309Y-77615428D01*
X135353305Y-77615421D01*
X135267059Y-77500212D01*
X135267056Y-77500209D01*
X135151847Y-77413963D01*
X135151840Y-77413959D01*
X135016994Y-77363665D01*
X135016995Y-77363665D01*
X134957395Y-77357258D01*
X134957393Y-77357257D01*
X134957385Y-77357257D01*
X134957377Y-77357257D01*
X134595108Y-77357257D01*
X134528069Y-77337572D01*
X134482314Y-77284768D01*
X134472169Y-77217071D01*
X134479978Y-77157756D01*
X134460199Y-77007522D01*
X134460199Y-77007521D01*
X134402210Y-76867524D01*
X134309963Y-76747306D01*
X134189745Y-76655059D01*
X134189741Y-76655057D01*
X134049748Y-76597070D01*
X133945130Y-76583296D01*
X133881234Y-76555029D01*
X133842764Y-76496704D01*
X133840027Y-76486137D01*
X133838784Y-76480290D01*
X133810656Y-76347954D01*
X133733663Y-76175027D01*
X133733660Y-76175022D01*
X133622400Y-76021886D01*
X133584715Y-75987954D01*
X133481728Y-75895224D01*
X133317796Y-75800578D01*
X133317789Y-75800575D01*
X133137771Y-75742084D01*
X133137768Y-75742083D01*
X132996704Y-75727257D01*
X132302320Y-75727257D01*
X132161256Y-75742083D01*
X132161253Y-75742083D01*
X132161252Y-75742084D01*
X131981234Y-75800575D01*
X131981227Y-75800578D01*
X131817297Y-75895223D01*
X131676623Y-76021886D01*
X131565363Y-76175022D01*
X131565360Y-76175027D01*
X131488369Y-76347949D01*
X131488367Y-76347954D01*
X131449012Y-76533111D01*
X131449012Y-76722402D01*
X131488367Y-76907559D01*
X131488369Y-76907564D01*
X131565360Y-77080486D01*
X131565363Y-77080491D01*
X131676623Y-77233627D01*
X131676624Y-77233628D01*
X131817296Y-77360290D01*
X131910254Y-77413959D01*
X131948092Y-77435805D01*
X131996307Y-77486372D01*
X132009531Y-77554979D01*
X132009391Y-77556355D01*
X132009012Y-77559884D01*
X132009012Y-77559888D01*
X132009012Y-77955626D01*
X132009013Y-77955635D01*
X132013191Y-77994502D01*
X132013191Y-78021007D01*
X132009012Y-78059879D01*
X132009012Y-78455626D01*
X132009013Y-78455635D01*
X132013191Y-78494502D01*
X132013191Y-78521007D01*
X132009012Y-78559879D01*
X132009012Y-78955627D01*
X132009013Y-78955636D01*
X132013937Y-79001443D01*
X132001529Y-79070202D01*
X131953918Y-79121338D01*
X131886218Y-79138616D01*
X131819924Y-79116549D01*
X131802966Y-79102376D01*
X131555800Y-78855210D01*
X131240960Y-78540369D01*
X131207475Y-78479046D01*
X131205323Y-78465668D01*
X131187674Y-78297744D01*
X131129179Y-78117716D01*
X131034533Y-77953784D01*
X130907871Y-77813112D01*
X130903431Y-77809886D01*
X130754734Y-77701851D01*
X130754729Y-77701848D01*
X130581807Y-77624857D01*
X130581802Y-77624855D01*
X130436001Y-77593865D01*
X130396646Y-77585500D01*
X130207354Y-77585500D01*
X130174897Y-77592398D01*
X130022197Y-77624855D01*
X130022192Y-77624857D01*
X129849270Y-77701848D01*
X129849265Y-77701851D01*
X129696129Y-77813111D01*
X129569466Y-77953785D01*
X129474821Y-78117715D01*
X129474818Y-78117722D01*
X129426386Y-78266782D01*
X129416326Y-78297744D01*
X129396540Y-78486000D01*
X129416326Y-78674256D01*
X129416327Y-78674259D01*
X129474818Y-78854277D01*
X129474821Y-78854284D01*
X129569467Y-79018216D01*
X129651508Y-79109331D01*
X129696129Y-79158888D01*
X129849265Y-79270148D01*
X129849270Y-79270151D01*
X130022191Y-79347142D01*
X130022193Y-79347142D01*
X130022197Y-79347144D01*
X130150547Y-79374425D01*
X130212025Y-79407616D01*
X130245802Y-79468778D01*
X130241150Y-79538493D01*
X130207742Y-79587858D01*
X130204130Y-79591109D01*
X130077466Y-79731785D01*
X129982821Y-79895715D01*
X129982818Y-79895722D01*
X129933178Y-80048500D01*
X129924326Y-80075744D01*
X129904540Y-80264000D01*
X129924326Y-80452256D01*
X129924327Y-80452259D01*
X129982818Y-80632277D01*
X129982821Y-80632284D01*
X130077467Y-80796216D01*
X130171365Y-80900500D01*
X130194892Y-80926629D01*
X130225122Y-80989620D01*
X130216497Y-81058955D01*
X130210130Y-81071600D01*
X130193047Y-81101188D01*
X130158616Y-81207157D01*
X130134553Y-81281216D01*
X130114767Y-81469472D01*
X130134553Y-81657728D01*
X130134554Y-81657731D01*
X130193045Y-81837749D01*
X130193048Y-81837756D01*
X130287694Y-82001688D01*
X130414356Y-82142360D01*
X130567492Y-82253620D01*
X130567497Y-82253623D01*
X130740419Y-82330614D01*
X130740424Y-82330616D01*
X130925581Y-82369972D01*
X130925582Y-82369972D01*
X131114871Y-82369972D01*
X131114873Y-82369972D01*
X131300030Y-82330616D01*
X131472957Y-82253623D01*
X131626098Y-82142360D01*
X131752760Y-82001688D01*
X131781935Y-81951154D01*
X131832499Y-81902941D01*
X131901106Y-81889717D01*
X131965971Y-81915684D01*
X132006501Y-81972598D01*
X132012611Y-82026409D01*
X132009012Y-82059887D01*
X132009012Y-82455626D01*
X132009013Y-82455635D01*
X132013191Y-82494502D01*
X132013191Y-82521007D01*
X132009012Y-82559879D01*
X132009012Y-82955626D01*
X132009013Y-82955635D01*
X132013191Y-82994502D01*
X132013191Y-83021007D01*
X132009012Y-83059879D01*
X132009012Y-83455627D01*
X132009013Y-83455633D01*
X132015420Y-83515240D01*
X132064329Y-83646370D01*
X132069313Y-83716062D01*
X132063441Y-83735345D01*
X132063317Y-83735658D01*
X132058334Y-83755064D01*
X132052033Y-83773467D01*
X132044074Y-83791859D01*
X132044073Y-83791862D01*
X132037240Y-83835000D01*
X132034872Y-83846431D01*
X132024013Y-83888728D01*
X132024012Y-83888739D01*
X132024012Y-83908773D01*
X132022485Y-83928172D01*
X132019351Y-83947951D01*
X132019165Y-83953897D01*
X131997383Y-84020285D01*
X131943167Y-84064358D01*
X131895226Y-84074000D01*
X127124000Y-84074000D01*
X127056961Y-84054315D01*
X127011206Y-84001511D01*
X127000000Y-83950000D01*
X127000000Y-77775362D01*
X127019685Y-77708323D01*
X127036319Y-77687681D01*
X130011681Y-74712319D01*
X130073004Y-74678834D01*
X130099362Y-74676000D01*
X135298500Y-74676000D01*
X135365539Y-74695685D01*
X135411294Y-74748489D01*
X135422500Y-74800000D01*
X135422500Y-75123613D01*
X135428913Y-75194192D01*
X135428913Y-75194194D01*
X135428914Y-75194196D01*
X135479522Y-75356606D01*
X135536400Y-75450694D01*
X135567530Y-75502188D01*
X135687811Y-75622469D01*
X135687813Y-75622470D01*
X135687815Y-75622472D01*
X135833394Y-75710478D01*
X135995804Y-75761086D01*
X136066384Y-75767500D01*
X136066387Y-75767500D01*
X136729613Y-75767500D01*
X136729616Y-75767500D01*
X136800196Y-75761086D01*
X136962606Y-75710478D01*
X137108185Y-75622472D01*
X137159195Y-75571462D01*
X137220518Y-75537976D01*
X137290210Y-75542960D01*
X137346143Y-75584831D01*
X137352414Y-75594042D01*
X137353032Y-75595044D01*
X137472955Y-75714967D01*
X137472959Y-75714970D01*
X137617294Y-75803998D01*
X137617297Y-75803999D01*
X137617303Y-75804003D01*
X137778292Y-75857349D01*
X137877655Y-75867500D01*
X138474344Y-75867499D01*
X138474352Y-75867498D01*
X138474355Y-75867498D01*
X138539895Y-75860803D01*
X138573708Y-75857349D01*
X138734697Y-75804003D01*
X138879044Y-75714968D01*
X138998968Y-75595044D01*
X139088003Y-75450697D01*
X139141349Y-75289708D01*
X139151500Y-75190345D01*
X139151499Y-74767861D01*
X139171183Y-74700823D01*
X139187818Y-74680181D01*
X139191999Y-74676000D01*
X139192000Y-74676000D01*
X139954000Y-73914000D01*
X139954000Y-73276000D01*
X139973685Y-73208961D01*
X140026489Y-73163206D01*
X140078000Y-73152000D01*
X141934638Y-73152000D01*
X142001677Y-73171685D01*
G37*
%TD.AperFunction*%
%TD*%
%TA.AperFunction,Conductor*%
%TO.N,Net-(C2-Pad1)*%
G36*
X164988677Y-73044685D02*
G01*
X165009319Y-73061319D01*
X165190681Y-73242681D01*
X165224166Y-73304004D01*
X165227000Y-73330362D01*
X165227000Y-77136183D01*
X165207315Y-77203222D01*
X165184203Y-77229896D01*
X165153666Y-77256355D01*
X165122038Y-77289132D01*
X165075829Y-77377469D01*
X165075828Y-77377469D01*
X165056146Y-77444501D01*
X165056143Y-77444513D01*
X165045795Y-77516490D01*
X165045795Y-77801020D01*
X165026110Y-77868059D01*
X164973306Y-77913814D01*
X164921795Y-77925020D01*
X164583838Y-77925020D01*
X164556544Y-77926484D01*
X164556539Y-77926484D01*
X164556527Y-77926485D01*
X164556519Y-77926485D01*
X164556490Y-77926488D01*
X164530168Y-77929318D01*
X164530166Y-77929319D01*
X164435040Y-77959106D01*
X164435036Y-77959107D01*
X164431572Y-77960998D01*
X164428212Y-77962833D01*
X164368788Y-77978000D01*
X163627362Y-77978000D01*
X163560323Y-77958315D01*
X163539681Y-77941681D01*
X162687000Y-77089000D01*
X158547362Y-77089000D01*
X158480323Y-77069315D01*
X158459681Y-77052681D01*
X157643319Y-76236319D01*
X157609834Y-76174996D01*
X157607000Y-76148638D01*
X157607000Y-74510650D01*
X157626685Y-74443611D01*
X157679489Y-74397856D01*
X157748644Y-74387912D01*
X157800725Y-74395500D01*
X158358203Y-74395500D01*
X158358209Y-74395500D01*
X158427307Y-74385433D01*
X158533896Y-74333324D01*
X158533897Y-74333323D01*
X158533899Y-74333322D01*
X158617789Y-74249432D01*
X158617789Y-74249430D01*
X158617791Y-74249429D01*
X158623605Y-74237537D01*
X158670734Y-74185956D01*
X158735004Y-74168000D01*
X159893000Y-74168000D01*
X160999681Y-73061319D01*
X161061004Y-73027834D01*
X161087362Y-73025000D01*
X164921638Y-73025000D01*
X164988677Y-73044685D01*
G37*
%TD.AperFunction*%
%TD*%
%TA.AperFunction,Conductor*%
%TO.N,VCC*%
G36*
X170677335Y-77967335D02*
G01*
X170662996Y-77975166D01*
X170636638Y-77978000D01*
X170434000Y-77978000D01*
X170561000Y-77851000D01*
X170677335Y-77967335D01*
G37*
%TD.AperFunction*%
%TA.AperFunction,Conductor*%
G36*
X173171039Y-70885685D02*
G01*
X173216794Y-70938489D01*
X173228000Y-70990000D01*
X173228000Y-75386638D01*
X173208315Y-75453677D01*
X173191681Y-75474319D01*
X170724319Y-77941681D01*
X170688000Y-77961512D01*
X170688000Y-77724000D01*
X170561000Y-77851000D01*
X169672000Y-76962000D01*
X167132000Y-76962000D01*
X167132000Y-72568362D01*
X167151685Y-72501323D01*
X167168319Y-72480681D01*
X168746681Y-70902319D01*
X168808004Y-70868834D01*
X168834362Y-70866000D01*
X173104000Y-70866000D01*
X173171039Y-70885685D01*
G37*
%TD.AperFunction*%
%TD*%
%TA.AperFunction,Conductor*%
%TO.N,VCC*%
G36*
X170561000Y-77851000D02*
G01*
X170434000Y-77978000D01*
X170433999Y-77978000D01*
X167982817Y-80429181D01*
X167921494Y-80462666D01*
X167895136Y-80465500D01*
X167598519Y-80465500D01*
X167598509Y-80465501D01*
X167541887Y-80471587D01*
X167438413Y-80510182D01*
X167395079Y-80518000D01*
X164988999Y-80518000D01*
X162866319Y-82640681D01*
X162804996Y-82674166D01*
X162778638Y-82677000D01*
X161925000Y-82677000D01*
X158928362Y-82677000D01*
X158861323Y-82657315D01*
X158840681Y-82640681D01*
X158786319Y-82586319D01*
X158752834Y-82524996D01*
X158750000Y-82498638D01*
X158750000Y-80188362D01*
X158769685Y-80121323D01*
X158786319Y-80100681D01*
X158840681Y-80046319D01*
X158902004Y-80012834D01*
X158928362Y-80010000D01*
X162703000Y-80010000D01*
X163032666Y-79680333D01*
X163090668Y-79647620D01*
X163232365Y-79612696D01*
X163372240Y-79539283D01*
X163490483Y-79434530D01*
X163580220Y-79304523D01*
X163636237Y-79156818D01*
X163642143Y-79108175D01*
X163669762Y-79044000D01*
X163677536Y-79035463D01*
X164496160Y-78216840D01*
X164557483Y-78183355D01*
X164583841Y-78180521D01*
X165075471Y-78180521D01*
X165075472Y-78180520D01*
X165148535Y-78165987D01*
X165231396Y-78110622D01*
X165286761Y-78027761D01*
X165301295Y-77954695D01*
X165301295Y-77516492D01*
X165320980Y-77449453D01*
X165373784Y-77403698D01*
X165395215Y-77396195D01*
X167132000Y-76962000D01*
X169672000Y-76962000D01*
X170561000Y-77851000D01*
G37*
%TD.AperFunction*%
%TA.AperFunction,Conductor*%
G36*
X170688000Y-77961512D02*
G01*
X170677335Y-77967335D01*
X170561000Y-77851000D01*
X170688000Y-77724000D01*
X170688000Y-77961512D01*
G37*
%TD.AperFunction*%
%TD*%
%TA.AperFunction,Conductor*%
%TO.N,Net-(U1-VCC)*%
G36*
X150129677Y-73171685D02*
G01*
X150150319Y-73188319D01*
X150585681Y-73623681D01*
X150619166Y-73685004D01*
X150622000Y-73711362D01*
X150622000Y-75377111D01*
X150602315Y-75444150D01*
X150549511Y-75489905D01*
X150480353Y-75499849D01*
X150480125Y-75499816D01*
X150450299Y-75495471D01*
X150409315Y-75489500D01*
X149851831Y-75489500D01*
X149805765Y-75496211D01*
X149782730Y-75499567D01*
X149676142Y-75551676D01*
X149676141Y-75551678D01*
X149592251Y-75635567D01*
X149589049Y-75640053D01*
X149534074Y-75683175D01*
X149488131Y-75692000D01*
X149351999Y-75692000D01*
X148372319Y-76671681D01*
X148310996Y-76705166D01*
X148284638Y-76708000D01*
X146682000Y-76708000D01*
X146614961Y-76688315D01*
X146569206Y-76635511D01*
X146558000Y-76584000D01*
X146558000Y-73276000D01*
X146577685Y-73208961D01*
X146630489Y-73163206D01*
X146682000Y-73152000D01*
X150062638Y-73152000D01*
X150129677Y-73171685D01*
G37*
%TD.AperFunction*%
%TD*%
%TA.AperFunction,Conductor*%
%TO.N,Net-(U2-Vout)*%
G36*
X155590677Y-80029685D02*
G01*
X155611319Y-80046319D01*
X155665681Y-80100681D01*
X155699166Y-80162004D01*
X155702000Y-80188362D01*
X155702000Y-83296000D01*
X156861000Y-84455000D01*
X162814000Y-84455000D01*
X165190681Y-82078319D01*
X165252004Y-82044834D01*
X165278362Y-82042000D01*
X167516000Y-82042000D01*
X167583039Y-82061685D01*
X167628794Y-82114489D01*
X167640000Y-82166000D01*
X167640000Y-84074000D01*
X168148000Y-84582000D01*
X169366638Y-84582000D01*
X169433677Y-84601685D01*
X169454319Y-84618319D01*
X169635681Y-84799681D01*
X169669166Y-84861004D01*
X169672000Y-84887362D01*
X169672000Y-85927638D01*
X169652315Y-85994677D01*
X169635681Y-86015319D01*
X169454319Y-86196681D01*
X169392996Y-86230166D01*
X169366638Y-86233000D01*
X155753362Y-86233000D01*
X155686323Y-86213315D01*
X155665681Y-86196681D01*
X153579319Y-84110319D01*
X153545834Y-84048996D01*
X153543000Y-84022638D01*
X153543000Y-80134000D01*
X153562685Y-80066961D01*
X153615489Y-80021206D01*
X153667000Y-80010000D01*
X155523638Y-80010000D01*
X155590677Y-80029685D01*
G37*
%TD.AperFunction*%
%TD*%
%TA.AperFunction,Conductor*%
%TO.N,GND*%
G36*
X140481332Y-76878600D02*
G01*
X140506743Y-76880000D01*
X140506751Y-76880000D01*
X141675636Y-76880000D01*
X141675656Y-76880000D01*
X141699456Y-76879439D01*
X141704523Y-76879200D01*
X141764921Y-76891708D01*
X141769461Y-76893932D01*
X141772467Y-76895317D01*
X141773194Y-76895653D01*
X141785244Y-76902033D01*
X141786491Y-76902784D01*
X141786502Y-76902791D01*
X141820491Y-76923255D01*
X141835499Y-76931506D01*
X141866239Y-76946975D01*
X141917275Y-76994693D01*
X141934500Y-77057741D01*
X141934500Y-77161128D01*
X141914815Y-77228167D01*
X141862011Y-77273922D01*
X141792853Y-77283866D01*
X141741611Y-77264231D01*
X141693722Y-77232233D01*
X141693721Y-77232232D01*
X141693720Y-77232232D01*
X141693717Y-77232231D01*
X141649822Y-77223500D01*
X141649820Y-77223500D01*
X141370180Y-77223500D01*
X141370177Y-77223500D01*
X141334191Y-77230658D01*
X141285809Y-77230658D01*
X141249823Y-77223500D01*
X141249820Y-77223500D01*
X140970180Y-77223500D01*
X140970178Y-77223500D01*
X140926282Y-77232231D01*
X140926275Y-77232234D01*
X140876496Y-77265495D01*
X140876495Y-77265496D01*
X140843234Y-77315275D01*
X140843231Y-77315282D01*
X140834500Y-77359177D01*
X140834500Y-77417099D01*
X140814815Y-77484138D01*
X140798181Y-77504780D01*
X139725108Y-78577852D01*
X139705254Y-78593976D01*
X139696165Y-78599914D01*
X139696164Y-78599915D01*
X139676720Y-78624896D01*
X139666574Y-78636388D01*
X139666483Y-78636479D01*
X139666474Y-78636489D01*
X139654402Y-78653397D01*
X139651341Y-78657503D01*
X139619192Y-78698808D01*
X139615447Y-78705729D01*
X139611988Y-78712804D01*
X139597057Y-78762955D01*
X139595495Y-78767831D01*
X139578500Y-78817338D01*
X139577206Y-78825092D01*
X139576231Y-78832911D01*
X139578394Y-78885191D01*
X139578500Y-78890316D01*
X139578500Y-78909796D01*
X139558815Y-78976835D01*
X139536727Y-79002611D01*
X139463518Y-79067468D01*
X139373781Y-79197475D01*
X139373780Y-79197476D01*
X139317762Y-79345181D01*
X139298722Y-79501999D01*
X139298722Y-79502000D01*
X139317762Y-79658818D01*
X139365441Y-79784534D01*
X139373780Y-79806523D01*
X139398659Y-79842566D01*
X139447439Y-79913237D01*
X139469322Y-79979592D01*
X139451857Y-80047243D01*
X139447439Y-80054117D01*
X139363026Y-80176411D01*
X139363025Y-80176412D01*
X139307007Y-80324117D01*
X139287967Y-80480935D01*
X139287967Y-80480936D01*
X139307007Y-80637754D01*
X139359564Y-80776334D01*
X139363025Y-80785459D01*
X139452762Y-80915466D01*
X139568897Y-81018352D01*
X139606024Y-81077540D01*
X139605256Y-81147406D01*
X139602612Y-81155137D01*
X139571763Y-81236479D01*
X139571763Y-81236481D01*
X139555903Y-81367105D01*
X139552722Y-81393301D01*
X139568078Y-81519773D01*
X139572217Y-81553854D01*
X139560757Y-81622778D01*
X139513853Y-81674564D01*
X139449121Y-81692801D01*
X138173703Y-81692801D01*
X138106664Y-81673116D01*
X138071652Y-81639239D01*
X138067878Y-81633771D01*
X137949635Y-81529018D01*
X137949633Y-81529017D01*
X137949632Y-81529016D01*
X137809760Y-81455604D01*
X137656381Y-81417801D01*
X137656380Y-81417801D01*
X137498410Y-81417801D01*
X137498409Y-81417801D01*
X137345029Y-81455604D01*
X137205157Y-81529016D01*
X137086907Y-81633775D01*
X137081938Y-81639385D01*
X137080650Y-81638244D01*
X137033562Y-81676399D01*
X136964112Y-81684052D01*
X136901550Y-81652943D01*
X136865739Y-81592949D01*
X136861805Y-81561964D01*
X136861805Y-81034718D01*
X136864445Y-81009268D01*
X136865144Y-81005933D01*
X136866673Y-80998643D01*
X136862758Y-80967249D01*
X136861806Y-80951885D01*
X136861806Y-80951795D01*
X136861383Y-80946691D01*
X136863860Y-80946485D01*
X136870936Y-80887378D01*
X136915428Y-80833506D01*
X136941579Y-80820025D01*
X137047611Y-80780477D01*
X137108934Y-80746992D01*
X137224116Y-80660768D01*
X139110979Y-78773904D01*
X139139470Y-78742936D01*
X139152796Y-78727183D01*
X139178631Y-78693927D01*
X139244560Y-78566041D01*
X139267412Y-78500014D01*
X139294641Y-78358744D01*
X139280967Y-78215515D01*
X139265087Y-78150055D01*
X139264697Y-78148290D01*
X139264497Y-78147617D01*
X139264495Y-78147614D01*
X139264495Y-78147610D01*
X139211021Y-78014036D01*
X139211016Y-78014027D01*
X139210564Y-78012898D01*
X139207757Y-78005148D01*
X139188530Y-77945974D01*
X139183141Y-77920620D01*
X139181855Y-77908388D01*
X139177186Y-77863956D01*
X139177186Y-77838037D01*
X139178809Y-77822595D01*
X139183141Y-77781374D01*
X139188528Y-77756032D01*
X139206135Y-77701841D01*
X139216672Y-77678176D01*
X139245165Y-77628824D01*
X139260392Y-77607866D01*
X139298519Y-77565521D01*
X139317771Y-77548185D01*
X139363877Y-77514687D01*
X139386312Y-77501736D01*
X139438357Y-77478563D01*
X139463005Y-77470555D01*
X139519972Y-77458446D01*
X139539101Y-77455916D01*
X139591588Y-77453103D01*
X139591597Y-77453102D01*
X139591599Y-77453102D01*
X139599019Y-77452304D01*
X139617946Y-77450269D01*
X139671359Y-77441613D01*
X139806167Y-77391332D01*
X139867488Y-77357848D01*
X139982670Y-77271624D01*
X140314154Y-76940139D01*
X140330571Y-76922931D01*
X140332838Y-76920439D01*
X140392507Y-76884097D01*
X140422662Y-76879898D01*
X140424031Y-76879877D01*
X140424154Y-76879874D01*
X140424160Y-76879874D01*
X140425375Y-76879845D01*
X140431995Y-76879689D01*
X140470630Y-76878474D01*
X140481332Y-76878600D01*
G37*
%TD.AperFunction*%
%TA.AperFunction,Conductor*%
G36*
X144894140Y-76849185D02*
G01*
X144914782Y-76865819D01*
X145526848Y-77477885D01*
X145542976Y-77497744D01*
X145548915Y-77506835D01*
X145573172Y-77525715D01*
X145573892Y-77526275D01*
X145585411Y-77536448D01*
X145585481Y-77536518D01*
X145602388Y-77548589D01*
X145606500Y-77551655D01*
X145647809Y-77583808D01*
X145654721Y-77587548D01*
X145661800Y-77591009D01*
X145711939Y-77605936D01*
X145716821Y-77607500D01*
X145766337Y-77624499D01*
X145774078Y-77625790D01*
X145781908Y-77626766D01*
X145781910Y-77626767D01*
X145781911Y-77626766D01*
X145781912Y-77626767D01*
X145820011Y-77625191D01*
X145834191Y-77624604D01*
X145839314Y-77624499D01*
X146990500Y-77624499D01*
X147057539Y-77644184D01*
X147103294Y-77696988D01*
X147114500Y-77748499D01*
X147114500Y-78053269D01*
X147117353Y-78083699D01*
X147117353Y-78083701D01*
X147157890Y-78199545D01*
X147161452Y-78269324D01*
X147126724Y-78329951D01*
X147064731Y-78362179D01*
X147040849Y-78364500D01*
X144732899Y-78364500D01*
X144665860Y-78344815D01*
X144645218Y-78328181D01*
X143821819Y-77504781D01*
X143788334Y-77443458D01*
X143785500Y-77417100D01*
X143785500Y-77359177D01*
X143776768Y-77315282D01*
X143776767Y-77315281D01*
X143776767Y-77315278D01*
X143743504Y-77265496D01*
X143722887Y-77251720D01*
X143678083Y-77198109D01*
X143669376Y-77128784D01*
X143699531Y-77065756D01*
X143704079Y-77060957D01*
X143899218Y-76865819D01*
X143960541Y-76832334D01*
X143986899Y-76829500D01*
X144827101Y-76829500D01*
X144894140Y-76849185D01*
G37*
%TD.AperFunction*%
%TA.AperFunction,Conductor*%
G36*
X183003243Y-67000669D02*
G01*
X183133379Y-67007490D01*
X183313908Y-67017628D01*
X183326309Y-67018955D01*
X183474990Y-67042504D01*
X183476245Y-67042709D01*
X183635324Y-67069738D01*
X183646606Y-67072202D01*
X183795635Y-67112134D01*
X183797761Y-67112725D01*
X183949174Y-67156347D01*
X183959260Y-67159729D01*
X184104710Y-67215562D01*
X184107599Y-67216714D01*
X184251768Y-67276430D01*
X184260594Y-67280500D01*
X184400064Y-67351565D01*
X184403748Y-67353521D01*
X184493848Y-67403316D01*
X184539548Y-67428574D01*
X184547061Y-67433081D01*
X184678754Y-67518604D01*
X184682947Y-67521452D01*
X184809147Y-67610996D01*
X184815428Y-67615759D01*
X184937567Y-67714665D01*
X184942158Y-67718571D01*
X185057424Y-67821579D01*
X185062478Y-67826358D01*
X185173640Y-67937520D01*
X185178419Y-67942574D01*
X185281427Y-68057840D01*
X185285333Y-68062431D01*
X185384239Y-68184570D01*
X185389002Y-68190851D01*
X185478546Y-68317051D01*
X185481409Y-68321266D01*
X185566907Y-68452921D01*
X185571430Y-68460460D01*
X185646477Y-68596250D01*
X185648433Y-68599934D01*
X185719498Y-68739404D01*
X185723575Y-68748247D01*
X185783259Y-68892337D01*
X185784462Y-68895353D01*
X185840265Y-69040727D01*
X185843655Y-69050836D01*
X185887258Y-69202185D01*
X185887879Y-69204419D01*
X185927791Y-69353370D01*
X185930264Y-69364694D01*
X185957282Y-69523715D01*
X185957507Y-69525087D01*
X185981040Y-69673666D01*
X185982372Y-69686111D01*
X185992498Y-69866421D01*
X185992523Y-69866884D01*
X185999330Y-69996756D01*
X185999500Y-70003246D01*
X185999500Y-93996753D01*
X185999330Y-94003243D01*
X185992523Y-94133114D01*
X185992498Y-94133577D01*
X185982372Y-94313887D01*
X185981040Y-94326332D01*
X185957507Y-94474911D01*
X185957282Y-94476283D01*
X185930264Y-94635304D01*
X185927791Y-94646628D01*
X185887879Y-94795579D01*
X185887258Y-94797813D01*
X185843655Y-94949162D01*
X185840265Y-94959271D01*
X185784462Y-95104645D01*
X185783259Y-95107661D01*
X185723575Y-95251751D01*
X185719498Y-95260594D01*
X185648433Y-95400064D01*
X185646477Y-95403748D01*
X185571430Y-95539538D01*
X185566897Y-95547094D01*
X185481412Y-95678728D01*
X185478546Y-95682947D01*
X185389002Y-95809147D01*
X185384239Y-95815428D01*
X185285333Y-95937567D01*
X185281427Y-95942158D01*
X185178419Y-96057424D01*
X185173640Y-96062478D01*
X185062478Y-96173640D01*
X185057424Y-96178419D01*
X184942158Y-96281427D01*
X184937567Y-96285333D01*
X184815428Y-96384239D01*
X184809147Y-96389002D01*
X184682947Y-96478546D01*
X184678728Y-96481412D01*
X184547094Y-96566897D01*
X184539538Y-96571430D01*
X184403748Y-96646477D01*
X184400064Y-96648433D01*
X184260594Y-96719498D01*
X184251751Y-96723575D01*
X184107661Y-96783259D01*
X184104645Y-96784462D01*
X183959271Y-96840265D01*
X183949162Y-96843655D01*
X183797813Y-96887258D01*
X183795579Y-96887879D01*
X183646628Y-96927791D01*
X183635304Y-96930264D01*
X183476283Y-96957282D01*
X183474911Y-96957507D01*
X183326332Y-96981040D01*
X183313887Y-96982372D01*
X183133577Y-96992498D01*
X183133114Y-96992523D01*
X183003243Y-96999330D01*
X182996753Y-96999500D01*
X127003247Y-96999500D01*
X126996757Y-96999330D01*
X126866884Y-96992523D01*
X126866421Y-96992498D01*
X126686111Y-96982372D01*
X126673666Y-96981040D01*
X126525087Y-96957507D01*
X126523715Y-96957282D01*
X126364694Y-96930264D01*
X126353370Y-96927791D01*
X126204419Y-96887879D01*
X126202185Y-96887258D01*
X126050836Y-96843655D01*
X126040727Y-96840265D01*
X125895353Y-96784462D01*
X125892337Y-96783259D01*
X125748247Y-96723575D01*
X125739404Y-96719498D01*
X125599934Y-96648433D01*
X125596250Y-96646477D01*
X125460460Y-96571430D01*
X125452921Y-96566907D01*
X125321266Y-96481409D01*
X125317051Y-96478546D01*
X125190851Y-96389002D01*
X125184570Y-96384239D01*
X125062431Y-96285333D01*
X125057840Y-96281427D01*
X124942574Y-96178419D01*
X124937520Y-96173640D01*
X124826358Y-96062478D01*
X124821579Y-96057424D01*
X124718571Y-95942158D01*
X124714665Y-95937567D01*
X124615759Y-95815428D01*
X124610996Y-95809147D01*
X124521452Y-95682947D01*
X124518604Y-95678754D01*
X124433081Y-95547061D01*
X124428568Y-95539538D01*
X124353521Y-95403748D01*
X124351565Y-95400064D01*
X124280500Y-95260594D01*
X124276430Y-95251768D01*
X124216714Y-95107599D01*
X124215562Y-95104710D01*
X124159729Y-94959260D01*
X124156347Y-94949174D01*
X124112725Y-94797761D01*
X124112134Y-94795635D01*
X124072202Y-94646606D01*
X124069738Y-94635324D01*
X124044027Y-94484000D01*
X143865811Y-94484000D01*
X143865811Y-94490582D01*
X143872218Y-94561102D01*
X143872219Y-94561107D01*
X143922791Y-94723396D01*
X144010737Y-94868877D01*
X144130932Y-94989072D01*
X144276414Y-95077019D01*
X144276413Y-95077019D01*
X144438704Y-95127590D01*
X144438702Y-95127590D01*
X144509228Y-95133999D01*
X144590809Y-95133998D01*
X144590810Y-95133998D01*
X144590810Y-94484000D01*
X145090810Y-94484000D01*
X145090810Y-95133999D01*
X145172391Y-95133999D01*
X145242912Y-95127591D01*
X145242917Y-95127590D01*
X145405206Y-95077018D01*
X145550687Y-94989072D01*
X145670882Y-94868877D01*
X145758829Y-94723395D01*
X145809400Y-94561106D01*
X145815810Y-94490572D01*
X145815810Y-94484000D01*
X148956905Y-94484000D01*
X148956905Y-94490582D01*
X148963312Y-94561102D01*
X148963313Y-94561107D01*
X149013885Y-94723396D01*
X149101831Y-94868877D01*
X149222026Y-94989072D01*
X149367508Y-95077019D01*
X149367507Y-95077019D01*
X149529798Y-95127590D01*
X149529796Y-95127590D01*
X149600322Y-95133999D01*
X149681903Y-95133998D01*
X149681904Y-95133998D01*
X149681904Y-94484000D01*
X150181904Y-94484000D01*
X150181904Y-95133999D01*
X150263485Y-95133999D01*
X150334006Y-95127591D01*
X150334011Y-95127590D01*
X150496300Y-95077018D01*
X150641781Y-94989072D01*
X150761976Y-94868877D01*
X150849923Y-94723395D01*
X150900494Y-94561106D01*
X150906904Y-94490572D01*
X150906904Y-94484000D01*
X154461908Y-94484000D01*
X154461908Y-94490582D01*
X154468315Y-94561102D01*
X154468316Y-94561107D01*
X154518888Y-94723396D01*
X154606834Y-94868877D01*
X154727029Y-94989072D01*
X154872511Y-95077019D01*
X154872510Y-95077019D01*
X155034801Y-95127590D01*
X155034799Y-95127590D01*
X155105325Y-95133999D01*
X155186906Y-95133998D01*
X155186907Y-95133998D01*
X155186907Y-94484000D01*
X155686907Y-94484000D01*
X155686907Y-95133999D01*
X155768488Y-95133999D01*
X155839009Y-95127591D01*
X155839014Y-95127590D01*
X156001303Y-95077018D01*
X156146784Y-94989072D01*
X156266979Y-94868877D01*
X156354926Y-94723395D01*
X156405497Y-94561106D01*
X156411907Y-94490572D01*
X156411907Y-94484000D01*
X159553001Y-94484000D01*
X159553001Y-94490582D01*
X159559408Y-94561102D01*
X159559409Y-94561107D01*
X159609981Y-94723396D01*
X159697927Y-94868877D01*
X159818122Y-94989072D01*
X159963604Y-95077019D01*
X159963603Y-95077019D01*
X160125894Y-95127590D01*
X160125892Y-95127590D01*
X160196418Y-95133999D01*
X160277999Y-95133998D01*
X160278000Y-95133998D01*
X160278000Y-94484000D01*
X160778000Y-94484000D01*
X160778000Y-95133999D01*
X160859581Y-95133999D01*
X160930102Y-95127591D01*
X160930107Y-95127590D01*
X161092396Y-95077018D01*
X161237877Y-94989072D01*
X161358072Y-94868877D01*
X161446019Y-94723395D01*
X161496590Y-94561106D01*
X161503000Y-94490572D01*
X161503000Y-94484000D01*
X160778000Y-94484000D01*
X160278000Y-94484000D01*
X159553001Y-94484000D01*
X156411907Y-94484000D01*
X155686907Y-94484000D01*
X155186907Y-94484000D01*
X154461908Y-94484000D01*
X150906904Y-94484000D01*
X150181904Y-94484000D01*
X149681904Y-94484000D01*
X148956905Y-94484000D01*
X145815810Y-94484000D01*
X145090810Y-94484000D01*
X144590810Y-94484000D01*
X143865811Y-94484000D01*
X124044027Y-94484000D01*
X124042709Y-94476245D01*
X124042491Y-94474911D01*
X124018955Y-94326309D01*
X124017628Y-94313908D01*
X124007485Y-94133285D01*
X124007476Y-94133114D01*
X124000670Y-94003243D01*
X124000500Y-93996754D01*
X124000500Y-91461500D01*
X138979001Y-91461500D01*
X138979001Y-91478152D01*
X138989056Y-91576583D01*
X139041906Y-91736072D01*
X139041908Y-91736077D01*
X139130114Y-91879080D01*
X139248919Y-91997885D01*
X139391922Y-92086091D01*
X139391927Y-92086093D01*
X139551416Y-92138942D01*
X139649855Y-92148999D01*
X139703999Y-92148998D01*
X139704000Y-92148998D01*
X139704000Y-91461500D01*
X140204000Y-91461500D01*
X140204000Y-92148999D01*
X140258136Y-92148999D01*
X140258152Y-92148998D01*
X140356583Y-92138943D01*
X140516072Y-92086093D01*
X140516077Y-92086091D01*
X140659080Y-91997885D01*
X140777885Y-91879080D01*
X140866091Y-91736077D01*
X140866093Y-91736072D01*
X140918942Y-91576583D01*
X140928999Y-91478150D01*
X140929000Y-91478137D01*
X140929000Y-91461500D01*
X140204000Y-91461500D01*
X139704000Y-91461500D01*
X138979001Y-91461500D01*
X124000500Y-91461500D01*
X124000500Y-90961500D01*
X138979000Y-90961500D01*
X140928999Y-90961500D01*
X140928999Y-90944864D01*
X140928998Y-90944847D01*
X140918943Y-90846416D01*
X140866093Y-90686927D01*
X140866091Y-90686922D01*
X140831223Y-90630392D01*
X143730805Y-90630392D01*
X143745337Y-90703449D01*
X143745338Y-90703453D01*
X143751216Y-90712250D01*
X143800704Y-90786315D01*
X143876775Y-90837143D01*
X143883565Y-90841680D01*
X143883569Y-90841681D01*
X143956626Y-90856213D01*
X143956629Y-90856214D01*
X143956631Y-90856214D01*
X144331805Y-90856214D01*
X144398844Y-90875899D01*
X144444599Y-90928703D01*
X144455805Y-90980214D01*
X144455805Y-91857226D01*
X144436120Y-91924265D01*
X144383316Y-91970020D01*
X144372761Y-91974267D01*
X144352928Y-91981207D01*
X144243660Y-92061850D01*
X144163017Y-92171117D01*
X144163016Y-92171119D01*
X144118163Y-92299298D01*
X144118163Y-92299300D01*
X144115310Y-92329730D01*
X144115310Y-92838269D01*
X144118163Y-92868699D01*
X144118163Y-92868701D01*
X144163016Y-92996880D01*
X144163017Y-92996882D01*
X144243660Y-93106150D01*
X144327814Y-93168258D01*
X144370064Y-93223905D01*
X144375523Y-93293562D01*
X144342455Y-93355111D01*
X144291073Y-93386412D01*
X144276415Y-93390979D01*
X144276414Y-93390980D01*
X144130932Y-93478927D01*
X144010737Y-93599122D01*
X143922790Y-93744604D01*
X143872219Y-93906893D01*
X143865810Y-93977427D01*
X143865810Y-93984000D01*
X145815809Y-93984000D01*
X145815809Y-93977417D01*
X145809401Y-93906897D01*
X145809400Y-93906892D01*
X145758828Y-93744603D01*
X145670882Y-93599122D01*
X145550687Y-93478927D01*
X145405207Y-93390981D01*
X145390547Y-93386413D01*
X145332400Y-93347674D01*
X145304427Y-93283649D01*
X145315509Y-93214664D01*
X145353803Y-93168259D01*
X145437960Y-93106150D01*
X145518603Y-92996882D01*
X145548095Y-92912599D01*
X145563456Y-92868701D01*
X145563456Y-92868699D01*
X145566310Y-92838269D01*
X145566310Y-92329730D01*
X145563456Y-92299300D01*
X145563456Y-92299298D01*
X145523255Y-92184414D01*
X145518603Y-92171118D01*
X145437960Y-92061850D01*
X145328692Y-91981207D01*
X145306112Y-91973306D01*
X145289849Y-91967615D01*
X145233074Y-91926893D01*
X145207327Y-91861940D01*
X145206805Y-91850574D01*
X145206805Y-90980214D01*
X145226490Y-90913175D01*
X145279294Y-90867420D01*
X145330805Y-90856214D01*
X145705981Y-90856214D01*
X145705982Y-90856213D01*
X145779045Y-90841680D01*
X145861906Y-90786315D01*
X145917271Y-90703454D01*
X145931805Y-90630388D01*
X145931805Y-88881040D01*
X145931805Y-88881037D01*
X145931804Y-88881035D01*
X145917272Y-88807978D01*
X145917271Y-88807974D01*
X145913378Y-88802148D01*
X145861906Y-88725113D01*
X145779045Y-88669748D01*
X145779044Y-88669747D01*
X145779040Y-88669746D01*
X145705982Y-88655214D01*
X145705979Y-88655214D01*
X143956631Y-88655214D01*
X143956628Y-88655214D01*
X143883569Y-88669746D01*
X143883565Y-88669747D01*
X143800704Y-88725113D01*
X143745338Y-88807974D01*
X143745337Y-88807978D01*
X143730805Y-88881035D01*
X143730805Y-90630392D01*
X140831223Y-90630392D01*
X140777885Y-90543919D01*
X140659079Y-90425113D01*
X140659075Y-90425110D01*
X140576674Y-90374284D01*
X140529949Y-90322336D01*
X140518728Y-90253374D01*
X140542504Y-90194435D01*
X140545468Y-90190474D01*
X140545472Y-90190472D01*
X140626336Y-90082450D01*
X140673491Y-89956022D01*
X140677146Y-89922023D01*
X140679499Y-89900144D01*
X140679500Y-89900129D01*
X140679500Y-89372870D01*
X140679499Y-89372855D01*
X140676645Y-89346318D01*
X140673491Y-89316978D01*
X140673490Y-89316975D01*
X140626337Y-89190552D01*
X140626335Y-89190549D01*
X140545472Y-89082528D01*
X140437450Y-89001664D01*
X140437447Y-89001662D01*
X140311024Y-88954509D01*
X140255144Y-88948500D01*
X140255130Y-88948500D01*
X139652870Y-88948500D01*
X139652855Y-88948500D01*
X139596975Y-88954509D01*
X139470552Y-89001662D01*
X139470549Y-89001664D01*
X139362528Y-89082528D01*
X139281664Y-89190549D01*
X139281662Y-89190552D01*
X139234509Y-89316975D01*
X139228500Y-89372855D01*
X139228500Y-89900144D01*
X139234509Y-89956024D01*
X139281662Y-90082447D01*
X139281666Y-90082453D01*
X139365495Y-90194436D01*
X139389912Y-90259900D01*
X139375060Y-90328173D01*
X139331326Y-90374284D01*
X139248921Y-90425112D01*
X139130114Y-90543919D01*
X139041908Y-90686922D01*
X139041906Y-90686927D01*
X138989057Y-90846416D01*
X138979000Y-90944849D01*
X138979000Y-90961500D01*
X124000500Y-90961500D01*
X124000500Y-88201269D01*
X139228500Y-88201269D01*
X139231353Y-88231699D01*
X139231353Y-88231701D01*
X139272163Y-88348325D01*
X139276207Y-88359882D01*
X139356850Y-88469150D01*
X139466118Y-88549793D01*
X139508845Y-88564744D01*
X139594299Y-88594646D01*
X139624730Y-88597500D01*
X139624734Y-88597500D01*
X140283270Y-88597500D01*
X140313699Y-88594646D01*
X140313701Y-88594646D01*
X140377790Y-88572219D01*
X140441882Y-88549793D01*
X140551150Y-88469150D01*
X140631793Y-88359882D01*
X140655038Y-88293450D01*
X140676646Y-88231701D01*
X140676646Y-88231699D01*
X140679500Y-88201269D01*
X140679500Y-87692730D01*
X140676646Y-87662300D01*
X140676646Y-87662298D01*
X140643006Y-87566163D01*
X140631793Y-87534118D01*
X140551150Y-87424850D01*
X140441882Y-87344207D01*
X140441880Y-87344206D01*
X140313700Y-87299353D01*
X140283270Y-87296500D01*
X140283266Y-87296500D01*
X139624734Y-87296500D01*
X139624730Y-87296500D01*
X139594300Y-87299353D01*
X139594298Y-87299353D01*
X139466119Y-87344206D01*
X139466117Y-87344207D01*
X139356850Y-87424850D01*
X139276207Y-87534117D01*
X139276206Y-87534119D01*
X139231353Y-87662298D01*
X139231353Y-87662300D01*
X139228500Y-87692730D01*
X139228500Y-88201269D01*
X124000500Y-88201269D01*
X124000500Y-86347467D01*
X135511306Y-86347467D01*
X135511306Y-86354049D01*
X135517713Y-86424569D01*
X135517714Y-86424574D01*
X135568286Y-86586863D01*
X135656232Y-86732344D01*
X135776427Y-86852539D01*
X135921909Y-86940486D01*
X135921908Y-86940486D01*
X136084199Y-86991057D01*
X136084197Y-86991057D01*
X136154723Y-86997466D01*
X136236304Y-86997465D01*
X136236305Y-86997465D01*
X136236305Y-86347467D01*
X136736305Y-86347467D01*
X136736305Y-86997466D01*
X136817886Y-86997466D01*
X136888407Y-86991058D01*
X136888412Y-86991057D01*
X137050701Y-86940485D01*
X137196182Y-86852539D01*
X137226833Y-86821888D01*
X137288155Y-86788402D01*
X137357847Y-86793386D01*
X137402196Y-86821887D01*
X137436404Y-86856095D01*
X137581886Y-86944042D01*
X137581885Y-86944042D01*
X137744176Y-86994613D01*
X137744174Y-86994613D01*
X137814700Y-87001022D01*
X137896281Y-87001021D01*
X137896282Y-87001021D01*
X137896282Y-86351023D01*
X137183200Y-86351023D01*
X137171090Y-86347467D01*
X136736305Y-86347467D01*
X136236305Y-86347467D01*
X135511306Y-86347467D01*
X124000500Y-86347467D01*
X124000500Y-85497757D01*
X125532545Y-85497757D01*
X125538846Y-85527402D01*
X125615798Y-85700238D01*
X125726999Y-85853292D01*
X125867593Y-85979884D01*
X125867596Y-85979886D01*
X126031427Y-86074473D01*
X126031439Y-86074478D01*
X126211357Y-86132937D01*
X126352353Y-86147757D01*
X126449512Y-86147757D01*
X126449512Y-85497757D01*
X126949512Y-85497757D01*
X126949512Y-86147757D01*
X127046671Y-86147757D01*
X127187666Y-86132937D01*
X127367584Y-86074478D01*
X127367596Y-86074473D01*
X127531427Y-85979886D01*
X127531430Y-85979884D01*
X127672021Y-85853296D01*
X127672023Y-85853293D01*
X127783229Y-85700234D01*
X127860176Y-85527405D01*
X127866479Y-85497757D01*
X127024136Y-85497757D01*
X127097057Y-85483252D01*
X127179752Y-85427997D01*
X127235007Y-85345302D01*
X127254410Y-85247757D01*
X127235007Y-85150212D01*
X127179752Y-85067517D01*
X127097057Y-85012262D01*
X127024136Y-84997757D01*
X127866479Y-84997757D01*
X127860177Y-84968111D01*
X127783225Y-84795275D01*
X127769501Y-84776386D01*
X127746021Y-84710580D01*
X127761846Y-84642526D01*
X127811951Y-84593831D01*
X127869819Y-84579500D01*
X131376225Y-84579500D01*
X131443264Y-84599185D01*
X131472592Y-84625465D01*
X131482546Y-84637757D01*
X132324888Y-84637757D01*
X132251967Y-84652262D01*
X132169272Y-84707517D01*
X132114017Y-84790212D01*
X132094614Y-84887757D01*
X132114017Y-84985302D01*
X132169272Y-85067997D01*
X132251967Y-85123252D01*
X132324888Y-85137757D01*
X131482545Y-85137757D01*
X131488846Y-85167402D01*
X131565798Y-85340238D01*
X131676999Y-85493292D01*
X131817593Y-85619884D01*
X131817596Y-85619886D01*
X131981427Y-85714473D01*
X131981439Y-85714478D01*
X132161357Y-85772937D01*
X132302353Y-85787757D01*
X132399512Y-85787757D01*
X132399512Y-85137757D01*
X132899512Y-85137757D01*
X132899512Y-85787757D01*
X132996671Y-85787757D01*
X133137666Y-85772937D01*
X133317584Y-85714478D01*
X133317596Y-85714473D01*
X133481427Y-85619886D01*
X133481430Y-85619884D01*
X133622021Y-85493296D01*
X133622023Y-85493293D01*
X133733229Y-85340234D01*
X133812820Y-85161467D01*
X133815008Y-85162441D01*
X133848277Y-85113741D01*
X133910629Y-85086759D01*
X134049748Y-85068444D01*
X134189745Y-85010455D01*
X134309963Y-84918208D01*
X134402210Y-84797990D01*
X134460199Y-84657993D01*
X134475012Y-84545477D01*
X134475012Y-84222619D01*
X134494697Y-84155580D01*
X134501902Y-84149336D01*
X134490713Y-84131925D01*
X134683458Y-84131925D01*
X134686693Y-84134938D01*
X134709512Y-84157757D01*
X134957340Y-84157757D01*
X134957356Y-84157756D01*
X135016884Y-84151355D01*
X135016891Y-84151353D01*
X135151598Y-84101111D01*
X135151605Y-84101107D01*
X135266699Y-84014947D01*
X135266702Y-84014944D01*
X135352862Y-83899850D01*
X135352866Y-83899843D01*
X135403108Y-83765136D01*
X135403110Y-83765129D01*
X135409511Y-83705601D01*
X135409512Y-83705584D01*
X135409512Y-83657757D01*
X134709512Y-83657757D01*
X134709512Y-84059368D01*
X134689827Y-84126407D01*
X134683458Y-84131925D01*
X134490713Y-84131925D01*
X134466535Y-84094303D01*
X134462573Y-84075554D01*
X134460199Y-84057521D01*
X134447308Y-84026399D01*
X134418951Y-83957938D01*
X134409512Y-83910486D01*
X134409512Y-83532257D01*
X134429197Y-83465218D01*
X134482001Y-83419463D01*
X134533512Y-83408257D01*
X134934188Y-83408257D01*
X135007252Y-83393723D01*
X135029806Y-83378654D01*
X135096484Y-83357777D01*
X135098695Y-83357757D01*
X135409512Y-83357757D01*
X135409512Y-83309929D01*
X135409511Y-83309912D01*
X135403110Y-83250384D01*
X135403108Y-83250377D01*
X135352866Y-83115670D01*
X135352862Y-83115663D01*
X135266703Y-83000571D01*
X135266697Y-83000564D01*
X135209700Y-82957896D01*
X135167830Y-82901962D01*
X135160012Y-82858630D01*
X135160012Y-82833083D01*
X135157678Y-82821350D01*
X135149840Y-82781945D01*
X135149840Y-82733567D01*
X135160012Y-82682431D01*
X135160012Y-82333083D01*
X135149840Y-82281945D01*
X135149840Y-82233568D01*
X135160012Y-82182431D01*
X135160012Y-81895092D01*
X135179697Y-81828053D01*
X135232501Y-81782298D01*
X135301659Y-81772354D01*
X135365215Y-81801379D01*
X135366122Y-81802174D01*
X135382333Y-81816535D01*
X135389068Y-81822502D01*
X135528940Y-81895913D01*
X135682320Y-81933717D01*
X135682321Y-81933717D01*
X135840291Y-81933717D01*
X135957131Y-81904919D01*
X136026932Y-81907988D01*
X136083994Y-81948308D01*
X136110200Y-82013077D01*
X136110805Y-82025316D01*
X136110805Y-83717367D01*
X136091120Y-83784406D01*
X136038316Y-83830161D01*
X136027761Y-83834408D01*
X135998423Y-83844674D01*
X135889155Y-83925317D01*
X135808512Y-84034584D01*
X135808511Y-84034586D01*
X135763658Y-84162765D01*
X135763658Y-84162767D01*
X135760805Y-84193197D01*
X135760805Y-84701736D01*
X135763658Y-84732166D01*
X135763658Y-84732168D01*
X135808511Y-84860347D01*
X135808512Y-84860349D01*
X135889155Y-84969617D01*
X135973309Y-85031725D01*
X136015559Y-85087372D01*
X136021018Y-85157029D01*
X135987950Y-85218578D01*
X135936568Y-85249879D01*
X135921910Y-85254446D01*
X135921909Y-85254447D01*
X135776427Y-85342394D01*
X135656232Y-85462589D01*
X135568285Y-85608071D01*
X135517714Y-85770360D01*
X135511305Y-85840894D01*
X135511305Y-85847467D01*
X137449387Y-85847467D01*
X137461497Y-85851023D01*
X138272282Y-85851023D01*
X138339321Y-85870708D01*
X138385076Y-85923512D01*
X138396282Y-85975023D01*
X138396282Y-87001022D01*
X138477863Y-87001022D01*
X138548384Y-86994614D01*
X138548389Y-86994613D01*
X138710678Y-86944041D01*
X138856159Y-86856095D01*
X138976354Y-86735900D01*
X139035838Y-86637502D01*
X139087366Y-86590315D01*
X139156225Y-86578476D01*
X139220554Y-86605745D01*
X139258996Y-86660696D01*
X139276207Y-86709882D01*
X139356850Y-86819150D01*
X139466118Y-86899793D01*
X139508845Y-86914744D01*
X139594299Y-86944646D01*
X139624730Y-86947500D01*
X139624734Y-86947500D01*
X140283270Y-86947500D01*
X140313699Y-86944646D01*
X140313701Y-86944646D01*
X140380710Y-86921198D01*
X140441882Y-86899793D01*
X140551150Y-86819150D01*
X140631793Y-86709882D01*
X140668232Y-86605745D01*
X140676646Y-86581701D01*
X140676646Y-86581699D01*
X140679500Y-86551269D01*
X140679500Y-86042730D01*
X140676646Y-86012300D01*
X140676646Y-86012298D01*
X140649734Y-85935391D01*
X140631793Y-85884118D01*
X140631789Y-85884112D01*
X140627957Y-85876861D01*
X140614036Y-85808393D01*
X140639341Y-85743267D01*
X140688167Y-85707027D01*
X140687724Y-85706182D01*
X140693126Y-85703346D01*
X140693627Y-85702975D01*
X140694350Y-85702699D01*
X140694365Y-85702696D01*
X140834240Y-85629283D01*
X140952483Y-85524530D01*
X141042220Y-85394523D01*
X141098237Y-85246818D01*
X141117278Y-85090000D01*
X141116885Y-85086759D01*
X141098237Y-84933181D01*
X141070487Y-84860011D01*
X141042220Y-84785477D01*
X140952483Y-84655470D01*
X140834240Y-84550717D01*
X140834238Y-84550716D01*
X140834237Y-84550715D01*
X140694365Y-84477303D01*
X140540986Y-84439500D01*
X140540985Y-84439500D01*
X140440495Y-84439500D01*
X140373456Y-84419815D01*
X140327701Y-84367011D01*
X140317757Y-84297853D01*
X140346782Y-84234297D01*
X140352814Y-84227819D01*
X140787446Y-83793187D01*
X141223933Y-83356699D01*
X141285254Y-83323216D01*
X141354945Y-83328200D01*
X141410879Y-83370072D01*
X141413660Y-83373939D01*
X141495517Y-83492530D01*
X141613760Y-83597283D01*
X141613762Y-83597284D01*
X141753634Y-83670696D01*
X141907014Y-83708500D01*
X141907015Y-83708500D01*
X142064985Y-83708500D01*
X142218365Y-83670696D01*
X142301065Y-83627291D01*
X142358240Y-83597283D01*
X142476483Y-83492530D01*
X142495335Y-83465218D01*
X142508450Y-83446218D01*
X142562732Y-83402227D01*
X142632181Y-83394567D01*
X142694746Y-83425670D01*
X142730563Y-83485660D01*
X142734500Y-83516657D01*
X142734500Y-83658784D01*
X142714815Y-83725823D01*
X142668129Y-83768578D01*
X142643189Y-83781669D01*
X142629758Y-83788718D01*
X142511516Y-83893471D01*
X142421781Y-84023475D01*
X142421780Y-84023476D01*
X142365762Y-84171181D01*
X142346722Y-84327999D01*
X142346722Y-84328000D01*
X142365762Y-84484818D01*
X142416652Y-84619001D01*
X142421780Y-84632523D01*
X142511517Y-84762530D01*
X142629760Y-84867283D01*
X142629762Y-84867284D01*
X142769634Y-84940696D01*
X142923014Y-84978500D01*
X142923015Y-84978500D01*
X143080985Y-84978500D01*
X143234365Y-84940696D01*
X143374240Y-84867283D01*
X143492483Y-84762530D01*
X143582220Y-84632523D01*
X143620509Y-84531563D01*
X143662687Y-84475860D01*
X143728285Y-84451803D01*
X143736451Y-84451534D01*
X143813135Y-84451534D01*
X143880174Y-84471219D01*
X143900816Y-84487853D01*
X146959486Y-87546523D01*
X146992971Y-87607846D01*
X146995805Y-87634204D01*
X146995805Y-88636044D01*
X146976120Y-88703083D01*
X146923316Y-88748838D01*
X146916600Y-88751670D01*
X146878676Y-88766361D01*
X146878664Y-88766367D01*
X146705265Y-88873731D01*
X146705263Y-88873733D01*
X146554542Y-89011132D01*
X146431632Y-89173892D01*
X146340727Y-89356453D01*
X146340722Y-89356466D01*
X146284907Y-89552631D01*
X146266090Y-89755713D01*
X146266090Y-89755714D01*
X146284907Y-89958796D01*
X146340722Y-90154961D01*
X146340727Y-90154974D01*
X146431632Y-90337535D01*
X146554542Y-90500295D01*
X146705263Y-90637694D01*
X146705265Y-90637696D01*
X146804446Y-90699106D01*
X146878668Y-90745062D01*
X147068849Y-90818738D01*
X147269329Y-90856214D01*
X147269331Y-90856214D01*
X147473279Y-90856214D01*
X147473281Y-90856214D01*
X147673761Y-90818738D01*
X147863942Y-90745062D01*
X148037346Y-90637695D01*
X148188069Y-90500293D01*
X148310978Y-90337535D01*
X148401887Y-90154964D01*
X148457702Y-89958797D01*
X148476520Y-89755714D01*
X148806090Y-89755714D01*
X148824907Y-89958796D01*
X148880722Y-90154961D01*
X148880727Y-90154974D01*
X148971632Y-90337535D01*
X149094542Y-90500295D01*
X149245263Y-90637694D01*
X149245265Y-90637696D01*
X149344446Y-90699106D01*
X149418668Y-90745062D01*
X149456598Y-90759756D01*
X149511999Y-90802326D01*
X149535591Y-90868092D01*
X149535805Y-90875382D01*
X149535805Y-91861108D01*
X149516120Y-91928147D01*
X149463316Y-91973902D01*
X149452768Y-91978146D01*
X149448528Y-91979630D01*
X149444021Y-91981207D01*
X149334754Y-92061850D01*
X149254111Y-92171117D01*
X149254110Y-92171119D01*
X149209257Y-92299298D01*
X149209257Y-92299300D01*
X149206404Y-92329730D01*
X149206404Y-92838269D01*
X149209257Y-92868699D01*
X149209257Y-92868701D01*
X149254110Y-92996880D01*
X149254111Y-92996882D01*
X149334754Y-93106150D01*
X149418908Y-93168258D01*
X149461158Y-93223905D01*
X149466617Y-93293562D01*
X149433549Y-93355111D01*
X149382167Y-93386412D01*
X149367509Y-93390979D01*
X149367508Y-93390980D01*
X149222026Y-93478927D01*
X149101831Y-93599122D01*
X149013884Y-93744604D01*
X148963313Y-93906893D01*
X148956904Y-93977427D01*
X148956904Y-93984000D01*
X150906903Y-93984000D01*
X150906903Y-93977417D01*
X150900495Y-93906897D01*
X150900494Y-93906892D01*
X150849922Y-93744603D01*
X150761976Y-93599122D01*
X150641781Y-93478927D01*
X150496301Y-93390981D01*
X150481641Y-93386413D01*
X150423494Y-93347674D01*
X150395521Y-93283649D01*
X150406603Y-93214664D01*
X150444897Y-93168259D01*
X150529054Y-93106150D01*
X150609697Y-92996882D01*
X150639189Y-92912599D01*
X150654550Y-92868701D01*
X150654550Y-92868699D01*
X150657404Y-92838269D01*
X150657404Y-92329730D01*
X150654550Y-92299300D01*
X150654550Y-92299298D01*
X150614349Y-92184414D01*
X150609697Y-92171118D01*
X150529054Y-92061850D01*
X150419786Y-91981207D01*
X150411047Y-91978149D01*
X150369849Y-91963733D01*
X150313073Y-91923011D01*
X150287327Y-91858058D01*
X150286805Y-91846692D01*
X150286805Y-90875382D01*
X150306490Y-90808343D01*
X150359294Y-90762588D01*
X150365984Y-90759766D01*
X150403942Y-90745062D01*
X150577346Y-90637695D01*
X150728069Y-90500293D01*
X150850978Y-90337535D01*
X150941887Y-90154964D01*
X150997702Y-89958797D01*
X151016520Y-89755714D01*
X150997702Y-89552631D01*
X150941887Y-89356464D01*
X150922225Y-89316978D01*
X150897577Y-89267478D01*
X150850978Y-89173893D01*
X150757708Y-89050383D01*
X150728067Y-89011132D01*
X150577346Y-88873733D01*
X150577344Y-88873731D01*
X150403947Y-88766369D01*
X150403944Y-88766367D01*
X150403942Y-88766366D01*
X150403941Y-88766365D01*
X150403940Y-88766365D01*
X150286804Y-88720987D01*
X150213761Y-88692690D01*
X150013281Y-88655214D01*
X149809329Y-88655214D01*
X149608849Y-88692690D01*
X149608846Y-88692690D01*
X149608846Y-88692691D01*
X149418669Y-88766365D01*
X149418662Y-88766369D01*
X149245265Y-88873731D01*
X149245263Y-88873733D01*
X149094542Y-89011132D01*
X148971632Y-89173892D01*
X148880727Y-89356453D01*
X148880722Y-89356466D01*
X148824907Y-89552631D01*
X148806090Y-89755713D01*
X148806090Y-89755714D01*
X148476520Y-89755714D01*
X148457702Y-89552631D01*
X148401887Y-89356464D01*
X148382225Y-89316978D01*
X148357577Y-89267478D01*
X148310978Y-89173893D01*
X148217708Y-89050383D01*
X148188067Y-89011132D01*
X148037346Y-88873733D01*
X148037344Y-88873731D01*
X147863945Y-88766367D01*
X147863933Y-88766361D01*
X147826010Y-88751670D01*
X147770609Y-88709097D01*
X147747019Y-88643330D01*
X147746805Y-88636044D01*
X147746805Y-87479108D01*
X147749444Y-87453663D01*
X147749482Y-87453480D01*
X147751672Y-87443037D01*
X147747757Y-87411628D01*
X147746805Y-87396290D01*
X147746805Y-87396194D01*
X147746805Y-87396191D01*
X147743380Y-87375674D01*
X147742646Y-87370630D01*
X147739353Y-87344207D01*
X147736171Y-87318679D01*
X147736169Y-87318675D01*
X147733927Y-87311145D01*
X147731370Y-87303700D01*
X147731370Y-87303695D01*
X147706453Y-87257653D01*
X147704133Y-87253145D01*
X147681131Y-87206094D01*
X147681130Y-87206093D01*
X147681130Y-87206092D01*
X147676572Y-87199709D01*
X147671723Y-87193478D01*
X147668757Y-87190748D01*
X147633196Y-87158011D01*
X147629522Y-87154485D01*
X147041218Y-86566181D01*
X147007733Y-86504858D01*
X147012717Y-86435166D01*
X147054589Y-86379233D01*
X147120053Y-86354816D01*
X147128899Y-86354500D01*
X148764101Y-86354500D01*
X148831140Y-86374185D01*
X148851782Y-86390819D01*
X151395118Y-88934155D01*
X151411247Y-88954016D01*
X151417185Y-88963105D01*
X151442159Y-88982543D01*
X151453691Y-88992728D01*
X151453753Y-88992790D01*
X151470667Y-89004867D01*
X151474773Y-89007929D01*
X151516075Y-89040075D01*
X151516078Y-89040077D01*
X151516080Y-89040078D01*
X151516081Y-89040078D01*
X151523004Y-89043824D01*
X151530071Y-89047280D01*
X151580229Y-89062212D01*
X151585102Y-89063773D01*
X151594917Y-89067142D01*
X151634606Y-89080769D01*
X151642370Y-89082064D01*
X151650180Y-89083037D01*
X151650181Y-89083038D01*
X151650181Y-89083037D01*
X151650182Y-89083038D01*
X151702476Y-89080875D01*
X151707601Y-89080769D01*
X154193512Y-89080769D01*
X154260551Y-89100454D01*
X154306306Y-89153258D01*
X154317512Y-89204769D01*
X154317512Y-90704947D01*
X154332044Y-90778004D01*
X154332045Y-90778008D01*
X154332046Y-90778009D01*
X154387411Y-90860870D01*
X154465692Y-90913175D01*
X154470272Y-90916235D01*
X154470276Y-90916236D01*
X154543333Y-90930768D01*
X154543336Y-90930769D01*
X154543338Y-90930769D01*
X154918512Y-90930769D01*
X154985551Y-90950454D01*
X155031306Y-91003258D01*
X155042512Y-91054769D01*
X155042512Y-91860512D01*
X155022827Y-91927551D01*
X154970023Y-91973306D01*
X154959467Y-91977553D01*
X154949026Y-91981206D01*
X154839757Y-92061850D01*
X154759114Y-92171117D01*
X154759113Y-92171119D01*
X154714260Y-92299298D01*
X154714260Y-92299300D01*
X154711407Y-92329730D01*
X154711407Y-92838269D01*
X154714260Y-92868699D01*
X154714260Y-92868701D01*
X154759113Y-92996880D01*
X154759114Y-92996882D01*
X154839757Y-93106150D01*
X154923911Y-93168258D01*
X154966161Y-93223905D01*
X154971620Y-93293562D01*
X154938552Y-93355111D01*
X154887170Y-93386412D01*
X154872512Y-93390979D01*
X154872511Y-93390980D01*
X154727029Y-93478927D01*
X154606834Y-93599122D01*
X154518887Y-93744604D01*
X154468316Y-93906893D01*
X154461907Y-93977427D01*
X154461907Y-93984000D01*
X156411906Y-93984000D01*
X156411906Y-93977417D01*
X156405498Y-93906897D01*
X156405497Y-93906892D01*
X156354925Y-93744603D01*
X156266979Y-93599122D01*
X156146784Y-93478927D01*
X156001304Y-93390981D01*
X155986644Y-93386413D01*
X155928497Y-93347674D01*
X155900524Y-93283649D01*
X155911606Y-93214664D01*
X155949900Y-93168259D01*
X156034057Y-93106150D01*
X156114700Y-92996882D01*
X156144192Y-92912599D01*
X156159553Y-92868701D01*
X156159553Y-92868699D01*
X156162407Y-92838269D01*
X156162407Y-92329730D01*
X156159553Y-92299300D01*
X156159553Y-92299298D01*
X156119352Y-92184414D01*
X156114700Y-92171118D01*
X156034057Y-92061850D01*
X155924789Y-91981207D01*
X155885945Y-91967615D01*
X155876555Y-91964329D01*
X155819780Y-91923606D01*
X155794034Y-91858653D01*
X155793512Y-91847288D01*
X155793512Y-91054769D01*
X155813197Y-90987730D01*
X155866001Y-90941975D01*
X155917512Y-90930769D01*
X156292688Y-90930769D01*
X156292689Y-90930768D01*
X156365752Y-90916235D01*
X156448613Y-90860870D01*
X156503978Y-90778009D01*
X156518512Y-90704943D01*
X156518512Y-89221168D01*
X156538197Y-89154129D01*
X156591001Y-89108374D01*
X156660159Y-89098430D01*
X156723715Y-89127455D01*
X156730193Y-89133487D01*
X156898301Y-89301595D01*
X156931786Y-89362918D01*
X156927343Y-89425034D01*
X156928998Y-89425505D01*
X156871615Y-89627184D01*
X156871614Y-89627186D01*
X156852797Y-89830268D01*
X156852797Y-89830269D01*
X156871614Y-90033351D01*
X156927429Y-90229516D01*
X156927434Y-90229529D01*
X157018339Y-90412090D01*
X157141249Y-90574850D01*
X157291970Y-90712249D01*
X157291972Y-90712251D01*
X157344958Y-90745058D01*
X157465375Y-90819617D01*
X157655556Y-90893293D01*
X157856036Y-90930769D01*
X157856038Y-90930769D01*
X158059986Y-90930769D01*
X158059988Y-90930769D01*
X158260468Y-90893293D01*
X158450649Y-90819617D01*
X158624053Y-90712250D01*
X158774776Y-90574848D01*
X158897685Y-90412090D01*
X158988594Y-90229519D01*
X159044409Y-90033352D01*
X159063227Y-89830269D01*
X159392797Y-89830269D01*
X159411614Y-90033351D01*
X159467429Y-90229516D01*
X159467434Y-90229529D01*
X159558339Y-90412090D01*
X159681249Y-90574850D01*
X159831970Y-90712249D01*
X159831972Y-90712251D01*
X159884958Y-90745058D01*
X160005375Y-90819617D01*
X160043305Y-90834311D01*
X160098706Y-90876881D01*
X160122298Y-90942647D01*
X160122512Y-90949937D01*
X160122512Y-91864393D01*
X160102827Y-91931432D01*
X160050023Y-91977187D01*
X160040391Y-91981062D01*
X160040120Y-91981205D01*
X159930850Y-92061850D01*
X159850207Y-92171117D01*
X159850206Y-92171119D01*
X159805353Y-92299298D01*
X159805353Y-92299300D01*
X159802500Y-92329730D01*
X159802500Y-92838269D01*
X159805353Y-92868699D01*
X159805353Y-92868701D01*
X159850206Y-92996880D01*
X159850207Y-92996882D01*
X159930850Y-93106150D01*
X160015004Y-93168258D01*
X160057254Y-93223905D01*
X160062713Y-93293562D01*
X160029645Y-93355111D01*
X159978263Y-93386412D01*
X159963605Y-93390979D01*
X159963604Y-93390980D01*
X159818122Y-93478927D01*
X159697927Y-93599122D01*
X159609980Y-93744604D01*
X159559409Y-93906893D01*
X159553000Y-93977427D01*
X159553000Y-93984000D01*
X161502999Y-93984000D01*
X161502999Y-93977417D01*
X161496591Y-93906897D01*
X161496590Y-93906892D01*
X161446018Y-93744603D01*
X161358072Y-93599122D01*
X161237877Y-93478927D01*
X161092397Y-93390981D01*
X161077737Y-93386413D01*
X161019590Y-93347674D01*
X160991617Y-93283649D01*
X161002699Y-93214664D01*
X161040993Y-93168259D01*
X161125150Y-93106150D01*
X161205793Y-92996882D01*
X161235285Y-92912599D01*
X161247561Y-92877517D01*
X165903001Y-92877517D01*
X165903001Y-92900839D01*
X165913144Y-93000124D01*
X165966452Y-93160998D01*
X165966457Y-93161009D01*
X166055424Y-93305245D01*
X166055427Y-93305249D01*
X166175267Y-93425089D01*
X166175271Y-93425092D01*
X166319507Y-93514059D01*
X166319518Y-93514064D01*
X166480393Y-93567372D01*
X166579683Y-93577516D01*
X166627999Y-93577515D01*
X166628000Y-93577515D01*
X166628000Y-92877517D01*
X167128000Y-92877517D01*
X167128000Y-93577516D01*
X167176308Y-93577516D01*
X167176322Y-93577515D01*
X167275607Y-93567372D01*
X167436481Y-93514064D01*
X167436492Y-93514059D01*
X167580728Y-93425092D01*
X167580732Y-93425089D01*
X167673439Y-93332383D01*
X167734762Y-93298898D01*
X167804454Y-93303882D01*
X167848801Y-93332383D01*
X167953267Y-93436849D01*
X167953271Y-93436852D01*
X168097507Y-93525819D01*
X168097518Y-93525824D01*
X168258393Y-93579132D01*
X168357683Y-93589276D01*
X168405999Y-93589275D01*
X168406000Y-93589275D01*
X168406000Y-92889277D01*
X168906000Y-92889277D01*
X168906000Y-93589276D01*
X168954308Y-93589276D01*
X168954322Y-93589275D01*
X169053607Y-93579132D01*
X169214481Y-93525824D01*
X169214492Y-93525819D01*
X169358728Y-93436852D01*
X169358732Y-93436849D01*
X169478572Y-93317009D01*
X169478575Y-93317005D01*
X169567542Y-93172769D01*
X169567547Y-93172758D01*
X169620855Y-93011883D01*
X169630999Y-92912599D01*
X169631000Y-92912586D01*
X169631000Y-92889277D01*
X168906000Y-92889277D01*
X168406000Y-92889277D01*
X167701122Y-92889277D01*
X167661072Y-92877517D01*
X167128000Y-92877517D01*
X166628000Y-92877517D01*
X165903001Y-92877517D01*
X161247561Y-92877517D01*
X161250646Y-92868701D01*
X161250646Y-92868699D01*
X161253500Y-92838269D01*
X161253500Y-92329730D01*
X161250646Y-92299300D01*
X161250646Y-92299298D01*
X161210445Y-92184414D01*
X161205793Y-92171118D01*
X161125150Y-92061850D01*
X161015882Y-91981207D01*
X161015880Y-91981206D01*
X160956557Y-91960448D01*
X160899781Y-91919726D01*
X160874034Y-91854773D01*
X160873512Y-91843407D01*
X160873512Y-90949937D01*
X160893197Y-90882898D01*
X160946001Y-90837143D01*
X160952691Y-90834321D01*
X160990649Y-90819617D01*
X161164053Y-90712250D01*
X161314776Y-90574848D01*
X161437685Y-90412090D01*
X161528594Y-90229519D01*
X161584409Y-90033352D01*
X161603227Y-89830269D01*
X161594644Y-89737639D01*
X164082500Y-89737639D01*
X164083963Y-89764934D01*
X164083967Y-89764988D01*
X164086797Y-89791310D01*
X164086798Y-89791312D01*
X164116586Y-89886441D01*
X164116590Y-89886451D01*
X164150068Y-89947761D01*
X164150073Y-89947769D01*
X164193649Y-90005980D01*
X164193665Y-90005998D01*
X166017390Y-91829722D01*
X166050875Y-91891045D01*
X166045891Y-91960737D01*
X166035248Y-91982500D01*
X165966454Y-92094030D01*
X165966452Y-92094035D01*
X165913144Y-92254910D01*
X165903000Y-92354194D01*
X165903000Y-92377517D01*
X167832878Y-92377517D01*
X167872928Y-92389277D01*
X169630999Y-92389277D01*
X169630999Y-92365969D01*
X169630998Y-92365956D01*
X169628357Y-92340103D01*
X169641126Y-92271410D01*
X169689006Y-92220525D01*
X169751715Y-92203500D01*
X170022806Y-92203500D01*
X170089845Y-92223185D01*
X170110487Y-92239819D01*
X170517181Y-92646513D01*
X170550666Y-92707836D01*
X170553500Y-92734194D01*
X170553500Y-93629674D01*
X170553500Y-93629676D01*
X170553499Y-93629676D01*
X170568033Y-93702738D01*
X170568035Y-93702743D01*
X170568951Y-93704114D01*
X170579645Y-93727516D01*
X170580813Y-93727033D01*
X170583782Y-93734200D01*
X170633108Y-93820822D01*
X170633110Y-93820825D01*
X170633112Y-93820828D01*
X170657067Y-93848473D01*
X170678863Y-93873628D01*
X170678866Y-93873631D01*
X170678867Y-93873632D01*
X170711641Y-93905257D01*
X170799976Y-93951465D01*
X170799977Y-93951465D01*
X170799977Y-93951466D01*
X170850105Y-93966184D01*
X170867015Y-93971150D01*
X170867019Y-93971150D01*
X170867021Y-93971151D01*
X170878652Y-93972823D01*
X170939000Y-93981500D01*
X170939001Y-93981500D01*
X172668639Y-93981500D01*
X172670075Y-93981422D01*
X172695952Y-93980036D01*
X172722310Y-93977202D01*
X172817444Y-93947413D01*
X172878767Y-93913928D01*
X172936985Y-93870347D01*
X173118347Y-93688985D01*
X173136626Y-93668635D01*
X173153260Y-93647993D01*
X173199465Y-93559662D01*
X173219150Y-93492623D01*
X173229500Y-93420638D01*
X173229500Y-92564491D01*
X176104000Y-92564491D01*
X176119147Y-92742450D01*
X176119148Y-92742453D01*
X176179197Y-92973078D01*
X176277360Y-93190241D01*
X176277362Y-93190244D01*
X176410812Y-93387688D01*
X176410814Y-93387690D01*
X176575706Y-93559736D01*
X176767316Y-93701450D01*
X176980115Y-93808741D01*
X177207987Y-93878526D01*
X177207985Y-93878526D01*
X177254000Y-93884418D01*
X177254000Y-92820686D01*
X177265955Y-92832641D01*
X177378852Y-92890165D01*
X177504000Y-92909986D01*
X177629148Y-92890165D01*
X177742045Y-92832641D01*
X177754000Y-92820686D01*
X177754000Y-93883264D01*
X177915434Y-93848473D01*
X178136562Y-93759616D01*
X178339494Y-93634666D01*
X178518389Y-93477219D01*
X178518396Y-93477213D01*
X178668102Y-93291805D01*
X178668109Y-93291795D01*
X178784331Y-93083751D01*
X178863722Y-92859052D01*
X178863726Y-92859038D01*
X178903999Y-92624167D01*
X178904000Y-92624156D01*
X178904000Y-91655000D01*
X177904000Y-91655000D01*
X177904000Y-91155000D01*
X178904000Y-91155000D01*
X178904000Y-90245527D01*
X178903999Y-90245508D01*
X178888852Y-90067549D01*
X178888851Y-90067546D01*
X178828802Y-89836921D01*
X178730639Y-89619758D01*
X178730637Y-89619755D01*
X178597187Y-89422311D01*
X178597185Y-89422309D01*
X178432293Y-89250263D01*
X178240683Y-89108549D01*
X178027884Y-89001257D01*
X177800020Y-88931475D01*
X177754000Y-88925581D01*
X177754000Y-89989314D01*
X177742045Y-89977359D01*
X177629148Y-89919835D01*
X177504000Y-89900014D01*
X177378852Y-89919835D01*
X177265955Y-89977359D01*
X177254000Y-89989314D01*
X177254000Y-88926734D01*
X177253999Y-88926734D01*
X177092566Y-88961525D01*
X176871437Y-89050383D01*
X176668505Y-89175333D01*
X176489610Y-89332780D01*
X176489603Y-89332786D01*
X176339897Y-89518194D01*
X176339890Y-89518204D01*
X176223668Y-89726248D01*
X176144277Y-89950947D01*
X176144273Y-89950961D01*
X176104000Y-90185832D01*
X176104000Y-91155000D01*
X177104000Y-91155000D01*
X177104000Y-91655000D01*
X176104000Y-91655000D01*
X176104000Y-92564491D01*
X173229500Y-92564491D01*
X173229500Y-89078362D01*
X173228036Y-89051048D01*
X173225202Y-89024690D01*
X173195413Y-88929556D01*
X173193242Y-88925581D01*
X173161931Y-88868238D01*
X173161926Y-88868230D01*
X173118350Y-88810019D01*
X173118349Y-88810018D01*
X173118347Y-88810015D01*
X173118342Y-88810010D01*
X173118334Y-88810001D01*
X172174998Y-87866666D01*
X172174985Y-87866653D01*
X172154635Y-87848374D01*
X172154629Y-87848369D01*
X172154620Y-87848361D01*
X172133999Y-87831744D01*
X172133996Y-87831742D01*
X172133993Y-87831740D01*
X172045662Y-87785535D01*
X172045659Y-87785534D01*
X171978624Y-87765850D01*
X171978616Y-87765848D01*
X171906639Y-87755500D01*
X171906638Y-87755500D01*
X164462000Y-87755500D01*
X164461997Y-87755500D01*
X164407687Y-87761338D01*
X164356181Y-87772543D01*
X164356172Y-87772546D01*
X164329807Y-87779779D01*
X164329796Y-87779783D01*
X164243181Y-87829105D01*
X164243173Y-87829111D01*
X164190371Y-87874863D01*
X164158743Y-87907640D01*
X164112534Y-87995977D01*
X164112533Y-87995977D01*
X164092851Y-88063009D01*
X164092848Y-88063021D01*
X164082500Y-88134998D01*
X164082500Y-89737639D01*
X161594644Y-89737639D01*
X161584409Y-89627186D01*
X161528594Y-89431019D01*
X161525848Y-89425505D01*
X161464149Y-89301595D01*
X161437685Y-89248448D01*
X161350871Y-89133487D01*
X161314774Y-89085687D01*
X161164053Y-88948288D01*
X161164051Y-88948286D01*
X160990654Y-88840924D01*
X160990647Y-88840920D01*
X160890564Y-88802148D01*
X160800468Y-88767245D01*
X160599988Y-88729769D01*
X160396036Y-88729769D01*
X160195556Y-88767245D01*
X160195553Y-88767245D01*
X160195553Y-88767246D01*
X160005376Y-88840920D01*
X160005369Y-88840924D01*
X159831972Y-88948286D01*
X159831970Y-88948288D01*
X159681249Y-89085687D01*
X159558339Y-89248447D01*
X159467434Y-89431008D01*
X159467429Y-89431021D01*
X159411614Y-89627186D01*
X159392797Y-89830268D01*
X159392797Y-89830269D01*
X159063227Y-89830269D01*
X159044409Y-89627186D01*
X158988594Y-89431019D01*
X158985848Y-89425505D01*
X158924149Y-89301595D01*
X158897685Y-89248448D01*
X158810871Y-89133487D01*
X158774774Y-89085687D01*
X158624053Y-88948288D01*
X158624051Y-88948286D01*
X158450654Y-88840924D01*
X158450647Y-88840920D01*
X158350564Y-88802148D01*
X158260468Y-88767245D01*
X158059988Y-88729769D01*
X157856036Y-88729769D01*
X157704751Y-88758048D01*
X157655550Y-88767246D01*
X157565457Y-88802148D01*
X157495833Y-88808009D01*
X157434093Y-88775299D01*
X157432983Y-88774202D01*
X157135161Y-88476380D01*
X157119034Y-88456521D01*
X157113098Y-88447436D01*
X157113097Y-88447435D01*
X157113096Y-88447433D01*
X157088121Y-88427994D01*
X157076603Y-88417822D01*
X157076527Y-88417746D01*
X157059607Y-88405667D01*
X157055491Y-88402598D01*
X157014201Y-88370459D01*
X157007286Y-88366717D01*
X157000209Y-88363257D01*
X156950055Y-88348325D01*
X156945179Y-88346763D01*
X156895674Y-88329769D01*
X156887935Y-88328477D01*
X156880097Y-88327500D01*
X156829213Y-88329605D01*
X156827818Y-88329663D01*
X156822696Y-88329769D01*
X151904168Y-88329769D01*
X151837129Y-88310084D01*
X151816487Y-88293450D01*
X150234648Y-86711610D01*
X172453500Y-86711610D01*
X172492679Y-86921198D01*
X172569702Y-87120019D01*
X172681948Y-87301302D01*
X172768454Y-87396194D01*
X172825593Y-87458872D01*
X172995746Y-87587367D01*
X173186606Y-87682403D01*
X173186608Y-87682403D01*
X173186611Y-87682405D01*
X173391690Y-87740756D01*
X173550806Y-87755500D01*
X173550810Y-87755500D01*
X175857190Y-87755500D01*
X175857194Y-87755500D01*
X176016310Y-87740756D01*
X176221389Y-87682405D01*
X176221393Y-87682403D01*
X176221394Y-87682403D01*
X176412253Y-87587367D01*
X176412253Y-87587366D01*
X176412255Y-87587366D01*
X176582407Y-87458872D01*
X176726052Y-87301302D01*
X176838298Y-87120019D01*
X176915321Y-86921198D01*
X176954500Y-86711610D01*
X176954500Y-86498390D01*
X176915321Y-86288802D01*
X176838298Y-86089981D01*
X176726052Y-85908698D01*
X176582407Y-85751128D01*
X176582406Y-85751127D01*
X176412253Y-85622632D01*
X176221393Y-85527596D01*
X176016310Y-85469244D01*
X175857194Y-85454500D01*
X173550806Y-85454500D01*
X173423513Y-85466295D01*
X173391689Y-85469244D01*
X173186607Y-85527596D01*
X173186605Y-85527596D01*
X172995746Y-85622632D01*
X172825593Y-85751127D01*
X172681947Y-85908699D01*
X172569702Y-86089980D01*
X172569701Y-86089982D01*
X172492680Y-86288799D01*
X172492679Y-86288802D01*
X172453500Y-86498390D01*
X172453500Y-86711610D01*
X150234648Y-86711610D01*
X149273149Y-85750111D01*
X149257022Y-85730252D01*
X149251086Y-85721167D01*
X149251085Y-85721166D01*
X149251084Y-85721164D01*
X149226109Y-85701725D01*
X149214591Y-85691553D01*
X149214515Y-85691477D01*
X149197595Y-85679398D01*
X149193479Y-85676329D01*
X149152189Y-85644190D01*
X149145274Y-85640448D01*
X149138197Y-85636988D01*
X149088043Y-85622056D01*
X149083167Y-85620494D01*
X149033662Y-85603500D01*
X149025923Y-85602208D01*
X149018085Y-85601231D01*
X148967201Y-85603336D01*
X148965806Y-85603394D01*
X148960684Y-85603500D01*
X146706558Y-85603500D01*
X146639519Y-85583815D01*
X146618877Y-85567181D01*
X145741340Y-84689644D01*
X145707855Y-84628321D01*
X145712839Y-84558629D01*
X145754711Y-84502696D01*
X145790018Y-84484257D01*
X145846479Y-84465548D01*
X145846492Y-84465542D01*
X145990728Y-84376575D01*
X145990732Y-84376572D01*
X146110572Y-84256732D01*
X146110575Y-84256728D01*
X146199542Y-84112492D01*
X146199547Y-84112481D01*
X146252855Y-83951606D01*
X146262999Y-83852322D01*
X146263000Y-83852309D01*
X146263000Y-83829000D01*
X145162000Y-83829000D01*
X145094961Y-83809315D01*
X145049206Y-83756511D01*
X145038000Y-83705000D01*
X145038000Y-83453000D01*
X145057685Y-83385961D01*
X145110489Y-83340206D01*
X145162000Y-83329000D01*
X146262999Y-83329000D01*
X146262999Y-83305692D01*
X146262998Y-83305677D01*
X146252855Y-83206392D01*
X146199547Y-83045518D01*
X146199542Y-83045507D01*
X146110575Y-82901271D01*
X146110572Y-82901267D01*
X145990732Y-82781427D01*
X145990728Y-82781424D01*
X145932730Y-82745650D01*
X145886005Y-82693702D01*
X145874784Y-82624739D01*
X145898558Y-82565805D01*
X145959628Y-82484226D01*
X146007412Y-82356114D01*
X146010627Y-82326208D01*
X146013499Y-82299501D01*
X146013499Y-82299494D01*
X146013500Y-82299485D01*
X146013499Y-81758516D01*
X146007412Y-81701886D01*
X146004218Y-81693324D01*
X145983674Y-81638244D01*
X145959628Y-81573774D01*
X145877687Y-81464313D01*
X145801604Y-81407358D01*
X145768228Y-81382373D01*
X145768226Y-81382372D01*
X145640114Y-81334588D01*
X145640112Y-81334587D01*
X145640110Y-81334587D01*
X145583493Y-81328500D01*
X144992518Y-81328500D01*
X144992509Y-81328501D01*
X144935887Y-81334587D01*
X144839930Y-81370378D01*
X144770238Y-81375362D01*
X144708915Y-81341877D01*
X143821819Y-80454781D01*
X143788334Y-80393458D01*
X143785500Y-80367100D01*
X143785500Y-80309177D01*
X143776768Y-80265282D01*
X143776767Y-80265281D01*
X143776767Y-80265278D01*
X143743504Y-80215496D01*
X143743503Y-80215495D01*
X143693724Y-80182234D01*
X143693717Y-80182231D01*
X143649822Y-80173500D01*
X143649820Y-80173500D01*
X143370180Y-80173500D01*
X143370177Y-80173500D01*
X143334191Y-80180658D01*
X143285809Y-80180658D01*
X143249823Y-80173500D01*
X143249820Y-80173500D01*
X142970180Y-80173500D01*
X142970177Y-80173500D01*
X142934191Y-80180658D01*
X142885809Y-80180658D01*
X142849823Y-80173500D01*
X142849820Y-80173500D01*
X142570180Y-80173500D01*
X142570177Y-80173500D01*
X142534191Y-80180658D01*
X142485809Y-80180658D01*
X142449823Y-80173500D01*
X142449820Y-80173500D01*
X142170180Y-80173500D01*
X142170177Y-80173500D01*
X142134191Y-80180658D01*
X142085809Y-80180658D01*
X142049823Y-80173500D01*
X142049820Y-80173500D01*
X141770180Y-80173500D01*
X141770177Y-80173500D01*
X141734191Y-80180658D01*
X141685809Y-80180658D01*
X141649823Y-80173500D01*
X141649820Y-80173500D01*
X141370180Y-80173500D01*
X141370177Y-80173500D01*
X141334191Y-80180658D01*
X141285809Y-80180658D01*
X141249823Y-80173500D01*
X141249820Y-80173500D01*
X140970180Y-80173500D01*
X140970178Y-80173500D01*
X140926282Y-80182231D01*
X140926275Y-80182234D01*
X140876497Y-80215494D01*
X140876496Y-80215496D01*
X140857856Y-80243391D01*
X140804247Y-80288195D01*
X140754756Y-80298500D01*
X140655357Y-80298500D01*
X140588318Y-80278815D01*
X140542563Y-80226011D01*
X140539415Y-80218471D01*
X140538286Y-80215495D01*
X140523465Y-80176413D01*
X140521454Y-80173500D01*
X140449805Y-80069698D01*
X140427922Y-80003344D01*
X140445387Y-79935692D01*
X140449779Y-79928856D01*
X140534220Y-79806523D01*
X140590237Y-79658818D01*
X140609278Y-79502000D01*
X140604439Y-79462142D01*
X140590237Y-79345181D01*
X140559395Y-79263858D01*
X140534220Y-79197477D01*
X140444483Y-79067470D01*
X140444481Y-79067468D01*
X140443190Y-79065597D01*
X140421307Y-78999242D01*
X140438772Y-78931591D01*
X140457554Y-78907481D01*
X141104219Y-78260819D01*
X141165542Y-78227334D01*
X141191900Y-78224500D01*
X141249820Y-78224500D01*
X141285809Y-78217341D01*
X141334191Y-78217341D01*
X141370180Y-78224500D01*
X141649822Y-78224500D01*
X141693717Y-78215768D01*
X141693717Y-78215767D01*
X141693722Y-78215767D01*
X141743504Y-78182504D01*
X141776767Y-78132722D01*
X141778834Y-78122333D01*
X141785500Y-78088822D01*
X141785500Y-78031126D01*
X141805185Y-77964087D01*
X141857989Y-77918332D01*
X141927147Y-77908388D01*
X141990703Y-77937413D01*
X142007359Y-77954971D01*
X142008359Y-77956256D01*
X142033997Y-78021252D01*
X142034500Y-78032411D01*
X142034500Y-78088820D01*
X142034500Y-78088822D01*
X142034499Y-78088822D01*
X142043231Y-78132717D01*
X142043234Y-78132724D01*
X142075832Y-78181510D01*
X142076496Y-78182504D01*
X142126278Y-78215767D01*
X142126281Y-78215767D01*
X142126282Y-78215768D01*
X142170177Y-78224500D01*
X142170180Y-78224500D01*
X142449820Y-78224500D01*
X142485809Y-78217341D01*
X142534191Y-78217341D01*
X142570180Y-78224500D01*
X142849820Y-78224500D01*
X142885809Y-78217341D01*
X142934191Y-78217341D01*
X142970180Y-78224500D01*
X143249820Y-78224500D01*
X143285809Y-78217341D01*
X143334191Y-78217341D01*
X143370180Y-78224500D01*
X143428101Y-78224500D01*
X143495140Y-78244185D01*
X143515781Y-78260818D01*
X143879858Y-78624896D01*
X144223850Y-78968888D01*
X144239975Y-78988744D01*
X144245913Y-78997832D01*
X144245916Y-78997836D01*
X144270893Y-79017276D01*
X144282418Y-79027456D01*
X144282484Y-79027522D01*
X144299397Y-79039597D01*
X144303509Y-79042662D01*
X144330166Y-79063410D01*
X144344811Y-79074809D01*
X144344813Y-79074809D01*
X144351720Y-79078547D01*
X144358798Y-79082008D01*
X144358801Y-79082010D01*
X144408985Y-79096950D01*
X144413778Y-79098485D01*
X144463340Y-79115500D01*
X144463343Y-79115501D01*
X144471072Y-79116790D01*
X144478910Y-79117767D01*
X144478912Y-79117768D01*
X144478913Y-79117767D01*
X144478914Y-79117768D01*
X144517013Y-79116192D01*
X144531193Y-79115605D01*
X144536316Y-79115500D01*
X159275942Y-79115500D01*
X159301387Y-79118139D01*
X159304470Y-79118785D01*
X159312014Y-79120367D01*
X159343422Y-79116451D01*
X159358760Y-79115500D01*
X159358858Y-79115500D01*
X159358860Y-79115500D01*
X159379389Y-79112073D01*
X159384419Y-79111341D01*
X159436372Y-79104866D01*
X159436374Y-79104864D01*
X159443887Y-79102628D01*
X159451352Y-79100066D01*
X159451352Y-79100065D01*
X159451356Y-79100065D01*
X159490016Y-79079143D01*
X159497382Y-79075157D01*
X159501939Y-79072812D01*
X159516848Y-79065522D01*
X159548957Y-79049826D01*
X159548959Y-79049823D01*
X159555340Y-79045268D01*
X159561566Y-79040421D01*
X159561572Y-79040419D01*
X159597039Y-79001890D01*
X159600517Y-78998264D01*
X159883965Y-78714816D01*
X159945287Y-78681334D01*
X159971645Y-78678500D01*
X160369016Y-78678500D01*
X160399445Y-78675646D01*
X160399447Y-78675646D01*
X160463536Y-78653219D01*
X160527628Y-78630793D01*
X160636896Y-78550150D01*
X160657299Y-78522504D01*
X160712943Y-78480255D01*
X160782599Y-78474795D01*
X160844149Y-78507861D01*
X160862606Y-78531040D01*
X160939517Y-78655731D01*
X161059358Y-78775572D01*
X161059362Y-78775575D01*
X161203598Y-78864542D01*
X161203609Y-78864547D01*
X161364484Y-78917855D01*
X161463774Y-78927999D01*
X161512090Y-78927998D01*
X161512091Y-78927998D01*
X161512091Y-78228000D01*
X162012091Y-78228000D01*
X162012091Y-78927999D01*
X162060399Y-78927999D01*
X162060413Y-78927998D01*
X162159698Y-78917855D01*
X162320572Y-78864547D01*
X162320583Y-78864542D01*
X162464819Y-78775575D01*
X162464823Y-78775572D01*
X162584663Y-78655732D01*
X162584666Y-78655728D01*
X162673633Y-78511492D01*
X162673638Y-78511481D01*
X162726946Y-78350606D01*
X162737090Y-78251322D01*
X162737091Y-78251309D01*
X162737091Y-78228000D01*
X162012091Y-78228000D01*
X161512091Y-78228000D01*
X161512091Y-77852000D01*
X161531776Y-77784961D01*
X161584580Y-77739206D01*
X161636091Y-77728000D01*
X162737090Y-77728000D01*
X162763198Y-77701892D01*
X162824521Y-77668407D01*
X162894213Y-77673391D01*
X162938560Y-77701892D01*
X163359015Y-78122347D01*
X163379365Y-78140626D01*
X163379371Y-78140631D01*
X163379379Y-78140638D01*
X163400000Y-78157255D01*
X163400002Y-78157256D01*
X163400007Y-78157260D01*
X163488338Y-78203465D01*
X163555377Y-78223150D01*
X163555381Y-78223150D01*
X163555383Y-78223151D01*
X163564766Y-78224500D01*
X163627362Y-78233500D01*
X163818806Y-78233500D01*
X163885845Y-78253185D01*
X163931600Y-78305989D01*
X163941544Y-78375147D01*
X163912519Y-78438703D01*
X163906487Y-78445181D01*
X163496895Y-78854771D01*
X163496874Y-78854792D01*
X163496870Y-78854797D01*
X163488626Y-78863437D01*
X163480852Y-78871974D01*
X163435072Y-78943000D01*
X163435071Y-78943001D01*
X163407457Y-79007166D01*
X163407453Y-79007178D01*
X163388505Y-79077379D01*
X163388503Y-79077390D01*
X163388153Y-79080279D01*
X163381000Y-79109300D01*
X163357663Y-79170835D01*
X163343771Y-79197304D01*
X163306385Y-79251467D01*
X163286561Y-79273844D01*
X163237301Y-79317483D01*
X163212701Y-79334462D01*
X163154431Y-79365045D01*
X163126481Y-79375646D01*
X163055003Y-79393264D01*
X163029525Y-79399544D01*
X163029523Y-79399544D01*
X163029522Y-79399545D01*
X162965155Y-79425073D01*
X162965154Y-79425074D01*
X162907159Y-79457783D01*
X162907151Y-79457788D01*
X162851996Y-79499670D01*
X162633487Y-79718181D01*
X162572164Y-79751666D01*
X162545806Y-79754500D01*
X158928361Y-79754500D01*
X158901065Y-79755963D01*
X158901060Y-79755963D01*
X158901048Y-79755964D01*
X158901040Y-79755964D01*
X158901011Y-79755967D01*
X158874689Y-79758797D01*
X158874687Y-79758798D01*
X158779558Y-79788586D01*
X158779548Y-79788590D01*
X158718238Y-79822068D01*
X158718230Y-79822073D01*
X158660019Y-79865649D01*
X158660002Y-79865664D01*
X158605667Y-79920000D01*
X158605638Y-79920031D01*
X158587361Y-79940379D01*
X158570744Y-79961000D01*
X158570740Y-79961005D01*
X158570740Y-79961007D01*
X158557298Y-79986704D01*
X158524534Y-80049340D01*
X158504850Y-80116375D01*
X158504848Y-80116383D01*
X158494500Y-80188360D01*
X158494500Y-80308559D01*
X158474815Y-80375598D01*
X158422011Y-80421353D01*
X158352853Y-80431297D01*
X158289297Y-80402272D01*
X158258780Y-80362360D01*
X158195901Y-80231791D01*
X158195897Y-80231783D01*
X158063648Y-80049758D01*
X158063642Y-80049750D01*
X157901013Y-79894262D01*
X157713233Y-79770308D01*
X157506330Y-79681875D01*
X157506323Y-79681873D01*
X157368500Y-79650415D01*
X157368500Y-80939998D01*
X157260815Y-80890820D01*
X157154263Y-80875500D01*
X157082737Y-80875500D01*
X156976185Y-80890820D01*
X156868500Y-80939998D01*
X156868500Y-79647949D01*
X156868499Y-79647949D01*
X156839221Y-79651915D01*
X156625231Y-79721445D01*
X156427098Y-79828065D01*
X156427095Y-79828067D01*
X156251182Y-79968352D01*
X156139070Y-80096675D01*
X156080138Y-80134209D01*
X156010269Y-80133923D01*
X155951645Y-80095909D01*
X155927355Y-80052145D01*
X155927100Y-80051332D01*
X155923413Y-80039556D01*
X155899070Y-79994976D01*
X155889931Y-79978238D01*
X155889926Y-79978230D01*
X155846350Y-79920019D01*
X155846349Y-79920018D01*
X155846347Y-79920015D01*
X155846342Y-79920010D01*
X155846335Y-79920002D01*
X155791999Y-79865667D01*
X155791996Y-79865664D01*
X155791985Y-79865653D01*
X155771635Y-79847374D01*
X155771629Y-79847369D01*
X155771620Y-79847361D01*
X155750999Y-79830744D01*
X155750996Y-79830742D01*
X155750993Y-79830740D01*
X155662662Y-79784535D01*
X155662659Y-79784534D01*
X155595624Y-79764850D01*
X155595616Y-79764848D01*
X155523639Y-79754500D01*
X155523638Y-79754500D01*
X153667000Y-79754500D01*
X153666997Y-79754500D01*
X153612687Y-79760338D01*
X153561181Y-79771543D01*
X153561172Y-79771546D01*
X153534807Y-79778779D01*
X153534796Y-79778783D01*
X153448181Y-79828105D01*
X153448173Y-79828111D01*
X153395371Y-79873863D01*
X153363743Y-79906640D01*
X153317534Y-79994977D01*
X153317533Y-79994977D01*
X153297851Y-80062009D01*
X153297848Y-80062021D01*
X153287500Y-80133998D01*
X153287500Y-84022639D01*
X153288963Y-84049934D01*
X153288967Y-84049988D01*
X153291797Y-84076310D01*
X153291798Y-84076312D01*
X153321586Y-84171441D01*
X153321590Y-84171451D01*
X153355068Y-84232761D01*
X153355073Y-84232769D01*
X153398649Y-84290980D01*
X153398665Y-84290998D01*
X154447902Y-85340234D01*
X155485015Y-86377347D01*
X155505365Y-86395626D01*
X155505371Y-86395631D01*
X155505379Y-86395638D01*
X155526000Y-86412255D01*
X155526002Y-86412256D01*
X155526007Y-86412260D01*
X155614338Y-86458465D01*
X155681377Y-86478150D01*
X155681381Y-86478150D01*
X155681383Y-86478151D01*
X155693014Y-86479823D01*
X155753362Y-86488500D01*
X155753363Y-86488500D01*
X169366639Y-86488500D01*
X169368075Y-86488422D01*
X169393952Y-86487036D01*
X169420310Y-86484202D01*
X169515444Y-86454413D01*
X169576767Y-86420928D01*
X169634985Y-86377347D01*
X169816347Y-86195985D01*
X169834626Y-86175635D01*
X169851260Y-86154993D01*
X169897465Y-86066662D01*
X169917150Y-85999623D01*
X169927500Y-85927638D01*
X169927500Y-84887362D01*
X169926036Y-84860048D01*
X169923202Y-84833690D01*
X169893413Y-84738556D01*
X169876464Y-84707517D01*
X169859931Y-84677238D01*
X169859926Y-84677230D01*
X169816350Y-84619019D01*
X169816349Y-84619018D01*
X169816347Y-84619015D01*
X169816342Y-84619010D01*
X169816334Y-84619001D01*
X169634999Y-84437667D01*
X169634985Y-84437653D01*
X169614635Y-84419374D01*
X169614629Y-84419369D01*
X169614620Y-84419361D01*
X169593999Y-84402744D01*
X169593996Y-84402742D01*
X169593993Y-84402740D01*
X169505662Y-84356535D01*
X169475768Y-84347757D01*
X169438624Y-84336850D01*
X169438616Y-84336848D01*
X169366639Y-84326500D01*
X169366638Y-84326500D01*
X168305194Y-84326500D01*
X168238155Y-84306815D01*
X168217513Y-84290181D01*
X167931819Y-84004487D01*
X167898334Y-83943164D01*
X167895500Y-83916806D01*
X167895500Y-83848708D01*
X167915185Y-83781669D01*
X167967989Y-83735914D01*
X168037147Y-83725970D01*
X168058511Y-83731004D01*
X168067156Y-83733869D01*
X168166443Y-83744012D01*
X168189760Y-83744011D01*
X168189760Y-83019013D01*
X168689760Y-83019013D01*
X168689760Y-83744012D01*
X168713068Y-83744012D01*
X168713082Y-83744011D01*
X168812367Y-83733868D01*
X168973241Y-83680560D01*
X168973252Y-83680555D01*
X169117488Y-83591588D01*
X169117492Y-83591585D01*
X169237332Y-83471745D01*
X169237335Y-83471741D01*
X169326302Y-83327505D01*
X169326307Y-83327494D01*
X169379615Y-83166619D01*
X169389759Y-83067335D01*
X169389760Y-83067322D01*
X169389760Y-83019013D01*
X168689760Y-83019013D01*
X168189760Y-83019013D01*
X168189760Y-82643013D01*
X168209445Y-82575974D01*
X168262249Y-82530219D01*
X168313760Y-82519013D01*
X169389759Y-82519013D01*
X169389759Y-82470705D01*
X169389758Y-82470690D01*
X169379615Y-82371405D01*
X169326307Y-82210531D01*
X169326302Y-82210520D01*
X169237335Y-82066284D01*
X169237332Y-82066280D01*
X169117492Y-81946440D01*
X169117488Y-81946437D01*
X168973252Y-81857470D01*
X168973241Y-81857465D01*
X168892673Y-81830768D01*
X168835228Y-81790996D01*
X168808405Y-81726480D01*
X168813971Y-81674057D01*
X168858856Y-81538605D01*
X168868999Y-81439322D01*
X168869000Y-81439309D01*
X168869000Y-81416000D01*
X166919001Y-81416000D01*
X166919001Y-81439322D01*
X166929143Y-81538605D01*
X166957274Y-81623495D01*
X166959676Y-81693324D01*
X166923945Y-81753366D01*
X166861424Y-81784559D01*
X166839568Y-81786500D01*
X165278361Y-81786500D01*
X165251065Y-81787963D01*
X165251060Y-81787963D01*
X165251048Y-81787964D01*
X165251040Y-81787964D01*
X165251011Y-81787967D01*
X165224689Y-81790797D01*
X165224687Y-81790798D01*
X165129558Y-81820586D01*
X165129548Y-81820590D01*
X165068238Y-81854068D01*
X165068230Y-81854073D01*
X165010019Y-81897649D01*
X165010001Y-81897665D01*
X162744487Y-84163181D01*
X162683164Y-84196666D01*
X162656806Y-84199500D01*
X157018194Y-84199500D01*
X156951155Y-84179815D01*
X156930513Y-84163181D01*
X155993819Y-83226487D01*
X155960334Y-83165164D01*
X155957500Y-83138806D01*
X155957500Y-82784576D01*
X155977185Y-82717537D01*
X156029989Y-82671782D01*
X156099147Y-82661838D01*
X156162703Y-82690863D01*
X156169298Y-82697432D01*
X156169331Y-82697399D01*
X156335986Y-82856737D01*
X156523766Y-82980691D01*
X156730669Y-83069124D01*
X156730678Y-83069127D01*
X156868499Y-83100584D01*
X156868500Y-83100584D01*
X156868500Y-81811001D01*
X156976185Y-81860180D01*
X157082737Y-81875500D01*
X157154263Y-81875500D01*
X157260815Y-81860180D01*
X157368500Y-81811001D01*
X157368500Y-83103049D01*
X157397767Y-83099086D01*
X157397773Y-83099085D01*
X157611768Y-83029554D01*
X157809901Y-82922934D01*
X157809904Y-82922932D01*
X157985820Y-82782645D01*
X158133852Y-82613207D01*
X158133859Y-82613199D01*
X158249259Y-82420053D01*
X158249263Y-82420045D01*
X158254407Y-82406340D01*
X158296391Y-82350492D01*
X158361905Y-82326208D01*
X158430148Y-82341199D01*
X158479453Y-82390704D01*
X158494500Y-82449910D01*
X158494500Y-82498639D01*
X158495963Y-82525934D01*
X158495967Y-82525988D01*
X158498797Y-82552310D01*
X158498798Y-82552312D01*
X158528586Y-82647441D01*
X158528590Y-82647451D01*
X158562068Y-82708761D01*
X158562073Y-82708769D01*
X158605649Y-82766980D01*
X158605664Y-82766997D01*
X158660000Y-82821332D01*
X158660015Y-82821347D01*
X158680365Y-82839626D01*
X158680371Y-82839631D01*
X158680379Y-82839638D01*
X158701000Y-82856255D01*
X158701002Y-82856256D01*
X158701007Y-82856260D01*
X158789338Y-82902465D01*
X158856377Y-82922150D01*
X158856381Y-82922150D01*
X158856383Y-82922151D01*
X158868014Y-82923823D01*
X158928362Y-82932500D01*
X158928363Y-82932500D01*
X162778639Y-82932500D01*
X162780075Y-82932422D01*
X162805952Y-82931036D01*
X162832310Y-82928202D01*
X162927444Y-82898413D01*
X162988767Y-82864928D01*
X163046985Y-82821347D01*
X165058512Y-80809818D01*
X165119835Y-80776334D01*
X165146193Y-80773500D01*
X166795000Y-80773500D01*
X166862039Y-80793185D01*
X166907794Y-80845989D01*
X166919000Y-80897500D01*
X166919000Y-80916000D01*
X168868999Y-80916000D01*
X168868999Y-80892692D01*
X168868998Y-80892677D01*
X168858855Y-80793392D01*
X168805547Y-80632518D01*
X168805542Y-80632507D01*
X168716575Y-80488271D01*
X168716572Y-80488267D01*
X168591625Y-80363320D01*
X168593056Y-80361888D01*
X168558525Y-80313121D01*
X168555387Y-80243322D01*
X168588129Y-80185200D01*
X170503511Y-78269819D01*
X170564834Y-78236334D01*
X170591192Y-78233500D01*
X170636639Y-78233500D01*
X170638075Y-78233422D01*
X170663952Y-78232036D01*
X170680637Y-78230242D01*
X170690320Y-78229201D01*
X170690320Y-78229200D01*
X170690326Y-78229200D01*
X170785460Y-78199404D01*
X170792813Y-78195388D01*
X170792834Y-78195379D01*
X170792833Y-78195378D01*
X170810445Y-78185761D01*
X170846764Y-78165930D01*
X170904985Y-78122347D01*
X173372347Y-75654985D01*
X173390626Y-75634635D01*
X173407260Y-75613993D01*
X173453465Y-75525662D01*
X173473150Y-75458623D01*
X173483500Y-75386638D01*
X173483500Y-74892501D01*
X176104000Y-74892501D01*
X176119147Y-75070460D01*
X176119148Y-75070463D01*
X176179197Y-75301088D01*
X176277360Y-75518251D01*
X176277362Y-75518254D01*
X176410812Y-75715698D01*
X176410814Y-75715700D01*
X176575706Y-75887746D01*
X176767316Y-76029460D01*
X176980115Y-76136751D01*
X177207987Y-76206536D01*
X177207985Y-76206536D01*
X177254000Y-76212428D01*
X177254000Y-75148696D01*
X177265955Y-75160651D01*
X177378852Y-75218175D01*
X177504000Y-75237996D01*
X177629148Y-75218175D01*
X177742045Y-75160651D01*
X177754000Y-75148696D01*
X177754000Y-76211274D01*
X177915434Y-76176483D01*
X178136562Y-76087626D01*
X178339494Y-75962676D01*
X178518389Y-75805229D01*
X178518396Y-75805223D01*
X178668102Y-75619815D01*
X178668109Y-75619805D01*
X178784331Y-75411761D01*
X178863722Y-75187062D01*
X178863726Y-75187048D01*
X178903999Y-74952177D01*
X178904000Y-74952166D01*
X178904000Y-73983010D01*
X177904000Y-73983010D01*
X177904000Y-73483010D01*
X178904000Y-73483010D01*
X178904000Y-72573537D01*
X178903999Y-72573518D01*
X178888852Y-72395559D01*
X178888851Y-72395556D01*
X178828802Y-72164931D01*
X178730639Y-71947768D01*
X178730637Y-71947765D01*
X178597187Y-71750321D01*
X178597185Y-71750319D01*
X178432293Y-71578273D01*
X178240683Y-71436559D01*
X178027884Y-71329267D01*
X177800020Y-71259485D01*
X177754000Y-71253591D01*
X177754000Y-72317324D01*
X177742045Y-72305369D01*
X177629148Y-72247845D01*
X177504000Y-72228024D01*
X177378852Y-72247845D01*
X177265955Y-72305369D01*
X177254000Y-72317324D01*
X177254000Y-71254744D01*
X177253999Y-71254744D01*
X177092566Y-71289535D01*
X176871437Y-71378393D01*
X176668505Y-71503343D01*
X176489610Y-71660790D01*
X176489603Y-71660796D01*
X176339897Y-71846204D01*
X176339890Y-71846214D01*
X176223668Y-72054258D01*
X176144277Y-72278957D01*
X176144273Y-72278971D01*
X176104000Y-72513842D01*
X176104000Y-73483010D01*
X177104000Y-73483010D01*
X177104000Y-73983010D01*
X176104000Y-73983010D01*
X176104000Y-74892501D01*
X173483500Y-74892501D01*
X173483500Y-70990000D01*
X173477661Y-70935687D01*
X173466455Y-70884176D01*
X173459219Y-70857802D01*
X173428647Y-70804114D01*
X173409894Y-70771181D01*
X173409890Y-70771176D01*
X173409888Y-70771172D01*
X173366990Y-70721665D01*
X173364136Y-70718371D01*
X173361581Y-70715906D01*
X173331359Y-70686743D01*
X173243024Y-70640535D01*
X173243023Y-70640534D01*
X173243022Y-70640534D01*
X173243022Y-70640533D01*
X173175990Y-70620851D01*
X173175978Y-70620848D01*
X173104001Y-70610500D01*
X173104000Y-70610500D01*
X168834362Y-70610500D01*
X168834361Y-70610500D01*
X168807065Y-70611963D01*
X168807060Y-70611963D01*
X168807048Y-70611964D01*
X168807040Y-70611964D01*
X168807011Y-70611967D01*
X168780689Y-70614797D01*
X168780687Y-70614798D01*
X168685558Y-70644586D01*
X168685548Y-70644590D01*
X168624238Y-70678068D01*
X168624230Y-70678073D01*
X168566019Y-70721649D01*
X168566001Y-70721665D01*
X166987666Y-72300001D01*
X166987638Y-72300031D01*
X166969361Y-72320379D01*
X166952744Y-72341000D01*
X166952740Y-72341005D01*
X166952740Y-72341007D01*
X166915407Y-72412377D01*
X166906534Y-72429340D01*
X166886850Y-72496375D01*
X166886848Y-72496383D01*
X166876500Y-72568360D01*
X166876500Y-76665694D01*
X166856815Y-76732733D01*
X166804011Y-76778488D01*
X166782574Y-76785992D01*
X165636574Y-77072491D01*
X165566762Y-77069653D01*
X165509567Y-77029523D01*
X165483147Y-76964841D01*
X165482500Y-76952193D01*
X165482500Y-73330360D01*
X165482226Y-73325253D01*
X165481036Y-73303048D01*
X165478202Y-73276690D01*
X165448413Y-73181556D01*
X165424070Y-73136976D01*
X165414931Y-73120238D01*
X165414926Y-73120230D01*
X165371350Y-73062019D01*
X165371349Y-73062018D01*
X165371347Y-73062015D01*
X165371342Y-73062010D01*
X165371334Y-73062001D01*
X165189999Y-72880667D01*
X165189997Y-72880665D01*
X165189985Y-72880653D01*
X165169635Y-72862374D01*
X165169629Y-72862369D01*
X165169620Y-72862361D01*
X165148999Y-72845744D01*
X165148996Y-72845742D01*
X165148993Y-72845740D01*
X165060662Y-72799535D01*
X165060659Y-72799534D01*
X164993624Y-72779850D01*
X164993616Y-72779848D01*
X164921639Y-72769500D01*
X164921638Y-72769500D01*
X161087362Y-72769500D01*
X161087361Y-72769500D01*
X161060065Y-72770963D01*
X161060060Y-72770963D01*
X161060048Y-72770964D01*
X161060040Y-72770964D01*
X161060011Y-72770967D01*
X161033689Y-72773797D01*
X161033687Y-72773798D01*
X160938558Y-72803586D01*
X160938548Y-72803590D01*
X160877238Y-72837068D01*
X160877230Y-72837073D01*
X160819019Y-72880649D01*
X160819001Y-72880665D01*
X160361042Y-73338624D01*
X160299719Y-73372109D01*
X160230027Y-73367125D01*
X160174094Y-73325253D01*
X160150265Y-73265886D01*
X160148237Y-73249182D01*
X160148237Y-73249181D01*
X160122587Y-73181548D01*
X160092220Y-73101477D01*
X160002483Y-72971470D01*
X159884240Y-72866717D01*
X159884238Y-72866716D01*
X159884237Y-72866715D01*
X159744365Y-72793303D01*
X159590986Y-72755500D01*
X159590985Y-72755500D01*
X159433015Y-72755500D01*
X159433014Y-72755500D01*
X159279634Y-72793303D01*
X159139762Y-72866715D01*
X159021516Y-72971470D01*
X159019089Y-72974987D01*
X159017742Y-72976938D01*
X158963463Y-73020929D01*
X158915692Y-73030500D01*
X158660271Y-73030500D01*
X158634826Y-73027861D01*
X158624199Y-73025633D01*
X158592791Y-73029548D01*
X158577453Y-73030500D01*
X158577353Y-73030500D01*
X158556867Y-73033918D01*
X158551805Y-73034656D01*
X158542166Y-73035857D01*
X158499837Y-73041134D01*
X158492324Y-73043371D01*
X158484853Y-73045936D01*
X158438838Y-73070837D01*
X158434287Y-73073180D01*
X158387259Y-73096171D01*
X158380842Y-73100753D01*
X158374641Y-73105579D01*
X158339185Y-73144094D01*
X158335639Y-73147789D01*
X158045248Y-73438181D01*
X157983925Y-73471666D01*
X157957567Y-73474500D01*
X157800725Y-73474500D01*
X157754659Y-73481211D01*
X157731624Y-73484567D01*
X157625036Y-73536676D01*
X157589643Y-73572069D01*
X157528320Y-73605554D01*
X157458628Y-73600568D01*
X157408250Y-73565590D01*
X157362136Y-73512371D01*
X157329359Y-73480743D01*
X157257235Y-73443015D01*
X157241024Y-73434535D01*
X157241023Y-73434534D01*
X157241022Y-73434534D01*
X157241022Y-73434533D01*
X157173990Y-73414851D01*
X157173978Y-73414848D01*
X157102001Y-73404500D01*
X157102000Y-73404500D01*
X151254000Y-73404500D01*
X151253997Y-73404500D01*
X151199687Y-73410338D01*
X151148181Y-73421543D01*
X151148172Y-73421546D01*
X151121807Y-73428779D01*
X151121796Y-73428783D01*
X151035181Y-73478105D01*
X151035167Y-73478115D01*
X150988703Y-73518376D01*
X150925147Y-73547400D01*
X150855989Y-73537456D01*
X150808237Y-73498974D01*
X150766347Y-73443015D01*
X150766342Y-73443010D01*
X150766334Y-73443001D01*
X150330998Y-73007666D01*
X150330985Y-73007653D01*
X150310635Y-72989374D01*
X150310629Y-72989369D01*
X150310620Y-72989361D01*
X150289999Y-72972744D01*
X150289996Y-72972742D01*
X150289993Y-72972740D01*
X150201662Y-72926535D01*
X150201659Y-72926534D01*
X150134624Y-72906850D01*
X150134616Y-72906848D01*
X150062639Y-72896500D01*
X150062638Y-72896500D01*
X146682000Y-72896500D01*
X146681997Y-72896500D01*
X146627687Y-72902338D01*
X146576181Y-72913543D01*
X146576172Y-72913546D01*
X146549807Y-72920779D01*
X146549796Y-72920783D01*
X146463181Y-72970105D01*
X146463173Y-72970111D01*
X146410371Y-73015863D01*
X146378743Y-73048640D01*
X146332534Y-73136977D01*
X146332533Y-73136977D01*
X146312851Y-73204009D01*
X146312848Y-73204021D01*
X146302500Y-73275998D01*
X146302500Y-74430500D01*
X146282815Y-74497539D01*
X146230011Y-74543294D01*
X146178500Y-74554500D01*
X143307804Y-74554500D01*
X143282359Y-74551861D01*
X143271732Y-74549633D01*
X143240324Y-74553548D01*
X143224986Y-74554500D01*
X143224886Y-74554500D01*
X143204400Y-74557918D01*
X143199332Y-74558657D01*
X143138839Y-74566198D01*
X143069879Y-74554957D01*
X143017944Y-74508219D01*
X142999500Y-74443150D01*
X142999500Y-73711359D01*
X142997721Y-73678176D01*
X142996603Y-73657322D01*
X142996009Y-73651802D01*
X142993770Y-73630977D01*
X142993767Y-73630950D01*
X142989845Y-73606751D01*
X142985114Y-73577552D01*
X142934832Y-73442743D01*
X142901347Y-73381420D01*
X142815123Y-73266239D01*
X142815118Y-73266234D01*
X142815113Y-73266228D01*
X142379776Y-72830892D01*
X142379761Y-72830877D01*
X142379737Y-72830855D01*
X142339519Y-72794728D01*
X142339507Y-72794718D01*
X142337752Y-72793304D01*
X142329584Y-72786721D01*
X142318856Y-72778076D01*
X142274974Y-72746433D01*
X142144100Y-72686663D01*
X142077055Y-72666976D01*
X142014985Y-72658052D01*
X141934638Y-72646500D01*
X140078000Y-72646500D01*
X140077991Y-72646500D01*
X140077990Y-72646501D01*
X139970549Y-72658052D01*
X139970537Y-72658054D01*
X139919027Y-72669260D01*
X139816502Y-72703383D01*
X139816496Y-72703386D01*
X139695462Y-72781171D01*
X139695451Y-72781179D01*
X139642659Y-72826923D01*
X139548433Y-72935664D01*
X139548430Y-72935668D01*
X139488664Y-73066534D01*
X139468976Y-73133582D01*
X139462080Y-73181548D01*
X139449904Y-73266239D01*
X139448500Y-73276001D01*
X139448500Y-73653251D01*
X139428815Y-73720290D01*
X139412181Y-73740932D01*
X139043294Y-74109818D01*
X138981971Y-74143303D01*
X138912279Y-74138319D01*
X138885032Y-74122969D01*
X138884879Y-74123218D01*
X138734492Y-74030457D01*
X138734481Y-74030452D01*
X138573606Y-73977144D01*
X138474322Y-73967000D01*
X138426000Y-73967000D01*
X138426000Y-75043000D01*
X138406315Y-75110039D01*
X138353511Y-75155794D01*
X138302000Y-75167000D01*
X138050000Y-75167000D01*
X137982961Y-75147315D01*
X137937206Y-75094511D01*
X137926000Y-75043000D01*
X137926000Y-73967000D01*
X137925999Y-73966999D01*
X137877693Y-73967000D01*
X137877675Y-73967001D01*
X137778392Y-73977144D01*
X137617518Y-74030452D01*
X137617507Y-74030457D01*
X137473271Y-74119424D01*
X137473267Y-74119427D01*
X137353427Y-74239267D01*
X137353424Y-74239271D01*
X137264457Y-74383507D01*
X137261403Y-74390059D01*
X137259709Y-74389269D01*
X137225365Y-74438855D01*
X137160844Y-74465666D01*
X137092070Y-74453339D01*
X137047681Y-74416027D01*
X136995150Y-74344850D01*
X136988902Y-74340239D01*
X136885882Y-74264207D01*
X136831044Y-74245018D01*
X136774268Y-74204296D01*
X136748522Y-74139343D01*
X136748000Y-74127977D01*
X136748000Y-72412377D01*
X136767685Y-72345338D01*
X136812573Y-72303545D01*
X136818443Y-72300338D01*
X136818450Y-72300336D01*
X136926472Y-72219472D01*
X136926474Y-72219468D01*
X136930435Y-72216504D01*
X136995900Y-72192087D01*
X137064173Y-72206939D01*
X137110284Y-72250674D01*
X137161110Y-72333075D01*
X137161113Y-72333079D01*
X137279919Y-72451885D01*
X137422922Y-72540091D01*
X137422927Y-72540093D01*
X137582416Y-72592942D01*
X137680856Y-72602999D01*
X137697500Y-72602998D01*
X137697500Y-71878000D01*
X138197500Y-71878000D01*
X138197500Y-72602999D01*
X138214136Y-72602999D01*
X138214152Y-72602998D01*
X138312583Y-72592943D01*
X138472072Y-72540093D01*
X138472077Y-72540091D01*
X138615080Y-72451885D01*
X138733885Y-72333080D01*
X138822091Y-72190077D01*
X138822093Y-72190072D01*
X138874942Y-72030583D01*
X138884999Y-71932150D01*
X138885000Y-71932137D01*
X138885000Y-71878000D01*
X138197500Y-71878000D01*
X137697500Y-71878000D01*
X137697500Y-70653000D01*
X138197500Y-70653000D01*
X138197500Y-71378000D01*
X138884999Y-71378000D01*
X138884999Y-71323864D01*
X138884998Y-71323847D01*
X138874943Y-71225416D01*
X138822093Y-71065927D01*
X138822091Y-71065922D01*
X138733885Y-70922919D01*
X138615080Y-70804114D01*
X138472077Y-70715908D01*
X138472072Y-70715906D01*
X138312583Y-70663057D01*
X138214150Y-70653000D01*
X138197500Y-70653000D01*
X137697500Y-70653000D01*
X137697500Y-70652999D01*
X137680856Y-70653000D01*
X137582415Y-70663057D01*
X137422927Y-70715906D01*
X137422922Y-70715908D01*
X137279919Y-70804114D01*
X137161112Y-70922921D01*
X137110284Y-71005326D01*
X137058336Y-71052050D01*
X136989373Y-71063271D01*
X136930436Y-71039495D01*
X136818453Y-70955666D01*
X136818447Y-70955662D01*
X136692024Y-70908509D01*
X136636144Y-70902500D01*
X136636130Y-70902500D01*
X136108870Y-70902500D01*
X136108855Y-70902500D01*
X136052975Y-70908509D01*
X135926552Y-70955662D01*
X135926549Y-70955664D01*
X135818528Y-71036528D01*
X135737664Y-71144549D01*
X135737662Y-71144552D01*
X135690509Y-71270975D01*
X135684500Y-71326855D01*
X135684500Y-71929144D01*
X135690509Y-71985024D01*
X135737662Y-72111447D01*
X135737664Y-72111450D01*
X135818528Y-72219472D01*
X135926550Y-72300336D01*
X135926552Y-72300336D01*
X135932427Y-72303545D01*
X135981832Y-72352951D01*
X135997000Y-72412377D01*
X135997000Y-74145823D01*
X135977315Y-74212862D01*
X135924511Y-74258617D01*
X135913963Y-74262861D01*
X135910118Y-74264207D01*
X135839576Y-74316269D01*
X135773947Y-74340239D01*
X135705777Y-74324923D01*
X135684739Y-74310209D01*
X135638839Y-74270435D01*
X135638831Y-74270430D01*
X135507965Y-74210664D01*
X135507960Y-74210662D01*
X135507959Y-74210662D01*
X135440920Y-74190977D01*
X135440922Y-74190977D01*
X135440917Y-74190976D01*
X135393444Y-74184150D01*
X135298500Y-74170500D01*
X130099362Y-74170500D01*
X130099360Y-74170500D01*
X130045311Y-74173397D01*
X130045310Y-74173397D01*
X130018977Y-74176229D01*
X130018950Y-74176232D01*
X129965554Y-74184885D01*
X129965552Y-74184885D01*
X129830747Y-74235166D01*
X129769422Y-74268651D01*
X129654240Y-74354876D01*
X129654228Y-74354886D01*
X128037299Y-75971815D01*
X127975976Y-76005300D01*
X127906284Y-76000316D01*
X127850351Y-75958444D01*
X127836338Y-75934569D01*
X127783226Y-75815277D01*
X127672024Y-75662221D01*
X127531430Y-75535629D01*
X127531427Y-75535627D01*
X127367596Y-75441040D01*
X127367584Y-75441035D01*
X127187666Y-75382576D01*
X127046671Y-75367757D01*
X126949512Y-75367757D01*
X126949512Y-76017757D01*
X126449512Y-76017757D01*
X126449512Y-75367757D01*
X126352353Y-75367757D01*
X126211357Y-75382576D01*
X126031439Y-75441035D01*
X126031427Y-75441040D01*
X125867596Y-75535627D01*
X125867593Y-75535629D01*
X125727002Y-75662217D01*
X125727000Y-75662220D01*
X125615794Y-75815279D01*
X125538847Y-75988108D01*
X125532545Y-76017757D01*
X126374888Y-76017757D01*
X126301967Y-76032262D01*
X126219272Y-76087517D01*
X126164017Y-76170212D01*
X126144614Y-76267757D01*
X126164017Y-76365302D01*
X126219272Y-76447997D01*
X126301967Y-76503252D01*
X126374888Y-76517757D01*
X125532545Y-76517757D01*
X125538846Y-76547402D01*
X125615798Y-76720238D01*
X125726999Y-76873292D01*
X125867593Y-76999884D01*
X125867596Y-76999886D01*
X126031427Y-77094473D01*
X126031439Y-77094478D01*
X126211357Y-77152937D01*
X126352353Y-77167757D01*
X126546916Y-77167757D01*
X126613955Y-77187442D01*
X126659710Y-77240246D01*
X126669654Y-77309404D01*
X126643466Y-77369565D01*
X126626078Y-77391141D01*
X126594433Y-77435025D01*
X126534663Y-77565899D01*
X126514976Y-77632944D01*
X126509675Y-77669815D01*
X126494500Y-77775362D01*
X126494500Y-83950000D01*
X126494501Y-83950009D01*
X126506052Y-84057450D01*
X126506054Y-84057462D01*
X126517260Y-84108972D01*
X126542431Y-84184598D01*
X126544925Y-84254423D01*
X126509273Y-84314512D01*
X126446794Y-84345787D01*
X126424777Y-84347757D01*
X126352353Y-84347757D01*
X126211357Y-84362576D01*
X126031439Y-84421035D01*
X126031427Y-84421040D01*
X125867596Y-84515627D01*
X125867593Y-84515629D01*
X125727002Y-84642217D01*
X125727000Y-84642220D01*
X125615794Y-84795279D01*
X125538847Y-84968108D01*
X125532545Y-84997757D01*
X126374888Y-84997757D01*
X126301967Y-85012262D01*
X126219272Y-85067517D01*
X126164017Y-85150212D01*
X126144614Y-85247757D01*
X126164017Y-85345302D01*
X126219272Y-85427997D01*
X126301967Y-85483252D01*
X126374888Y-85497757D01*
X125532545Y-85497757D01*
X124000500Y-85497757D01*
X124000500Y-70003245D01*
X124000670Y-69996756D01*
X124004935Y-69915376D01*
X124007501Y-69866421D01*
X124017628Y-69686087D01*
X124018954Y-69673694D01*
X124042513Y-69524947D01*
X124042700Y-69523809D01*
X124069739Y-69364666D01*
X124072199Y-69353402D01*
X124112150Y-69204305D01*
X124112709Y-69202293D01*
X124156351Y-69050811D01*
X124159724Y-69040753D01*
X124160159Y-69039620D01*
X172453500Y-69039620D01*
X172492679Y-69249208D01*
X172569702Y-69448029D01*
X172681948Y-69629312D01*
X172825593Y-69786882D01*
X172995746Y-69915377D01*
X173186606Y-70010413D01*
X173186608Y-70010413D01*
X173186611Y-70010415D01*
X173391690Y-70068766D01*
X173550806Y-70083510D01*
X173550810Y-70083510D01*
X175857190Y-70083510D01*
X175857194Y-70083510D01*
X176016310Y-70068766D01*
X176221389Y-70010415D01*
X176221393Y-70010413D01*
X176221394Y-70010413D01*
X176412253Y-69915377D01*
X176412253Y-69915376D01*
X176412255Y-69915376D01*
X176582407Y-69786882D01*
X176726052Y-69629312D01*
X176838298Y-69448029D01*
X176915321Y-69249208D01*
X176954500Y-69039620D01*
X176954500Y-68826400D01*
X176915321Y-68616812D01*
X176838298Y-68417991D01*
X176726052Y-68236708D01*
X176582407Y-68079138D01*
X176554264Y-68057885D01*
X176412253Y-67950642D01*
X176221393Y-67855606D01*
X176016310Y-67797254D01*
X175857194Y-67782510D01*
X173550806Y-67782510D01*
X173423513Y-67794305D01*
X173391689Y-67797254D01*
X173186607Y-67855606D01*
X173186605Y-67855606D01*
X172995746Y-67950642D01*
X172825593Y-68079137D01*
X172681947Y-68236709D01*
X172569702Y-68417990D01*
X172569701Y-68417992D01*
X172492680Y-68616809D01*
X172492679Y-68616812D01*
X172453500Y-68826400D01*
X172453500Y-69039620D01*
X124160159Y-69039620D01*
X124215583Y-68895233D01*
X124216692Y-68892452D01*
X124276439Y-68748212D01*
X124280488Y-68739429D01*
X124351569Y-68599925D01*
X124353521Y-68596250D01*
X124428588Y-68460426D01*
X124433065Y-68452962D01*
X124518633Y-68321199D01*
X124521434Y-68317077D01*
X124611010Y-68190832D01*
X124615733Y-68184603D01*
X124714702Y-68062386D01*
X124718532Y-68057885D01*
X124821613Y-67942537D01*
X124826323Y-67937556D01*
X124937556Y-67826323D01*
X124942537Y-67821613D01*
X125057885Y-67718532D01*
X125062386Y-67714702D01*
X125184603Y-67615733D01*
X125190832Y-67611010D01*
X125317077Y-67521434D01*
X125321199Y-67518633D01*
X125452962Y-67433065D01*
X125460426Y-67428588D01*
X125596255Y-67353517D01*
X125599934Y-67351565D01*
X125739429Y-67280488D01*
X125748212Y-67276439D01*
X125892452Y-67216692D01*
X125895233Y-67215583D01*
X126040753Y-67159724D01*
X126050811Y-67156351D01*
X126202293Y-67112709D01*
X126204305Y-67112150D01*
X126353402Y-67072199D01*
X126364666Y-67069739D01*
X126523809Y-67042700D01*
X126524947Y-67042513D01*
X126673694Y-67018954D01*
X126686087Y-67017628D01*
X126866554Y-67007493D01*
X126996756Y-67000669D01*
X127003245Y-67000500D01*
X182996755Y-67000500D01*
X183003243Y-67000669D01*
G37*
%TD.AperFunction*%
%TD*%
M02*
